<?xml version="1.0" standalone="no"?>
<!DOCTYPE svg PUBLIC "-//W3C//DTD SVG 1.1//EN" "http://www.w3.org/Graphics/SVG/1.1/DTD/svg11.dtd" >
<svg xmlns="http://www.w3.org/2000/svg" xmlns:xlink="http://www.w3.org/1999/xlink" version="1.1">
<metadata>
Created by FontForge 20200314 at Mon Oct 24 22:01:11 2011
 By Unknown
Copyright (c) 2011, Font Diner, Inc (diner@fontdiner.com), with Reserved Font Names "Creepster"
</metadata>
<defs>
<font id="Creepster-Regular" horiz-adv-x="466" >
  <font-face 
    font-family="Creepster"
    font-weight="400"
    font-stretch="normal"
    units-per-em="1024"
    panose-1="2 0 0 0 0 0 0 0 0 0"
    ascent="819"
    descent="-205"
    x-height="737.5"
    cap-height="754"
    bbox="-102 -222.889 825.909 972.286"
    underline-thickness="51"
    underline-position="-102"
    unicode-range="U+0020-FB02"
  />
<missing-glyph horiz-adv-x="241" 
 />
    <glyph glyph-name=".notdef" horiz-adv-x="241" 
 />
    <glyph glyph-name=".null" horiz-adv-x="0" 
 />
    <glyph glyph-name="nonmarkingreturn" horiz-adv-x="341" 
 />
    <glyph glyph-name="space" unicode=" " horiz-adv-x="241" 
 />
    <glyph glyph-name="exclam" unicode="!" horiz-adv-x="207" 
d="M160 308l-2 -71q0 -69 -29 -92q-19 -13 -33.5 -11t-22.5 11t-8.5 21t-5 34.5t-11 45t-4.5 48.5t2.5 49t-8.5 34q-12 15 -12 34q0 12 4 21q9 26 9 46t-1 29t-2.5 17.5t-3.5 26t0 40t0 45.5t-2.5 37t6.5 33.5t11.5 25.5t15.5 11.5t15 8t11 1.5t15 -9.5t19 -13.5t25.5 -12
t16.5 -22.5t3.5 -18.5t3.5 -5q2 -4 4 -26.5t-3.5 -45t-6 -37.5t-5.5 -30.5t-3.5 -32t0.5 -24.5t-2.5 -14.5t-1.5 -13.5t3.5 -21.5t3 -26.5t1 -25.5t0 -27t-1.5 -39.5zM32.5 33q1.5 8 16.5 21t37 25t60 7q18 -2 28 -21q21 -36 -19 -65q-18 -12 -32 -14.5t-19.5 -9t-17.5 -3.5
t-16 12.5t-12 12.5t-14.5 8t-9.5 12t-1.5 15z" />
    <glyph glyph-name="quotedbl" unicode="&#x22;" horiz-adv-x="283" 
d="M83 729q44 0 39 -67q-3 -34 -11.5 -84.5t-7 -63t2 -25.5t-2.5 -25q-7 -27 -35 -27q-20 0 -32 30q-11 25 -11.5 64t1.5 66t-4.5 43.5t-6.5 28.5t2 23q5 24 12.5 30.5t14 10.5t19.5 0t20 -4zM172 508l-5 74v18q0 9 -3 17t-1 16t0 13t1 10.5t1 11.5t1.5 8.5t-0.5 9.5
q-5 12 4.5 23t12.5 16t8.5 2.5t11 -0.5t11.5 4q18 6 24 2q6 -5 6 -12q7 1 12 -3.5t8 -23.5q6 -28 -2.5 -58.5t-7.5 -50t-4 -36.5t-5.5 -31.5t-0.5 -29.5q-3 -62 -48 -44q-20 9 -22 25q-2 14 -2 39z" />
    <glyph glyph-name="numbersign" unicode="#" horiz-adv-x="600" 
d="M109.5 325.5q1.5 8.5 12.5 12t12.5 24.5t-3.5 39q-19 0 -39 -0.5t-36 3.5q-37 8 -34 43q2 46 53 42q12 -1 31 -1t39 6q36 97 32 143t13 77t46 31q27 0 37 -44q11 -37 -1 -79q-31 -109 -25 -121q2 -3 27 -2q53 4 65 3q43 -7 49.5 0t11 26.5t7.5 41.5q5 38 5 72
q-2 17 -0.5 29.5t10 18t13 13t15.5 17.5q28 26 44 18q8 -4 9.5 -13t4.5 -17q8 -28 -6 -60q-9 -20 -12 -43t-6.5 -36t-5 -32t0.5 -25q3 -9 29 -12q33 10 37 20q21 9 43 -10q8 -10 12.5 -14.5t4 -18t-8 -20.5t-20.5 -19q-24 -19 -48 -12q-5 2 -15 2t-21 -1q-26 -2 -37 -5
q-11 -29 -14 -53t-10 -41t-2 -21.5t17.5 -4.5t26 2t27.5 4q35 3 45.5 -4.5t10.5 -27.5t-11.5 -31t-27.5 -15.5t-42 -4.5h-37q-22 0 -26 -5.5t-10 -40t-18.5 -71.5t-16.5 -55.5t-8.5 -31.5t-10.5 -23q-16 -22 -36 -15q-47 14 -13 92q40 89 35 144q-2 17 -60 17
q-52 0 -70 -5.5t-26.5 -21.5t-5.5 -26.5t-3 -34.5t-14.5 -37.5t-13 -27t-9 -28t-8.5 -28t-12 -25.5q-21 -29 -49 -20q-25 8 -29 47q-2 21 5.5 34.5t9.5 27.5t6.5 26t8.5 27q8 34 13 47q9 20 13 38q-24 -5 -45 -8t-31.5 3.5t-12.5 17t1 21.5q6 27 25 33q34 13 77 7
q4 14 5.5 22.5zM191 301q28 15 55 0q17 -12 32 -11t33.5 9t33.5 8l28 104q-16 12 -33 12h-93q-21 -1 -33 -16q-5 -7 -13 -51.5t-10 -54.5z" />
    <glyph glyph-name="dollar" unicode="$" horiz-adv-x="370" 
d="M152 670q2 16 2 26q-22 43 15 53q22 4 43 -6q40 -18 46 -38q2 -8 0 -20t-4 -26q20 -9 33.5 -9.5t24 -5t15.5 -9.5t8 -11t5.5 -12.5t7 -13t5.5 -13t1 -12.5v-11q0 -6 3.5 -14t1 -24t-5.5 -20q-10 -13 -30.5 -15t-24 -7.5t-1.5 -10.5q-9 -9 -21 -19q-28 5 -35 10
q-15 11 -17 39q-6 35 -33 40q-36 8 -59 -33q-3 -7 -7 -20.5t5 -29.5t12.5 -23t6.5 -12q5 -9 17 -14t17.5 -10t10 -9.5l9 -9t19.5 -10.5q45 -19 53 -47q24 -12 31 -23t12 -25q12 -30 0 -89q-3 -18 -8 -45.5t-13.5 -40.5t-33.5 -8q-10 -7 -20.5 -18t-24.5 -18q2 -12 2 -26
t-10 -24q-22 -22 -38 -8q-8 7 -9.5 13.5t-2.5 23.5l-1 13q-17 2 -33.5 8t-19 19.5t-6 18t-8.5 7t-11.5 5.5t-15 11t-12.5 15.5t-5.5 15t-1.5 15t-3 20t-5 23.5t8 22q24 24 42.5 18.5t26 -17t12 -28t6 -26t3.5 -17.5q4 -15 25 -17t33.5 4.5t13.5 38.5t-3 55t-33 36
q-20 8 -24 15t-8 10t-15.5 5.5t-17.5 7.5t-11 11q-16 20 -26 26.5t-15 11.5t-8.5 10t-6.5 10t-9 11q-15 15 -19 76q-1 16 -2.5 31.5t4.5 36t6.5 33t4 17.5t7.5 9q15 11 20 20t12.5 12t17 9.5t16.5 9t14 9.5q17 14 40 14z" />
    <glyph glyph-name="percent" unicode="%" horiz-adv-x="563" 
d="M472 737q15 -4 28 -19t14.5 -36.5t-5.5 -33t-17 -19t-19 -13t-11.5 -12t-1.5 -13.5t1 -15q0 -19 -16 -35l-13 -17q-6 -7 -10 -13.5t-12 -14.5q-22 -22 -29 -38.5t-18 -29t-27.5 -35t-25.5 -40t-23.5 -30t-18 -30t-6.5 -29.5q-6 -30 -30 -52q-22 -22 -33 -97
q-11 -79 -51 -121q-16 -17 -37 -18.5t-34 6t-17 20.5q-10 28 16 67q7 11 8.5 19t10.5 17t14 11.5t7 14.5t12 22t14 28.5t13 29t14 26t12.5 22t15.5 20t10.5 19t4.5 10.5q6 13 18 29t20 30.5t15 25.5q14 31 22.5 42t19.5 23.5t23 27.5q29 38 40 68q11 34 46 124q-16 16 -43 5
q-10 -3 -22.5 -9t-24.5 -12q-32 -14 -37 -14.5t-14 -0.5t-19 2q3 -16 2 -25.5t1 -18t-1 -22.5t-0.5 -25t-4.5 -27t-12 -32.5t-14.5 -29t-19 -23t-18.5 -19t-16.5 -21t-28 -21.5t-43 -6t-38.5 14t-27 26q-26 33 -26 61.5t2 50t16 44.5q-18 110 70 161q30 18 51 16
q59 -4 85 -47q21 -10 46 -3.5t47 15t43 16.5q45 18 52 22t22 0t28 -18zM93.5 481.5q14.5 -16.5 27.5 -14.5t25 16t22 32q31 56 10 73q-16 14 -19.5 32t-10.5 26q-14 13 -20 2q-2 -4 -6.5 -15t-16.5 -27.5t-17 -30.5t-11.5 -27t-2 -31.5t19 -35zM497 346.5q4 0.5 14.5 -2
t22.5 -18t13.5 -39.5t3 -35t2.5 -22q2 -20 -1.5 -53.5t-15.5 -63t-28 -55.5q-36 -58 -70 -66q-52 -9 -102 16q-11 5 -15 15t-12.5 18.5t-11.5 20t-5 24.5t-3 26t-2.5 23.5t1.5 20t7.5 17t9.5 14.5t10 20t21.5 30t27.5 32t16.5 25t11.5 19q14 21 35 28q35 13 50.5 9
t19.5 -3.5zM454 243q-11 1 -18.5 -4l-19.5 -13t-18.5 -8t-9.5 -8t-10.5 -9.5t-11.5 -13.5t-5.5 -34.5t6.5 -36.5q3 -8 3.5 -13.5t1.5 -9.5q4 -8 18 -13q18 -6 44 21q25 27 25 45q0 6 3.5 15.5t7.5 20.5q13 43 -16 61z" />
    <glyph glyph-name="ampersand" unicode="&#x26;" horiz-adv-x="476" 
d="M247 386q64 -99 79 -99q11 0 27 21q29 38 33 64q8 56 40 58q17 2 26 -13t13.5 -37.5t7 -37t3.5 -28.5q1 -32 -9.5 -43t-27.5 -16q-7 -11 -15 -23.5t-16 -25.5q-17 -27 -23 -44q9 -39 36 -61q22 -19 27 -32q10 -25 -1.5 -40.5t-23 -26.5t-30.5 -6t-30 7.5t-19 9.5
q-18 16 -18 60q-13 -14 -28 -24t-22 -20.5t-15 -20.5t-18 -18q-23 -17 -52.5 -6t-47.5 20.5t-31 9.5t-22 5.5t-16 12.5q-21 20 -40 23.5t-25 19t-3 29.5q11 39 7 71.5t-1 54t10 42.5q17 49 50 72q16 12 26 18.5t16 10.5q15 11 6 34q-5 11 -11 23q-17 31 -18 51q-2 27 -5 33
t-7.5 20t-3.5 30t0 27q-2 17 4 25l8 12q3 5 3.5 22t8.5 28.5t16 22.5q3 6 7 6q8 0 16 11t19 15.5t26.5 6.5t32.5 2q53 2 78 3q55 2 57 -38q1 -11 1 -19v-14q26 -22 27 -46.5t-8 -36t-10.5 -16.5t-3.5 -12.5t-5 -16.5q-7 -21 -13.5 -30.5t-14.5 -19.5t-18 -22
q-31 -40 -59 -88zM223 542q-8 2 -28 4.5t-23 -9.5t2 -24q7 -16 12 -48q8 9 16.5 16.5t15.5 14.5q15 15 14 29.5t-9 16.5zM129 144q11 -14 34 -29t33.5 -11.5t16 10t11.5 8.5l12 4q17 5 20 18q6 28 -30 54q-17 11 -23 21.5t-8 33.5q-8 48 -27 49q-17 0 -35 -38
q-19 -39 -17 -72.5t13 -47.5z" />
    <glyph glyph-name="quotesingle" unicode="'" horiz-adv-x="145" 
d="M102 721q17 2 20 -24q5 -22 3.5 -35t-8 -35t-5.5 -41.5t-4.5 -36.5t-6 -31.5t-0.5 -29.5q0 -63 -47 -44q-20 9 -22 25q-1 7 -1 17v22q0 28 -3 39t-3 28v25q0 9 -3.5 17t-1.5 16t0 13q-1 5 2.5 10.5t1 11.5t1.5 8.5t0 9.5q-6 13 8 27q5 7 8.5 12t8 2.5t10 -0.5t12.5 4
q30 9 30 -10z" />
    <glyph glyph-name="parenleft" unicode="(" horiz-adv-x="230" 
d="M205 775.5q6 2.5 11.5 -1.5t7 -12.5t0.5 -17.5q-2 -21 -19 -33.5t-22.5 -23.5t-8.5 -14t-6 -9q-7 -17 -10 -34t-6 -24.5t-6 -13.5q-5 -12 -5 -27.5t-1.5 -22.5t-4 -11.5t-5.5 -9.5q-9 -12 -13 -34q-5 -26 -13 -57q-8 -30 12 -72q7 -16 3 -25t-7 -19q-6 -26 4.5 -55.5
t12.5 -40.5t3 -17q3 -15 12 -32.5t9 -31t6 -20t6.5 -17.5t10.5 -20.5t13.5 -22t8.5 -17t10 -11.5t8.5 -15t3.5 -16.5t-6 -14.5q-13 -13 -46 16q-7 6 -11.5 8.5t-10.5 16t-17 23t-13.5 22.5t-8.5 17.5t-8.5 10.5t-4.5 12q-5 16 -11 19t-9 19q-7 29 -12.5 36.5t-5.5 20t-4 21
t-3.5 19t-2.5 18.5q-5 11 -10 48q-2 14 -2 24t-3.5 21.5t-3.5 32.5t-0.5 31t1 19.5t4.5 20.5q6 27 4 42q-3 26 17 63q5 10 11 18q13 21 20 43q18 52 28 57q3 17 18 33q23 26 34 31t17 11t12 11t12 7.5z" />
    <glyph glyph-name="parenright" unicode=")" horiz-adv-x="232" 
d="M206 447q1 -4 1 -26.5t-1 -52.5q-1 -73 -11 -106q-15 -49 -25.5 -87.5t-17.5 -50.5t-9.5 -25.5t-12.5 -19t-14.5 -17.5t-12.5 -21t-17 -18q-21 -21 -34.5 -27.5t-23 -15.5t-18.5 2q-18 20 34 74q48 51 41 73q-4 8 1.5 13t9.5 11.5t4.5 11t4.5 6.5q14 10 11 39q-1 11 2 23
q5 20 3 35t3.5 30t1.5 25t-2.5 26t12.5 21q2 22 3.5 43.5t-4.5 31.5t-7 16t-2 11q-1 13 -6.5 23t-3.5 23q3 19 -10.5 42t-15.5 31.5t-4 19t-5 21.5q-8 30 -19 40.5t-14 17.5t-7 14.5t-14 13.5t-10 11t-4 12.5t-2.5 16t7.5 10.5t14 2q19 -2 26 -12.5t15.5 -15.5t10.5 -16
t14.5 -21.5t17 -21.5t13 -16.5t12 -20t10.5 -21.5t9.5 -22.5t4 -33.5t14.5 -26q13 -11 15 -38q1 -6 3.5 -8.5t4 -9t2 -14l1 -15t1.5 -11.5z" />
    <glyph glyph-name="asterisk" unicode="*" horiz-adv-x="422" 
d="M82 384q-15 -12 -30 -10.5t-25 20.5q-4 7 -4 19t5 25q12 29 46 40q28 10 58 32q-18 11 -35.5 20.5t-33.5 18.5q-37 21 -46 34q-13 20 -3 43q10 25 39 21.5t42 -13.5t21 -22t12.5 -22.5t10 -14.5t12 -3.5t14.5 -0.5q1 19 1 33.5t1 44t-1 49t6 30.5q17 25 50 5
q22 -13 27 -36t1 -43q-7 -36 -3 -65q33 21 61 43t43 24.5t26.5 -1.5t18.5 -13q18 -20 3 -44.5t-29.5 -32t-29 -9.5t-26 -1.5t-18 -3.5t-8.5 -11.5t-12 -18.5l27 -18q12 -8 36.5 -24.5t42 -25.5t22.5 -24q7 -13 -2.5 -25t-20.5 -17t-24 -5q-31 -2 -57 24q-18 18 -47 34
q2 -37 4.5 -69t-3 -45.5t-15 -21.5t-21.5 -10q-27 -3 -42 28q-20 40 12 89q6 10 6 16t-3 10t-6 10q-14 -8 -25.5 -15t-34.5 -19q-28 -17 -43 -29z" />
    <glyph glyph-name="plus" unicode="+" horiz-adv-x="411" 
d="M238 389l123 7q16 0 26 -1q17 -2 19 -28q1 -26 -9 -37.5t-22 -11.5q-8 -6 -22 -5t-26 2.5t-17 0.5t-8 -2q-7 -2 -19 4t-29 1q-4 -31 -1 -53t2.5 -27t-1.5 -9q-2 -8 3 -22q13 -34 -7 -53q-9 -8 -26 -11.5t-29.5 1t-20.5 14.5q-17 20 -15 48q1 19 0 23q-3 5 3 17q7 18 1 65
q-28 -13 -33 -10t-9 2.5t-7 -2.5q-10 -3 -16.5 0t-13.5 3l-28 -2q-9 0 -22 6.5t-21 6.5q-5 14 -11 31t-0.5 26t12.5 13t16 6q16 4 26 3.5t17.5 -3t14.5 -4.5q19 -7 26 -3.5t9.5 3.5t6.5 -1t9.5 -2.5t16.5 -1.5q4 29 4 54.5t-2 46t-4 34t-2 19.5q0 24 28 35q9 3 26.5 1
t30.5 -16.5t12.5 -36t-1.5 -36.5t-3 -32t-4 -33.5t-3 -29.5z" />
    <glyph glyph-name="comma" unicode="," horiz-adv-x="152" 
d="M134.5 -4q-3.5 -4 -3 -15.5t-3.5 -17.5t-6 -14t-5 -10.5t-6 -11.5q-4 -8 -10 -8.5t-7 -8.5q-2 -15 -27 -15q-26 0 -29 17q-1 6 8 18.5t15 15.5t14.5 7t9 13t-5.5 21q-8 -5 -16 -3t-17.5 0t-14.5 4t-16 10q-12 5 -10 29q4 48 22 57q10 4 15 7.5t8 5.5t5 2t9.5 -2t15.5 2
t10.5 0.5t7 -4t8.5 -1.5q12 -4 15.5 -14.5t5 -12.5t2.5 -3q1 -2 3 -15q1 -9 0.5 -13.5t-0.5 -7.5v-6q0 -4 3 -13t-0.5 -13z" />
    <glyph glyph-name="hyphen" unicode="-" horiz-adv-x="399" 
d="M14 309q-19 19 -2 51q20 40 68 29q34 -8 57.5 -3.5t30.5 0.5t12.5 -3t13.5 3q24 6 52 6q19 0 37.5 1.5t34.5 2.5q39 2 53 -4q20 -12 22 -30q4 -34 -18 -47t-36.5 -11.5t-26 7.5t-20 13t-14 7t-9.5 -3t-9 -7q-13 -9 -32 -9t-25 -1.5t-11 -4.5q-11 -5 -28 -5h-31
q-18 0 -46 1.5t-44.5 -0.5t-28.5 7z" />
    <glyph glyph-name="period" unicode="." horiz-adv-x="169" 
d="M5.5 33q1.5 8 16 21t37 25t60.5 7q18 -2 29 -21q8 -16 5.5 -28.5t-9.5 -21t-16 -15.5q-18 -13 -32 -15t-19.5 -8.5t-18 -3.5t-16 12.5t-11.5 12.5t-14 8t-9.5 12t-2 15z" />
    <glyph glyph-name="slash" unicode="/" horiz-adv-x="345" 
d="M288 745q18 13 31 7t19.5 -33.5t-9.5 -60.5t-24 -42.5t-15 -17.5q-15 -17 -23.5 -47t-13.5 -40l-9 -18q-12 -20 -22 -64q-11 -46 -25.5 -74.5t-23 -45.5t-16 -41.5t-15 -43.5t-13.5 -35q-15 -40 -15 -60q0 -33 -17 -66q-32 -62 -54 -69q-7 -2 -21.5 0.5t-21.5 21.5
q-15 46 15 99q17 28 23 50t11.5 34.5t10 27.5t8.5 31q10 38 19 56q6 12 16 30t20 40q23 51 31 88t14 46.5t13 6.5q11 56 40 91q12 15 15 32q15 71 52 97z" />
    <glyph glyph-name="zero" unicode="0" horiz-adv-x="468" 
d="M196 738q18 2 40 10t40 11t39 -2.5t32 -13.5t19 -16.5t13.5 -16.5t16.5 -14q24 -14 22 -42q0 -6 3.5 -14t7.5 -18q10 -24 8 -46.5t2.5 -44.5t8.5 -45q10 -58 -2.5 -99t-20 -73t-6 -54.5t-2 -44.5t-10.5 -45q-17 -53 -43 -76q-9 -7 -19.5 -25.5t-24.5 -38.5
q-37 -49 -88.5 -49t-86 37t-48.5 99q-5 21 -15 37q-18 29 -28 52q-17 43 -6 114q2 10 2 20q0 21 -18 53q-33 61 -3 135q6 16 7.5 29t3.5 25q3 29 13.5 42t11 20t7.5 16t15.5 19t19 25t24.5 20.5t30.5 8.5t34.5 5zM246.5 512q-0.5 -3 -4 -6t-7.5 -3h-7q-10 0 -15 -6
q-11 -16 -22 -34.5t-15 -44.5q-6 -46 4 -67q9 -19 7 -43t-1.5 -36t2 -21t4.5 -16.5t6 -16t7.5 -20t10.5 -22.5q17 -26 40 -24q22 2 24 59q0 30 4 48l8 30q9 40 2.5 65.5t-5 36t2.5 21.5q3 32 -5.5 48t-11 25.5t-4.5 18.5q-4 18 -13 20q-8 0 -9.5 -4.5t-2 -7.5z" />
    <glyph glyph-name="one" unicode="1" horiz-adv-x="318" 
d="M262 433q8 -8 8 -43t-0.5 -51t-16.5 -32q-4 -36 -1 -65q0 -12 -1 -22.5t-1 -19.5q2 -17 18 -27q31 -17 15 -96q-4 -23 -4 -40.5t-1.5 -24t-9.5 -15t-16 -10t-17 1.5l-21 7q-12 4 -30 5q-26 1 -41.5 -8t-23.5 -12.5t-18.5 -2.5t-18.5 7t-14 13q-11 15 -11 23t3.5 22
t-2.5 46.5t-0.5 47.5t36.5 27q19 41 9 107q-4 32 -5 74t-2.5 77.5t-2 51.5t-4.5 27q-8 21 -36 26q-13 2 -21.5 3t-15.5 11q-12 17 2 43q7 12 15.5 25.5t15 28t16.5 32t23 32.5q32 35 68 35q35 0 48 4q23 7 29 7q26 0 44 -18q9 -9 7 -31.5t-4.5 -42.5t-6 -42t-4.5 -39.5
t-2 -30.5t-1.5 -26t-2.5 -23q12 -4 -1 -62z" />
    <glyph glyph-name="two" unicode="2" horiz-adv-x="446" 
d="M346.5 271.5q-9.5 -19.5 -21 -34t-25.5 -28t-30 -27.5q-37 -35 -55 -67q5 -11 25 -12q7 -1 12 1q10 7 25.5 8t22.5 1.5t10 0.5q9 -2 20 -2q11 6 26.5 7.5t25 -2t13.5 0t12 0.5t11.5 -16t4.5 -28q2 -37 -5 -47q-11 -5 -12 -12t-9 -11.5t-14 -4t-11 2.5q-15 6 -24 4.5
t-20 -6t-21.5 -3t-22 3.5t-24.5 3.5t-26.5 1.5t-33.5 -5.5t-38 -13t-39.5 -6.5t-32.5 6.5t-18.5 13t-12.5 17t-15 21.5t-16.5 30t12 37.5t29 36t17.5 30t12.5 24.5t15 23.5t20.5 23t22 20.5q22 20 34 45q7 15 17.5 27t20.5 26q22 31 24 65.5t-2 49t-12 19.5
q-16 11 -34.5 -19.5t-40.5 -41.5t-35 3t-22 23t-29 10.5t-40.5 8.5t-24.5 28q-7 40 10 83.5t48 79.5t69.5 59.5t71.5 23.5t57 -9t40 -35q7 1 25 -10t29 -33q7 -2 15 -12q11 -15 11 -23q5 -3 12 -16q12 -21 12 -33q7 -3 12 -47q2 -16 2 -39t-5 -51q4 -11 4 -34.5t-8 -49.5
q-17 -42 -48 -62q-13 -9 -22.5 -28.5z" />
    <glyph glyph-name="three" unicode="3" horiz-adv-x="438" 
d="M336 370q66 -38 93 -99q9 -20 9 -40q0 -25 -17.5 -78t-23.5 -81.5t-19.5 -38.5t-24.5 -12t-21 -2h-20q-22 0 -37 -11l-25 -17q-19 -14 -44.5 -14t-33 3.5t-12 7.5t-10 8t-21.5 5.5t-31 13t-26 27.5q-25 35 -21 66q2 26 28 34q32 11 62 -24q24 -27 48 -27q15 0 35 15
t32 28.5t17 39.5q4 12 7 25.5t-13 29.5q-17 16 -27 16t-25 -8t-27 -10t-25 1q-29 8 -47 45q-19 34 1 61q13 16 31.5 21t33.5 17t26 28q29 40 13 69q-10 19 -21.5 19t-22.5 -4t-16 -8.5t-9 -9.5q-10 -12 -21.5 -13.5t-17 2t-9.5 9.5q-12 14 -33 14.5t-39.5 7.5t-24 33
t2.5 56.5t25 60.5q40 70 95 93q34 37 91 25q42 20 81 -16q33 -28 38 -65q26 -16 42 -41.5t22 -63.5t2.5 -61t-10.5 -41q-9 -23 -23 -44t-22.5 -29.5t-14.5 -22.5z" />
    <glyph glyph-name="four" unicode="4" horiz-adv-x="432" 
d="M382 720l1 -38q0 -19 -7.5 -40t-3 -45t8.5 -41q7 -31 1 -64q-7 -39 -13 -93q-11 -84 1 -99q4 -5 17 -7q24 -5 33.5 -17.5t11 -30.5t-1.5 -35q-7 -39 -21 -49q-6 -3 -18 -0.5t-18 -3t-9.5 -18t-5.5 -28.5q-2 -24 1 -55q3 -45 -10 -66q-7 -10 -34 -11q-51 -3 -64 19
q-4 6 -3.5 14.5l1 17l1 17t-3.5 15.5q-3 7 -7 9.5t-7 5.5q-7 7 -7 29q0 33 -5 44q-11 19 -45 19q-29 0 -43 -8q-28 -16 -43.5 -18t-30 -2t-25.5 5q-25 11 -21.5 45t1 59.5t-6 45.5t-6 34.5t2.5 22.5t7 14.5t4 11.5q4 14 13 22q29 36 47 68q-7 15 -6 30.5t23 38.5
q35 38 55 96q23 70 40 104q12 21 35 10.5t54 -12t52.5 8.5t38.5 5t16 -30zM225 295q-1 17 2 28.5t2 23t0 23t1 23.5q2 29 -10 49q-2 -5 -3.5 -9.5t-5 -17t-15.5 -33t-17 -37t-9.5 -23t-7.5 -12.5q-8 -11 -3.5 -19.5t25.5 -4t41 8.5z" />
    <glyph glyph-name="five" unicode="5" horiz-adv-x="438" 
d="M30.5 637.5q3.5 23.5 3 52t17.5 40t34.5 10.5t37.5 -4q60 -10 101 -2.5t68 13.5t48 8q44 4 58 -13t16 -42t-0.5 -52t-6 -52t0.5 -50q6 -47 0 -79q-4 -14 -11.5 -26.5t-22 -11t-21.5 6t-14 9.5q-17 13 -36 7q-42 -12 -61 13q-19 19 -48 8q-7 -3 -11 -7q-14 -24 -13 -90
q1 -16 5.5 -21.5t13.5 -6.5t21 0q38 5 52 4.5t34.5 -5t41.5 -12.5t35.5 -21t10.5 -26t-1 -20.5t9 -15.5q18 -24 25.5 -45t4.5 -50t-18 -47t-23.5 -32t-14.5 -26q-17 -29 -30 -42.5t-36.5 -20.5t-48.5 -7q-40 -1 -65.5 6t-32 5.5t-13.5 -1.5q-17 0 -26 23q-10 22 -30 27
l-18 4q-24 4 -30 30q-8 35 10 66q10 15 26 22t28 7t20 -5q15 -8 26 -31q22 -5 33 -20q8 -11 24 -12q30 -3 50 15q24 22 27 27q5 8 5 19t-5 23.5t-16 24.5q-43 53 -116 21q-12 -5 -21 -9t-17 -2.5t-16.5 9.5t-24 19t-23.5 16t-11.5 16.5t4.5 24t7.5 22t-0.5 22.5v28
q-2 39 -12.5 53.5t-12.5 26.5t1.5 28.5t7 28.5t6.5 24.5t3 25t-6 30.5t-2.5 41.5z" />
    <glyph glyph-name="six" unicode="6" horiz-adv-x="424" 
d="M159 337q1 -20 5 -24.5t11.5 0.5t18.5 13q31 22 47 26q18 4 25 10q12 9 28.5 9t32.5 -6.5t30 -32.5q9 -16 19 -25q17 -15 23 -35q4 -13 8 -24.5t5 -23.5q7 -52 -29 -132q-13 -30 -25 -40.5t-17.5 -21t-12.5 -20.5q-15 -25 -28.5 -27t-19.5 -1.5t-12 2.5q-14 3 -32 1
q-57 -7 -76 19q-8 13 -13.5 17t-18.5 7q-38 9 -66 106q-10 38 -15 43q-3 3 -9 7.5t-11 13.5q-18 30 -5 80q6 20 4.5 31.5t-4.5 28.5q-4 17 -4 30.5t2 25.5q3 26 -0.5 36t-6 18.5t-3.5 17.5q-1 19 14.5 46t20 47t8.5 37.5t12 36t21 37.5q30 46 65 60q19 8 32.5 14.5t24.5 9.5
q22 8 50 -3q26 -2 34 -11t9 -14q7 9 16.5 0t13.5 -15.5t7 -8.5l6 -4q8 -4 13 -17q3 -9 16 -26q20 -29 24 -44.5t5 -24.5q2 -18 -6 -32q12 -13 12 -25.5t-2 -20.5q-8 -30 -25 -30q-20 0 -36.5 -1.5t-26 -13.5t-22 -16.5t-24.5 -4.5t-22 6t-11 18q-2 26 -19 28t-37 -27
q-28 -44 -24 -130zM208 176q7 -21 29 -29q17 -8 34 15q15 15 19 30q5 27 -15 45q-8 8 -16.5 16t-20.5 4q-52 -18 -30 -81z" />
    <glyph glyph-name="seven" unicode="7" horiz-adv-x="407" 
d="M28 609q-24 7 -16 32q4 11 10 25q14 34 12 62q8 5 12.5 10.5t15 5.5t16.5 -2.5t13 -5.5q19 -8 41 -8q58 0 104 9.5t65 10t36 -3.5q39 -7 50 -32q7 -14 3.5 -29.5t-2 -31.5t2.5 -36t1 -43q-2 -52 -6.5 -69.5t-14.5 -38t-21 -44.5q-30 -67 -34 -93.5t-4.5 -49.5t-7.5 -36.5
t-20.5 -29.5t-16 -38t-8.5 -38.5t-7.5 -32.5t-2 -30.5t-7 -27t-16.5 -17.5t-12.5 -9.5t-5 -10t-6.5 -11.5q-23 -35 -82 7q-14 9 -18 21t-6 20q-6 19 -6 27.5t5.5 24.5t4.5 33t5.5 33.5t8.5 33.5q5 41 19.5 64.5t25.5 45.5t23 47q46 100 39 119q-3 8 -18.5 4.5t-27.5 -3.5
h-23q-24 0 -27.5 -2t-7.5 -8t-11 -12q-16 -16 -37 -14q-30 2 -36 30q-24 14 -6 70q-5 14 -3 34t4 38z" />
    <glyph glyph-name="eight" unicode="8" horiz-adv-x="439" 
d="M418 540q11 -21 2 -52q3 -7 3 -17.5t-3 -20.5q-6 -26 -16 -29.5t-15 -16t-14 -29t-14.5 -21.5t-5.5 -9.5t8 -7t17 -13.5t10 -17t1 -12q0 -15 5.5 -23.5t6.5 -21t0 -25.5q-3 -37 3 -61.5t-1 -44t-33 -37.5q-16 -12 -21 -20q-7 -14 -21 -24q-9 -6 -21 -17t-25 -21
q-33 -26 -58.5 -26t-47 2.5t-31.5 16.5q-5 6 -11 10l-12 8q-46 31 -46 79q0 6 -5 16t-12 9q-21 -3 -27 19q-5 15 -3 23.5t6.5 21.5t6.5 33q6 43 25 69.5t22 51t-14 36.5q-12 9 -13 17l-3 14q-1 5 -8.5 11.5t-11 14.5t-5.5 15.5t-3.5 14.5t-7 17t-5 20.5t-3.5 29.5
q-5 19 0 38.5t11 41.5q5 22 3.5 30.5t-0.5 18.5q2 19 32 53q16 14 26.5 15t17 0.5t16.5 2t22.5 8t26.5 -2.5q30 7 47 20q4 2 17 4.5t20 2t14.5 -0.5t17.5 -5q36 -19 43.5 -29.5t14 -15.5t12.5 -10q15 -13 17 -25q3 0 10 -8t13 -19q16 -29 12 -38q4 -7 7 -26.5t1 -37.5z
M251 448q3 13 7 31t-3 30t-15 12t-14.5 -4.5t-13 -7t-10.5 -3t-7 -0.5q-19 -4 -25 -30q-5 -25 2.5 -39.5t13.5 -22.5q13 -16 25 -16t19.5 7t12.5 18.5t8 24.5zM254 207.5q0 17.5 -5.5 24.5t-13.5 13t-17 14q-19 3 -19 -22q0 -8 -5 -13q-10 -10 -9 -20t-4.5 -22.5t0 -23.5
t11.5 -13.5t14 -4.5q10 15 25 17q3 12 13 22.5t10 28z" />
    <glyph glyph-name="nine" unicode="9" horiz-adv-x="446" 
d="M416 570l-5 -51q0 -9 5 -18l9 -13q11 -16 5.5 -70t-14.5 -94q-19 -82 -46.5 -128.5t-41.5 -81.5t-19 -44.5t-19 -20.5t-21.5 -11t-12 1.5t-9.5 0.5q-13 -3 -23.5 -19t-21.5 -29.5t-26 -13.5t-20 3t-10 7q-12 9 -27 9.5t-22 9t-8 19.5q-2 28 21.5 42t39 24.5t15 29t9 30.5
t22.5 27t25 34.5t22 39.5q25 50 12 59q-7 5 -17 0t-23 -14q-53 -34 -92 -15q-25 12 -39 50q-7 16 -14.5 35t-18.5 24q-21 13 -35 51q-16 45 6 99q16 36 17.5 68t18.5 60t33.5 42t37 22.5t43.5 13.5q81 18 116 -4q11 -8 18 -16q25 0 38.5 -6.5t26.5 -25t23 -40.5
q22 -50 22 -86zM190.5 505q-2.5 -11 0.5 -23.5t7.5 -26t20.5 -21.5q17 -7 24 -3t18 9q11 7 17 26q10 37 -12 66q-13 16 -29 16t-25 -6.5t-14 -16t-7.5 -20.5z" />
    <glyph glyph-name="colon" unicode=":" horiz-adv-x="169" 
d="M68.5 349q11.5 -4 17.5 -1t12.5 4t13.5 0q16 -2 20 -9.5t9.5 -16.5t2.5 -20t-4 -18t-6.5 -13.5t-13 -13.5t-16.5 -14q-22 -16 -40.5 -15t-24.5 9.5t-14 14.5q-18 13 -10 41.5t12 36.5t17 13.5t24.5 1.5zM5.5 33q1.5 8 16 21t37 25t60.5 7q18 -2 29 -21q8 -16 5.5 -28.5
t-9.5 -21t-16 -15.5q-18 -13 -32 -15t-19.5 -8.5t-18 -3.5t-16 12.5t-11.5 12.5t-14 8t-9.5 12t-2 15z" />
    <glyph glyph-name="semicolon" unicode=";" horiz-adv-x="155" 
d="M137.5 -4q-3.5 -4 -3 -15.5t-3.5 -17.5t-6.5 -14t-5.5 -10.5t-5.5 -11t-9 -9t-7.5 -8.5q-2 -15 -27 -15q-26 0 -29 17q-1 6 8 18.5t15 15.5t14.5 7.5t9 13t-5.5 20.5q-8 -5 -16 -3t-18 0t-14.5 4t-15.5 10q-12 5 -10 29q4 48 22 57q10 4 15 7.5t8 5.5t5.5 2t9.5 -2t15 2
t10.5 0.5t7 -4t9.5 -1.5q12 -5 15 -17q4 -10 6 -12q3 -3 4 -16q1 -9 0.5 -13.5t-0.5 -7.5v-6q0 -4 3 -13t-0.5 -13zM60.5 351.5q11.5 -3.5 18 -0.5t13 3.5t13.5 -0.5q16 -1 20.5 -9t10.5 -17t2.5 -20.5t-4.5 -18.5t-6.5 -14t-13 -14t-17.5 -14q-24 -17 -42 -15.5t-24.5 10
t-15.5 14.5q-16 14 -6 52q5 21 9 28.5t17.5 13t25 2z" />
    <glyph glyph-name="less" unicode="&#x3c;" horiz-adv-x="439" 
d="M16.5 298.5q-10.5 11.5 -11.5 24t12 33.5t35.5 35t31.5 18t15.5 5.5t13.5 2.5t20.5 6.5t26 14t23 16.5t20.5 16t21 13q98 45 124 64t37.5 21t20.5 -4q20 -12 12 -54q-7 -37 -40 -62q-20 -16 -36.5 -19.5t-31.5 -8t-32 -22.5q-38 -37 -78 -39q-36 0 -64 -17
q-18 -10 -4 -28q12 -16 30.5 -24t33.5 -8q25 0 88 -33q11 -7 24 -9l21 -3q7 -1 16 -6q16 4 30 -4q25 -14 25 -24q22 -19 23 -36t-1.5 -23.5t-5.5 -8t-9.5 -6t-14.5 -8.5t-20.5 0t-28.5 9.5t-32.5 18t-21.5 20t-9 10t-22 8t-42 13.5q-69 24 -92 36t-43.5 21.5t-37 19.5
t-27 21.5z" />
    <glyph glyph-name="equal" unicode="=" horiz-adv-x="413" 
d="M350 388l-44 2q-10 0 -25 -6q-28 -10 -145 -5q-35 2 -56 -1q-75 -10 -75 35q0 15 10 28.5t39 15t54 -0.5t41.5 1t23 3.5t11.5 -0.5q16 -1 29 1t38 -0.5t41 -1t30.5 4t29.5 2.5q34 -2 41 -22q10 -23 1 -36q-15 -20 -44 -20zM320 214l-117 5q-87 0 -131.5 -6.5t-53 0
t-11 20.5t15.5 33t60.5 23.5t69 3.5t42 -1t29 -1t28.5 -1q43 -2 71 7q50 15 70 2q13 -11 14 -29q2 -35 -20 -46q-24 -10 -67 -10z" />
    <glyph glyph-name="greater" unicode="&#x3e;" horiz-adv-x="439" 
d="M421.5 356q13.5 -21 12 -33.5t-11.5 -24t-26.5 -21.5t-36.5 -19.5t-40.5 -20t-46.5 -20t-49.5 -17.5t-41.5 -13.5t-21.5 -8t-8.5 -10t-23 -20.5q-19 -13 -60 -27q-13 -4 -21 0t-14 8.5t-9.5 6t-6 8t-1.5 23.5t23 36q0 10 13 17q26 15 41 11q9 5 16.5 6t14.5 2q20 3 35 11
q55 32 90 32q18 0 35 12q45 32 19 48q-27 17 -54 18q-49 0 -87 38q-18 18 -32.5 22.5t-24 6.5t-21 6.5t-24.5 14.5q-31 22 -38 62q-9 41 12 54q18 11 42 -6q26 -21 76.5 -45.5t62 -29.5t21 -13t20.5 -16q43 -33 70 -37q24 -4 53 -22t42.5 -39z" />
    <glyph glyph-name="question" unicode="?" horiz-adv-x="394" 
d="M242 730q7 2 24.5 1.5t28 -10.5t23.5 -14t17.5 -13.5t7.5 -13t7 -6.5q8 -9 11 -22t6 -19t5 -11q5 -13 4 -25.5t2 -20t0.5 -21t-0.5 -26.5t-6 -28.5t-18.5 -30t-12.5 -34.5q-4 -34 -36 -48q-16 -8 -24 -20.5t-13 -29t-8 -34t-6 -35.5q-5 -41 -3.5 -53t-1.5 -24t-9 -23
q-15 -27 -30 -25q-13 0 -22 -2q-14 -3 -22 3q-17 13 -22 23q-10 20 -5.5 45.5t2 42t-6.5 32.5q-18 58 9 100q8 12 16 15q8 5 13 14t12.5 9t19 10t22.5 26q27 40 17 65q-9 22 -25 17q-6 -1 -11 -1.5t-8 8.5q-8 18 -29 19q-22 2 -33 -23q-6 -13 -9 -21t-6 -14q-5 -9 -18.5 -11
t-19.5 -0.5t-9.5 3.5t-6 4t-7 2t-12.5 3.5t-16 11.5q-20 20 -26 48t-11 39.5t3 20.5t15 19q17 29 24 32t12 5q12 5 20.5 17t13 16.5t9.5 6.5t11 2t14.5 0.5t13.5 2.5t9 4q10 3 20.5 0t13.5 -5.5t5 -4.5q6 -6 19 -7q10 -1 16.5 1l13 4t13.5 4zM173.5 81q10.5 -4 19 0.5
t22.5 3t18.5 -10t10.5 -16.5t3 -18.5t-4 -17.5t-6.5 -13t-13 -13t-16.5 -14q-22 -16 -39.5 -14.5t-23.5 10t-14 14.5q-14 10 -5 48q5 20 9 27t16.5 12.5t23 1.5z" />
    <glyph glyph-name="at" unicode="@" horiz-adv-x="703" 
d="M690 438l-1 -24q0 -6 3 -18q5 -19 -11 -42q0 -37 -11 -51q-17 -22 -21.5 -37t-9 -20t-9.5 -10q-18 -14 -23 -23t-12.5 -14t-19.5 -15q-37 -30 -51 -16q-12 15 -21 19q-17 11 -15 54q-23 -8 -34.5 -19t-26.5 -31.5t-36 -28t-46 -13t-41 -0.5q-21 6 -37 47q-7 16 -16 20.5
t-21 7.5q-27 7 -50 64q-5 14 -9 24q-16 33 24 146q11 28 23 43.5t23 27t17.5 20t13.5 15.5q17 17 38.5 19t31.5 3.5t16 1.5q10 0 16 -8t10.5 -10t8.5 -3t9 -2q8 -2 13.5 -11.5t8.5 -13.5q6 -10 14 -6.5t10 10t4 14.5q10 39 42 31q16 -4 20.5 -17t7.5 -16t6 -4q12 -5 5 -26
t-14 -38q-13 -114 -9 -140.5t11.5 -37t19 -12t18.5 3.5t15 21l14 28q20 44 14 64t-4.5 37t3.5 34q5 43 -8 64.5t-18 32t-8 16.5q-5 11 -12 14q-5 2 -9.5 9.5t-11.5 15.5q-19 23 -43 26.5t-39.5 4.5t-29.5 2q-29 2 -46.5 10.5t-34.5 9t-33 -2.5q-35 -6 -49.5 -17t-21 -16
t-13.5 -11q-7 -5 -36 -22q-20 -12 -29.5 -27t-15 -25.5t-12.5 -20.5t-9 -25t-12 -29t-13 -30t-10.5 -35.5t-10 -37t-3 -37t0 -39t0.5 -37.5q6 -11 11 -31t19 -35q8 -7 19 -16.5t28 -24.5t26.5 -23t20.5 -18q16 -15 46 -41.5t47.5 -32.5t36 -7.5t39 -0.5t38.5 0t27.5 2t28 11
t29 8.5t20.5 3.5q18 7 23.5 -1t-4 -16.5t-30.5 -19t-34.5 -20.5t-28.5 -12.5t-21.5 -7t-14.5 -9.5q-19 -11 -44.5 -11t-38.5 4t-22 9t-17 11t-23.5 10t-26 5.5t-18.5 3.5q-45 8 -68 32q-10 12 -18 23t-17.5 21t-27 15t-27 17t-14.5 27t-8.5 31.5t-12 38.5t-9 51.5t-2.5 53
t-1 34t3 20.5t4.5 22t4.5 30q5 33 11 44q12 24 18 44q9 24 59 93q58 71 100 84q13 4 22.5 10t19.5 12q24 14 50 19q17 3 30.5 7t24.5 7q28 7 46.5 4.5t29 -3t18.5 -1.5q18 -1 31 -6.5t25.5 -10t26.5 -11.5q47 -21 82 -74q7 -10 11 -18q11 -20 20 -29.5t12 -16t5 -12.5l5 -14
q2 -7 10.5 -25.5t9.5 -37t3.5 -37.5t2.5 -26zM416 326.5q7 8.5 7.5 20t3 16.5t5.5 12q7 16 7 36t-4.5 30.5t-10.5 20t-12.5 19.5t-10.5 24q-5 14 -17.5 14t-19.5 -2t-10.5 -5t-5.5 -6q-8 -14 -18 -23q-17 -15 -21.5 -26t-6.5 -20.5t-7.5 -29t-11 -44.5t1 -39t14.5 -22
t17 -15q19 -15 32.5 -15t23 6.5t19.5 13.5q9 9 13.5 17.5t11.5 17z" />
    <glyph glyph-name="A" unicode="A" horiz-adv-x="456" 
d="M407 -6q-6 -11 -16 -16.5t-20 2t-14.5 6.5t-8.5 -2q-9 -1 -18 13t-10 22.5t0 16.5q4 18 -5.5 32t-13 21t-3.5 20.5t-1.5 17t-2.5 5.5q-5 9 -3.5 28t-5.5 26.5t-18.5 11.5t-18 -2.5t-12 -15.5t-13.5 -15.5t-20.5 -3.5t-27.5 -6t-18 -21.5t-7 -25.5t-2.5 -24t0 -21.5
t-5.5 -20.5q-8 -25 -19 -27q-9 -1 -19 0q-11 -20 -26 -24q-41 -9 -49 13q-5 13 -6 34q-2 42 -9 57t-3.5 36t2.5 42t0 32t2.5 20t3.5 17.5t2.5 20t3.5 26.5t6 31q8 40 6 60t3.5 34t12.5 25q18 29 17 47.5t-1.5 29t0.5 21.5q5 54 51 169q3 11 19 17t32.5 1.5t27 -4t18 8
t16 14.5t20.5 11.5t27 4.5t32 -9q28 -15 37 -28t12 -21t10 -22t6.5 -25t3.5 -26t0 -35t0 -39.5t4 -26.5t1 -13q1 -17 7 -30q6 -14 3.5 -34.5t-1 -34t10.5 -27.5q17 -27 12 -60q-1 -9 0.5 -19.5t1.5 -19t-2 -21.5q-3 -19 1 -46q6 -50 6 -67t1 -28.5t2 -24.5q3 -34 0.5 -68.5
t-21.5 -39.5zM252.5 444q-3.5 28 -3.5 41.5t-2 23.5q-3 16 -17 4q-16 16 -26 1q-7 -11 -7 -36q-2 -17 -7.5 -31t-7.5 -31q-3 -20 -10.5 -49t2 -43t23.5 -10t21 4.5t12 1.5q12 1 18.5 9.5t7 15t-0.5 13.5q-3 20 -1 39t-1.5 47z" />
    <glyph glyph-name="B" unicode="B" horiz-adv-x="479" 
d="M63 132l-6 37q0 10 -4 13.5t-13 11.5t-11 25.5t-1 40.5q2 29 11 98q-7 86 -9 111q-11 132 6 163q4 8 8 12q8 8 7 26q-4 37 39 51q13 4 25 10t25 11q29 10 49.5 -0.5t42.5 -8t45 6t44.5 4.5t37 -10t33 -24t31.5 -29q31 -36 26 -70q16 -38 7 -72q-3 -9 -1 -18q4 -18 0 -32
t-1.5 -29.5t-4.5 -31.5t-9 -30t-10 -23.5t-14.5 -11t-12 -6t-8 -9.5t-7.5 -11q-11 -15 -31 -25q11 -19 26 -29.5t25.5 -23t11 -23.5t4.5 -22t3 -17.5t-2.5 -14t-3.5 -16t-1.5 -19t-2 -18t-7 -15t-10.5 -16.5t-11 -22q-6 -16 -19.5 -28.5t-21 -20t-14.5 -20.5
q-13 -24 -36 -31q-21 -6 -32 11q-6 11 -21.5 4t-24.5 -11.5t-21.5 -3t-25 4t-25.5 -2t-24 -2.5t-20 7q-20 10 -26 28t-8 37.5t-6 36t-4 23.5zM205 404q0 -53 19 -53q10 0 18 14.5t10 27.5q1 13 1.5 26.5t13 34t8 38t-15.5 21t-19.5 11t-19 12.5t-18 -7.5t0 -28.5t5 -43
t-2.5 -53zM233 260q-23 7 -25 -23q-2 -21 -5 -43t-0.5 -33t5.5 -24q6 -5 12 -9t11 -8q6 12 11.5 18t9.5 13q10 16 11.5 39.5t-3.5 37.5q-8 26 -27 32z" />
    <glyph glyph-name="C" unicode="C" horiz-adv-x="441" 
d="M346 706q29 -2 52 -30q4 -6 8 -11.5t6 -12.5q6 -15 4 -43t3 -45.5t10 -33.5q9 -28 -11 -75q-15 -43 -37 -51l-18 -6q-26 -9 -44.5 -6.5t-25.5 10.5q-20 26 -10 60q2 7 0 22t-17 19q-8 2 -10.5 7t-4 8.5t-3 5t-9.5 -4.5t-9 -6.5t-6.5 1.5t-10.5 -1t-10 -11
q-18 -31 -7 -101q4 -21 8 -39q8 -45 7.5 -60t-6 -31.5t-9.5 -32.5q-12 -41 3 -70q18 -36 23 -42q9 -9 22 -7.5t20 13t13 25t13 25.5t16.5 14t24.5 0.5t20.5 -1.5t13.5 -6.5t8.5 -29t1.5 -36t-7 -24t-10.5 -19t-3.5 -16.5q-1 -21 -7.5 -31t-12 -16.5t-29 -6.5t-42.5 -22
t-36 -19.5t-24 20.5q-7 16 -31 17q-7 1 -13 3.5t-14 4t-16 6.5q-20 11 -33 35q-8 15 -15.5 25t-12.5 19q-13 20 -10 38q6 48 -13 63q-11 7 -11 11t-4 17q-6 18 0.5 42t4.5 39.5t-5 32.5q-6 44 -1 58t2.5 40t-2.5 42.5t-2.5 43.5t-0.5 58q7 78 53 107q69 41 88 39
q6 0 14.5 -1.5t16.5 0.5t14 6t12 9q24 22 43 5q18 -21 28 -28q17 -13 51 -15z" />
    <glyph glyph-name="D" unicode="D" horiz-adv-x="465" 
d="M439 608.5q3 -19.5 13 -60.5t-4 -88q-8 -27 -10 -44q-6 -32 -13.5 -54.5t-14.5 -55t-18 -56t-17.5 -34.5t-11.5 -20q-12 -23 -14.5 -35t-7 -26.5t-11.5 -28.5q-19 -32 -46 -24q-34 -27 -44 -42.5t-18 -22.5t-15.5 -10t-14.5 -5t-14 -7t-19.5 -8.5t-25.5 -0.5
q-32 6 -34 52q-26 10 -33 19q-16 18 -16 46.5t3.5 46t6.5 33.5q9 39 3 61.5t-3.5 42t1 43t0 41.5t3 34.5t1.5 30.5t-6 26.5t-9.5 25.5t-5.5 24q-3 27 -9.5 39t-5.5 28.5t-2.5 33t-3 26t-2 20t1.5 12.5q6 3 11 25t12 27.5t15 10t18 6.5q23 3 42.5 -8t29 -10t19.5 6
q32 13 62 13t42 -3.5t19 -7t13.5 -7t19 -3.5t18.5 -6t11.5 -14t12.5 -16t18.5 -10.5t15 -5t5.5 -6t4.5 -8.5t13.5 -15.5t14 -30zM206 448.5q2 -24.5 7 -55t4 -50.5t-3.5 -39l-5 -38t-2.5 -37.5t5 -26.5t11 -7.5t12 8t8.5 25t13 34t16.5 33.5t7.5 25t2.5 14.5t1.5 14
t5.5 23.5t1.5 28.5t-5.5 28.5t-6.5 29.5t-20.5 18.5q-7 2 -12.5 6t-10.5 7q-11 5 -21 -6t-8 -35.5z" />
    <glyph glyph-name="E" unicode="E" horiz-adv-x="430" 
d="M27 595l2 57q0 14 -2.5 28t7 29.5t28.5 27.5t43 12t38 -8t26 -13t27 -8q32 -5 62 9q33 16 53 -2q21 -1 44 4q38 8 52 1q31 -18 10 -72q-3 -8 -3 -14v-12q0 -18 -3 -27t-3 -15v-14q2 -16 -5 -31q-4 -9 -4 -14.5v-10.5q0 -13 -14 -25q-23 -24 -38 -24q-3 0 -6 2t-9 4
q-24 8 -50.5 10t-38.5 -1q-30 -6 -37 -29q-8 -24 4 -37q5 -6 11 -8t11.5 -0.5t15 -0.5t19.5 -5q27 -6 36.5 -1.5t13 3.5t5.5 -3q7 -7 13 -7q16 1 22 -13.5t-2 -35.5q0 -3 -3 -15q-7 -24 -6.5 -33t-3.5 -18.5t-11 -16.5q-17 -15 -37 -9q-9 4 -16 11q-51 15 -69 -7
q-10 -12 -11 -21t-1 -32v-37q13 -9 24 -20.5t27 -12.5t28.5 2.5t23.5 7.5q24 10 44 3.5t25 -17.5t2 -29t-2.5 -26.5t0.5 -15.5q0 -17 -13 -33q-14 -21 -26 -25.5t-31 -2t-31 -2t-21.5 -11.5t-18.5 -13q-15 -10 -34 0l-14 8q-18 9 -44 7.5t-46 15t-20.5 40.5t2.5 34.5t6 16.5
q4 13 -4 20q-24 19 -17 50q3 16 6 25t1 19.5t-1.5 19t-0.5 16.5q-2 16 -14 18q-15 2 -20 32q-6 29 4.5 58t8.5 45.5t-3 30.5l1 39q0 29 -5 39t-3 29.5t-1 30t-3 23.5z" />
    <glyph glyph-name="F" unicode="F" horiz-adv-x="434" 
d="M164.5 -8.5q-6.5 -5.5 -18.5 -1t-16.5 12.5t-7 17.5t-5 18.5t-9.5 15q-15 11 -19 30q-6 36 -6.5 86t-1.5 69t-3.5 28t-6 11t-9.5 5q-11 5 -16 35.5t-3 71.5q4 77 -9 132q-12 52 -9 98.5t9 65.5q12 44 43.5 38t50 -5t30.5 5t22 8t26.5 3.5t30 -5t27.5 -8.5q37 -12 58 -11
t33 2.5t21 1.5q19 0 31.5 -10t14.5 -22t1 -25q-2 -25 -9 -41.5t-7.5 -27.5t0.5 -21.5t2 -20.5t-1.5 -21.5t-12.5 -23t-23 -20.5q-29 -18 -47 -13t-26.5 8.5t-16.5 5.5q-17 5 -33 1t-22 -15t-4.5 -23t11.5 -21.5t27.5 -10.5t28.5 0t18 1q15 0 27 -13q18 -21 -3 -63
q-5 -11 -8.5 -29t-8.5 -35.5t-12.5 -29t-17.5 -9.5t-13.5 6t-7.5 7q-8 8 -18 5q-16 -4 -18.5 -28.5t-1.5 -48.5t2.5 -41t-0.5 -34q-3 -39 -30 -59q-9 -6 -13.5 -16.5t-9 -20t-11 -15z" />
    <glyph glyph-name="G" unicode="G" horiz-adv-x="471" 
d="M268 241q-28 0 -26 26q2 21 -1 34q-5 22 -2 32q8 30 65 14q10 -3 16 -3t12 1q18 3 32.5 0.5t25.5 -1.5t20.5 3t17.5 4t15 2q10 0 14.5 -16.5t3.5 -36.5q-3 -51 -24 -59q-15 -6 -28.5 -19t-10 -38.5t4 -40t0 -25t-1 -18t1 -19t-1 -30.5t-9.5 -34q-17 -36 -43 -27
q-19 6 -37 32q-6 9 -11.5 15.5t-14.5 4t-15.5 -10t-13.5 -15.5q-42 -52 -107 -15q-33 18 -46 45q-5 12 -10.5 27t-12.5 29q-16 33 -31 44q-14 11 -16 108q-1 21 1 36.5t2 39.5v46q0 22 -1 42q0 32 5 56q-32 21 -25 81q5 38 14.5 55.5t15 35t11.5 37t17 25.5t14 10l6 8
q19 28 82 38q28 5 55 -5t45 -12t34 -3q69 -4 90 -29q15 -17 19 -34.5t10.5 -28t4.5 -22t-0.5 -19t-1.5 -15.5l-6 -16q-6 -21 1.5 -30t13.5 -16.5t9 -15.5q9 -20 2 -34t-15.5 -27t-21.5 -14q-35 -3 -47 -11.5t-20 -11.5q-20 -9 -37 2q-28 13 -24 48q2 42 -31 46q-15 2 -31 -9
t-25 -29q-21 -47 -5 -87q4 -10 4 -25v-26q0 -23 -5.5 -34t-6.5 -25.5t-0.5 -33.5t3 -40.5t6.5 -39.5q11 -42 31 -40q16 0 25 15q3 6 7 12t12 9.5t11.5 11.5t3.5 19q1 12 -2 49q-8 -2 -16 -2z" />
    <glyph glyph-name="H" unicode="H" horiz-adv-x="468" 
d="M123 744q71 21 82 -26q4 -17 2 -28t-2 -24v-30q0 -41 -3 -57.5t-1 -38.5t-1.5 -42t0.5 -27t10 -11q8 -6 21 -6q22 0 29 20q3 9 0.5 30.5t-0.5 42.5t-0.5 38.5t-4 37.5t-1.5 41q0 49 11 62t34.5 19.5t50.5 6.5q63 0 83 -28q9 -12 9 -24t-1 -18.5t0 -15.5q3 -24 -3 -48
t-8.5 -47t-3.5 -50q-3 -45 -3 -96q0 -91 -7 -115q-17 -51 -6 -77q3 -7 2.5 -16.5t-1 -20t-0.5 -20.5t5 -23q9 -27 -17 -57q-9 -10 -8 -34.5t1 -36t-5.5 -17t-23 -11.5t-38.5 -8q-53 -5 -67 21q-12 22 -5.5 87.5t9 98.5t-1.5 46t-13 16t-19 2q-22 -2 -30 -13q1 -23 1 -63.5
t-1 -81.5q-3 -101 -7.5 -107.5t-16.5 -9.5t-26 -3q-32 -2 -42 10.5t-16 19.5t-16.5 10.5t-12.5 11.5t-4 20q-5 28 0 35.5t5.5 20.5t-3.5 16.5t-7.5 28.5t-5.5 56t-2 59.5t6 42.5q14 32 2.5 62t-13.5 47.5t-3 31.5q-1 37 -4 47t-4 27.5t-1 37.5t0.5 41t-1 47t1 52t18 40
t38 17t39.5 -19z" />
    <glyph glyph-name="I" unicode="I" horiz-adv-x="315" 
d="M230 155q7 -17 21 -17q13 0 17 -5q7 -11 0 -42q-4 -18 -4.5 -28t-1.5 -17q-2 -12 -14 -26q-13 -11 -28.5 -15.5t-25.5 -7t-22 -8.5q-18 -9 -30.5 -8t-19 1.5t-15 -2.5t-13.5 -2.5t-10 2.5q-15 6 -28 6q-18 0 -24 60q-3 24 -1 46t7 28.5t12 9t13 4t11 2.5q6 3 6.5 21.5
t1.5 34.5q1 44 7 62q10 27 -3 46q-13 23 -10 86q2 38 -1 62q-4 47 -3 66q1 14 1 22t-1 12q-3 8 -18 8.5t-28 13.5t-11 41q3 28 0 51t3 36t7 22t3 16q6 16 27.5 18t40 -0.5t34.5 -6.5q42 -10 55 -10q10 0 22.5 2.5t24.5 4.5q28 5 42.5 -3t18 -19t3.5 -23.5t-1.5 -26.5
t1.5 -30q9 -36 1 -58.5t-15 -27t-13.5 -5.5t-13 -1.5t-11.5 -7.5q-8 -13 -8 -100l2 -167q0 -64 -8 -120z" />
    <glyph glyph-name="J" unicode="J" horiz-adv-x="383" 
d="M175 461q-3 21 -3 46q0 43 -7 58t-6 24.5t-3 16.5q-3 7 -2.5 21t-10 28t-12.5 31.5t7 29.5q10 11 19.5 12t16.5 1.5t17 6.5t21 5.5t22 -1.5q31 -1 46 9q34 22 56 16q46 -14 26 -111q-12 -54 -11.5 -157.5t-0.5 -137.5t-10 -49q-13 -20 -13 -60l1 -75q-2 -39 -11 -74
t-38 -55q-16 -11 -34.5 -36t-28 -33.5t-23 -7t-18 6.5t-8.5 10q-10 12 -42.5 8t-52.5 -4t-36 20q-11 12 -14 23q-5 20 -14.5 30t-13.5 19.5t-5.5 18.5t-3 19t-10 29t-6 41.5t11.5 33.5q21 27 57 31q29 19 45 9q6 -4 11.5 -5.5t9.5 -4.5q7 -4 5 -30q-5 -30 -1.5 -44.5
t12.5 -21.5q19 -14 40 -1q5 23 20 43v45q0 77 -3 90t-1.5 19t4.5 12q13 35 -4 60q-11 15 -1 35z" />
    <glyph glyph-name="K" unicode="K" horiz-adv-x="504" 
d="M40 573l1 19q0 3 -3.5 15.5t-4 23.5t0 18.5t1 14t-3 18t2.5 21.5t7 19.5t6 19t20.5 15.5t24 1t18.5 -12q28 -20 54.5 -18t36.5 -3.5t15 -14.5t7 -19t5 -20t5 -26t-7.5 -32.5t-9 -28.5t3.5 -26q6 -38 -4 -70q-2 -4 -2.5 -7.5t-2.5 -6.5q43 29 53 43q12 14 19 34.5t10 25.5
t5 8q5 5 8 21q8 42 22 53q-3 30 8 57.5t43 32t46 -7.5q25 5 37 2.5t24 -15.5q22 -22 9 -80q-3 -11 -3.5 -23.5t-2.5 -24.5q-5 -28 -25 -45q-38 -32 -38 -92q0 -26 -9.5 -35.5t-21.5 -8.5t-22.5 -6t-19.5 -17q-22 -26 -22.5 -40t8.5 -29t21 -37l23 -41q43 -77 43 -167
q0 -15 9.5 -35.5t0 -39.5t-23.5 -22q-52 -15 -69 61q-13 54 -62 93q-13 11 -18 28l-8 25q-3 10 -8.5 17.5t-11.5 16t-15 7.5q-14 -2 -15 -30v-27q0 -81 -21 -93q-9 -5 -14 -19l-9 -28q-5 -15 -12.5 -27.5t-23.5 -14.5q-31 -4 -42.5 29t-12.5 75t-3 53t-5.5 18.5t-7 14
t-7.5 17.5q-9 26 -10.5 59.5t0 44.5t-1.5 28q-4 17 -1 30.5t2 25t1 21.5t4 22q5 27 3 49.5t-1.5 31.5t1 15t0.5 12z" />
    <glyph glyph-name="L" unicode="L" horiz-adv-x="366" 
d="M204 143q12 5 26 5t22 -4t16 -9q19 -13 41 -12.5t37 2t29 -8.5q17 -15 15 -50q-2 -33 -15 -42.5t-24 -9.5t-22 1.5t-21 2.5t-17 -5q-36 -25 -57 -5q-10 11 -26 10t-28.5 -6.5t-25.5 -9.5q-59 -22 -80 32q-4 11 -6.5 20.5t-5.5 15.5q-7 14 -4 48q3 47 -1 69t-7 35
q-7 34 -6 53q3 33 -3 71q-1 11 7 30q26 60 0 92q-5 6 -9 11t-4 14q-9 81 -9 208q0 11 10 21q19 19 30 17q37 -10 66.5 -2.5t51.5 8t38 -20.5q36 -50 18 -119q-5 -16 -4 -30.5t-5.5 -31t-5.5 -30.5t3 -39q5 -65 -18 -101q-12 -19 -10.5 -46t3 -44.5t0 -38t-1.5 -48t3 -53.5z
" />
    <glyph glyph-name="M" unicode="M" horiz-adv-x="672" 
d="M481 744q32 0 59 -17q16 5 30.5 5t36 -4t31 -20t8.5 -27q-2 -20 -7 -29q9 -24 -9 -59q24 -58 -1 -173q-6 -28 -12 -54q-14 -61 -14 -86q0 -16 2.5 -47t4.5 -63t2 -59t-5.5 -34.5t-8 -23t-6.5 -30.5t-11 -25.5t-17.5 -9t-13 4.5t-4.5 7q-3 10 -12 13q-14 4 -14.5 18.5
t4 21t4.5 14t-3 15.5q-7 16 -18 18.5t-18 12t-12 21.5q-12 29 -8.5 44t-1.5 36q-16 64 -2 97q5 14 1 24q-6 21 -3 36q6 30 6 55.5t-13 25.5q-12 0 -16 -64q-4 -71 -12.5 -84t-14.5 -21.5t-11 -19.5q-10 -22 -10 -48.5t-1.5 -31.5t-2.5 -11q-5 -18 -5 -44q0 -36 -15 -58
q-2 -3 -4 -12.5t-6 -19.5q-10 -24 -26 -23.5t-24.5 10t-13.5 22.5t-8 26t-10 25q-10 17 5 70q6 21 5 34.5t-14 21.5q-6 4 -12.5 43.5t-11 66t-8.5 48.5q-11 51 -17.5 52t-8 -4.5t-0.5 -13.5t2.5 -16t2 -15t-6 -26.5t-1.5 -44.5t5 -38t-3 -28.5t-1.5 -27.5t2.5 -22
q2 -25 -11 -33t-12.5 -26t11.5 -29.5t8 -21.5t-7 -16t-3 -10t0 -10q-2 -24 -38 -44q-29 -16 -48 -12.5t-28 13.5t-7 22.5t0.5 23t-2 21.5t-1.5 22q-1 30 -6 40.5t-6 21.5t-0.5 20.5t1.5 17.5t-2.5 17t-0.5 23t1 27t0.5 23.5t4.5 21.5q3 26 -11 35q-16 13 -21.5 27.5
t-4.5 37.5t0 37.5t5.5 35t6.5 42.5t-1.5 38t-3.5 30t-4 29q-3 31 3 52q8 20 20.5 33.5t40.5 12.5q54 -2 65 5q23 14 52 1q8 -3 14 -8q56 -14 63 -45q20 -84 20 -111.5t1.5 -32.5t3 -7.5t1.5 -5.5t-2 -16t3 -20t11.5 -7t12.5 7q7 8 9.5 31.5t2.5 28.5q0 9 3.5 16.5t4.5 16.5
t3 19q3 26 13 36t21 17.5t14 21.5t6.5 26t10.5 23q17 28 50 28z" />
    <glyph glyph-name="N" unicode="N" horiz-adv-x="529" 
d="M391 746q31 9 45 -7q26 5 48 -12t11 -65q-7 -24 -4 -34t8.5 -20t3.5 -23.5t-5 -29.5q-10 -45 -4 -73q15 -66 -12 -138q-29 -79 -18 -190q9 -80 6.5 -104.5t-11.5 -39.5t-30 -15q-36 0 -50 21q-8 12 -8 31t-5.5 34t-13.5 28q-19 28 -36 39q-28 19 -43 91q-9 53 -23 87
q-4 10 -6 21.5t-4 22.5q-6 24 -21 24q-23 0 -18 -66q1 -14 4.5 -25.5t0.5 -27.5t-8 -33q-12 -44 -5 -65q7 -24 5 -50.5t-8 -41t-21 -20.5q-9 -16 -15 -36.5t-8.5 -27.5t-6.5 -8q-17 -6 -34.5 2t-22.5 22.5t-4.5 27.5t-3 23.5t-3 17.5t0.5 14q2 16 -5 24q-9 10 -9.5 27
t-0.5 29t2 20q7 19 6 58q-3 73 -18 88q-19 19 -21 70q-1 12 1.5 22.5t1 21.5t3.5 22q8 21 5 59.5t-3.5 55t-2 35t3 33t15.5 25.5q25 27 70 27q20 14 46.5 22t44.5 1t25 -22t11.5 -32t9 -34.5t15.5 -28.5t16 -26.5t9 -29.5t8 -23.5t13 -9.5t10.5 25.5t1 58.5t-1 64.5t5.5 46
t21.5 21.5t35.5 -4z" />
    <glyph glyph-name="O" unicode="O" horiz-adv-x="467" 
d="M36 585q0 13 4 30.5t20.5 32t28.5 29t21 29.5t22 24q45 31 126 24q33 -3 70 -24q18 -10 31 -36.5t18 -36.5t13 -14.5t14.5 -12.5t14 -25.5t13.5 -40.5q16 -53 14 -89t-3 -73q-2 -66 -13 -95t-16.5 -48.5t-6.5 -35.5t-1 -31q-2 -40 -5.5 -48t-11.5 -16t-17.5 -15.5
t-18.5 -14.5t-13 -11.5t-9.5 -12.5t-11 -17t-10 -16.5t-6.5 -11t-7 -12.5t-12 -19q-39 -48 -74 -4q-3 5 -9.5 5t-15 -4.5t-23.5 0.5t-23.5 16.5t-16 18.5t-14.5 11t-14 7q-19 10 -20 16.5t-1.5 12.5t-2.5 15q-8 48 -39 136q-24 66 -13 137q8 52 15 87q11 53 8.5 74t-4 33.5
t-1.5 25.5zM207 488.5q-6 -12.5 -9 -24t-7.5 -18.5t-8.5 -14q-17 -25 -4 -52q19 -39 20 -51.5t2 -36t4 -48.5q9 -63 27 -63q10 0 19 23q2 5 2.5 17t3.5 28q11 57 8.5 79t-3 39t-0.5 35v61q0 22 -5.5 31.5t-24 8t-24.5 -14z" />
    <glyph glyph-name="P" unicode="P" horiz-adv-x="454" 
d="M28 523l-5 83q0 21 -1 45q-4 60 8 67q11 6 15.5 13t10 7t17 0.5t24.5 -0.5q31 -2 41.5 -9t23.5 -9t26.5 -2.5t25.5 0t21.5 0.5t12.5 -2q12 -5 20.5 -4t16.5 -7.5t11 -13t19.5 -6.5t27.5 -3.5t22 -9.5t18 -10t15.5 -13t11.5 -16t4 -17q1 -28 14 -41t14.5 -25t2.5 -28
t3.5 -39.5t-10 -52t-25 -39.5t-20.5 -26.5t-11.5 -35t-21.5 -39.5q-11 -14 -17.5 -17t-12.5 -6.5t-14 -9t-18 -9.5q-25 -12 -43 -5q-11 -5 -21.5 -6.5t-21.5 -4.5q-23 -8 -25.5 -27t4 -39t7.5 -34q5 -45 -22 -78q-17 -20 -22 -42.5t-18 -30.5q-22 -20 -42 9q-3 3 -13 8
q-14 8 -17.5 25.5t-3.5 35.5t-3 34t-7 34q-9 49 -9 67t-0.5 37t5 34t4.5 20t2 11.5t7 16t6 19.5q4 21 -12 36q-18 17 -18 36v6q3 34 1 46q-8 34 -8 67zM191.5 465.5q1.5 -7.5 3 -21.5t0 -29.5t-2.5 -28.5q-2 -33 8 -37q11 -5 36 27q27 33 45 80q9 25 1 37q-17 20 -14 36
q1 1 0 5q-2 2 -5 5.5t-9 6.5q-23 9 -41.5 0.5t-24 -24.5t-5 -24.5t1.5 -12t3 -8t3.5 -12z" />
    <glyph glyph-name="Q" unicode="Q" horiz-adv-x="489" 
d="M426 240q-24 -64 -25.5 -78t-2.5 -17q8 -32 23.5 -46.5t22 -22.5t7 -22.5t-7.5 -24.5t-19 -25q-29 -39 -45 -36q-11 3 -27.5 22t-24.5 27.5t-14 9t-12 -5t-15 -13.5q-30 -27 -78 -19q-21 3 -29.5 10t-18 11t-19 7t-19.5 17q-12 20 -27.5 75t-18 67.5t-5.5 21.5
q-16 9 -21 25q-12 34 -9.5 59t-1 35t-13.5 23q-23 34 -3 73q15 33 15 73q-1 55 19 128q12 42 31 71t33 35t21 7.5t16.5 3t20 3.5t20.5 3.5t18 4t19.5 9.5t27.5 6.5t26 -9.5q12 -9 29 -13t24 -4q38 -18 47 -36q6 -14 19.5 -26.5t18.5 -22.5q17 -35 25 -82q1 -15 2 -24
t1.5 -16.5t1 -16t2.5 -27.5q5 -74 2.5 -92t-9.5 -32.5t-12 -30t-4.5 -35.5t-10.5 -50zM236 234l-2 42q0 8 8 16.5t14 15.5q9 8 29 1q25 45 10 71q-8 15 -4 32t5.5 34t-0.5 23t-4.5 10.5t-6 8t-7 13.5t-19.5 16t-27 -2.5t-16.5 -20t-9 -23.5t-6 -23.5t-4.5 -18t-4.5 -22
t-3.5 -33.5q-4 -46 4 -63t6.5 -30t3.5 -24.5t6.5 -20t3.5 -16.5q3 -19 13.5 -19t10.5 33z" />
    <glyph glyph-name="R" unicode="R" horiz-adv-x="474" 
d="M196 180l3 -48q2 -39 -20 -51q-6 -40 -6 -71q-7 -14 -23 -17q-30 -4 -39 16q-13 25 -21 27q-2 1 -6.5 1.5t-10.5 3t-4.5 15.5t-0.5 21t-5 17q-8 26 -8 50q0 17 0.5 31t0.5 28q-2 45 -11.5 77t-12.5 42q-6 22 -6 42q0 12 3 17.5t6 11.5q8 15 6.5 35t-3 40.5t-3 46t-3 54.5
t-1.5 56q0 88 22 99q4 2 9.5 4.5t13.5 7.5t14.5 10t13.5 8q13 6 31.5 -1.5t26.5 -10t16 -4t18.5 -1t30 1t42 -0.5t43.5 -6q68 -14 105 -75q16 -27 17 -48t2.5 -40.5t7.5 -44t4 -46.5t-4.5 -30.5t-5.5 -15.5q-5 -15 -4 -31q2 -26 -4 -40.5t-12 -29.5q-17 -37 -37 -42
q-11 -2 -18 -4t-8 -9q-2 -5 6 -11.5t16.5 -19.5t14.5 -17t11 -5q15 -3 19 -7q9 -11 13.5 -18t2.5 -21t0 -29t4 -31.5t0.5 -27.5t-1.5 -16l4 -26q0 -24 -14 -39t-22 -17t-15 1t-12 7.5t-8 6t-7.5 2t-9.5 2.5q-18 5 -31 70q-7 32 -24 41q-26 13 -28 36q-1 11 -2 30
q-4 38 -26 47q-11 4 -20 4t-18 -10q-12 -15 -12 -48zM271.5 391.5q12.5 9.5 21 25t13.5 31.5q8 30 5.5 55.5t-6 34t-20 8.5t-33 8t-18.5 19q-2 24 -15 17q-7 -4 -10 -7.5t-5 -20.5q-3 -35 0.5 -55t4.5 -26.5t1.5 -14t1 -17t2 -30t0.5 -34.5t3 -29q16 2 29 14t25.5 21.5z" />
    <glyph glyph-name="S" unicode="S" horiz-adv-x="421" 
d="M49 684q24 29 58 36q15 4 30 7t31 12q30 17 41.5 17t18 -2t15 -3t18 -1t21.5 -2q38 -5 80 -50q27 -29 33.5 -60t5.5 -61q-1 -43 6 -64t9 -32t-2.5 -30.5t-14.5 -27.5t-22 -10t-23 -1t-18 1t-9.5 -3.5t-5.5 -7.5q-7 -7 -27 -1t-33 25.5t-3 50.5q3 10 6 18.5t1 14.5
q-4 14 -19 15t-26 -8q-15 -14 -19.5 -34.5t-3 -29.5t1.5 -19t1 -21q4 -26 12.5 -35t14.5 -10t11.5 -0.5t11.5 0.5t17 -5t22.5 -10t20.5 -16t15.5 -14t11.5 -5.5t9.5 -4.5t7.5 -10q13 -35 6 -81q-2 -17 -3.5 -27t-2.5 -17.5t-2 -13t-1 -16.5q0 -41 -13.5 -63t-27.5 -30
t-18 -12t-6.5 -10t-7.5 -13q-12 -17 -35 -24q-26 -8 -55.5 -7.5t-45.5 3.5t-29.5 15t-22 26.5t-13.5 16t-11 1.5h-12q-16 0 -21.5 9.5t-4 18t0.5 24.5q0 16 0.5 30t11.5 24q24 19 42 20t24 7t9.5 11t10 6t13.5 -1q17 -5 17 -20t0.5 -27.5t3.5 -22.5q7 -26 26 -24q21 2 23 42
v21v22q0 47 -45 72q-18 10 -35 19t-32 22q-34 30 -43 69t-13 50.5t-7.5 15.5t-7.5 6t-11 12q-11 15 -5 35t10 33.5t4 29.5t-1.5 31.5t-1.5 31.5q2 36 27 66z" />
    <glyph glyph-name="T" unicode="T" horiz-adv-x="418" 
d="M409 661q5 -45 2 -76l-6 -49q-2 -17 -0.5 -44t-5.5 -38.5t-23.5 -14.5t-26 1.5t-17.5 9.5q-20 11 -32.5 3t-17.5 -24t-6 -37q-3 -31 0 -81q1 -18 0.5 -28.5t-0.5 -18.5q0 -19 6 -37t6 -27t-2.5 -14.5t-7.5 -9t-9 -7t-8.5 -7t-9.5 -7.5q5 -49 2 -77.5t-4 -48.5t-10 -31
q-12 -14 -48 -20q-21 -1 -31 21.5t-8.5 54.5t-1.5 49.5t-7.5 29.5t-8.5 21.5t-7 26.5t4 37q-14 16 -19 34t1.5 47.5t9 53.5t1.5 44q-2 46 -21 53q-14 4 -30.5 -7t-25.5 -14t-17.5 4t-8 17t3.5 21.5t5.5 22.5t-1.5 21t-10 13t-11 10q-13 16 -7 56.5t9 66.5t4.5 38.5t6.5 22.5
t15 18q25 18 65 13q184 -25 209 -17q10 3 18 6q69 28 81 -81z" />
    <glyph glyph-name="U" unicode="U" horiz-adv-x="497" 
d="M230 632l-4 -108q0 -18 1.5 -29.5t2.5 -19.5q4 -29 -6 -72.5t-4 -78.5q1 -8 3 -11t3 -6q5 -9 5.5 -23t10.5 -30t24.5 -14.5t24 29.5t5 76t-6 73t-1.5 45q-1 35 3 70q9 74 3 124q-2 18 -4 40.5t10 33.5t25 9.5t32 -3.5t31 -0.5t22 3.5q26 3 34 -3.5t12 -11.5t7 -17
q6 -24 4 -79q-2 -91 2 -157t0 -100t-2.5 -63t-5.5 -55t-12.5 -50t-10.5 -37t-10 -25q-11 -30 -15 -57q-7 -42 -29 -56q-10 -8 -22 -8.5t-18 -4t-12 -9t-13 -11.5q-18 -14 -25.5 -12t-12.5 8t-9 13q-11 19 -16 20t-15.5 -2t-24.5 -6q-68 -14 -104 33q-29 38 -42 96
q-5 25 -10.5 55t-15 52.5t-12.5 37.5t-0.5 29t5.5 31q9 49 4.5 78t-8 47.5t-5.5 36.5q-5 36 2 86q4 27 5.5 48.5t3.5 37.5q6 50 41 53q18 2 38.5 0t28.5 -1l31 3q24 0 33 -14q19 -24 19 -94z" />
    <glyph glyph-name="V" unicode="V" horiz-adv-x="440" 
d="M0 703q-4 42 42 37q10 -1 21.5 -3t23.5 -2.5t21 2.5t18 5q19 3 36 -9q11 -8 13.5 -23.5t3 -36t1 -44.5t8 -50t8.5 -39.5t0 -25.5q-1 -32 4 -53.5t6 -29t2.5 -15t4.5 -12t9 -1.5q6 4 5 13q-2 25 15 45q20 21 10.5 49t-5.5 56.5t9 50.5t4 38.5t-2 31t-1 25.5t9 23t33 14.5
t50 -8.5q5 4 15 2t15 -9q13 8 32 4.5t24.5 -12.5t3.5 -17.5t-5 -23.5q-16 -66 -16 -124.5t-6 -81t-12 -38.5t-13 -32q-16 -36 -21 -61q-3 -14 -10 -23.5t-13 -20.5q-16 -31 -14 -80q5 -93 -12 -103q-8 -7 -12.5 -5t-8.5 -3.5t-7 -24t-11 -40.5q-20 -57 -61 -67
q-25 -6 -35.5 2.5t-15 23t-7.5 30t-12 21.5q-35 35 -27 92q2 18 -2 25.5t-5.5 15.5t-3.5 17q-5 22 -11 28t-10.5 11.5t-7.5 15.5q-9 25 -11 59t-5 51.5t-7 32.5q-10 38 -12.5 66t-8 47.5t-11.5 38.5q-16 52 -18.5 79.5t-4 41.5t-2.5 24z" />
    <glyph glyph-name="W" unicode="W" horiz-adv-x="596" 
d="M592.5 691.5q3.5 -5.5 8.5 -11t5 -10.5t-1 -11t-2.5 -11.5t1 -12.5t-4.5 -18.5t-17 -35.5t-14.5 -54t-7.5 -59.5t-5.5 -57t-10 -49.5t-12 -48.5t-8.5 -54.5q-10 -71 -17 -92t-7 -28t-2 -17q-5 -26 -22.5 -48.5t-21.5 -35.5t-7.5 -24.5t-8.5 -19t-14.5 -6.5t-13 3t-6.5 4
q-10 11 -25.5 10t-22.5 0q-16 1 -20.5 13t-8 38t-7.5 53q-12 67 -28 67q-9 0 -10 -14t-1.5 -23t-2.5 -21t-8 -36t-14 -46q-21 -53 -50 -53q-23 0 -33 17q-4 7 -8 14.5t-14.5 13t-17.5 11.5t-11 16q-6 13 -9.5 46.5t-9.5 52.5t-13 37q-16 47 -15.5 69t-2 38t-6.5 31t-9.5 31
t-10 34.5t-10 35l-10.5 31.5q-10 35 -0.5 61t2.5 53t-17.5 53.5t-18 49t1.5 37t25.5 17.5t33.5 0.5t33 -6.5q25 -6 34.5 -0.5t15.5 8t14 2.5t20.5 -7t17 -16t6 -21t1.5 -26.5t7 -42.5q22 -83 7 -148q-9 -38 -3 -62.5t17 -22.5q10 2 13 15.5t3.5 34t0.5 44t4 43.5t6 31t4 17
q5 12 13 15q-4 109 33 144q7 6 16.5 6t18.5 -13t10 -46q2 -53 10 -103t11.5 -73t7.5 -42q13 -78 29 -24q13 46 13 82t-5 41q-22 20 0 56q9 16 10 40q4 48 7.5 56.5t13 16t20.5 11.5q28 11 46 -10q10 -13 32 -14t25.5 -5t13.5 -9.5t13.5 -11z" />
    <glyph glyph-name="X" unicode="X" horiz-adv-x="463" 
d="M226 247l-43 -79q0 -34 -20 -54q-8 -8 -21 -9q-4 -7 -8 -19t-9 -26q-12 -33 -29 -52q-36 -40 -55 -14q-6 8 -10 21q-7 23 -14 26q-8 5 -5.5 22.5t13.5 36t18 43.5t14.5 35.5t9.5 17t3 13.5q4 17 14 32q11 16 16 40q11 49 20 66q16 31 23 42q-8 12 -14 20.5t-11 16.5
q-7 13 -11.5 33t-10.5 32t-14 23q-27 42 -51 106q-7 19 -25 34q-46 38 -25 68q11 17 27 17t30 -5.5t18.5 -5t8.5 1.5q11 5 26 2.5t24.5 -0.5t17.5 5q20 8 35 1t16 -22t0.5 -37.5t3 -32.5t9.5 -20q19 -34 23.5 -49.5t8.5 -21.5q17 32 31.5 57.5t17.5 40.5t4 28t3 25
q4 27 22 37q35 21 80 -12q16 2 33.5 2t31.5 -3q33 -7 35 -29q3 -17 -6.5 -28t-14 -17.5t-4.5 -21.5q0 -30 -30 -44q-16 -8 -17.5 -15t0.5 -9q6 -6 -11 -23t-26.5 -31t-17.5 -28q-20 -33 -29 -41q-14 -10 -15.5 -29t11.5 -40q11 -23 20 -44.5t4.5 -30t-2.5 -13t7 -10.5
q18 -21 28 -49q7 -19 16 -35t17 -32q30 -61 40 -134q3 -23 -19 -33q-16 -9 -36.5 -2t-28.5 28.5t-17.5 30t-19 15.5t-18.5 16t-13.5 24t-11.5 33t-17 38q-23 44 -50 71z" />
    <glyph glyph-name="Y" unicode="Y" horiz-adv-x="412" 
d="M271 151q5 -45 5.5 -63.5t-1 -30.5t-4.5 -22q-7 -23 -20 -25q-9 0 -17.5 -8.5t-13.5 -12.5t-14.5 -4t-21 3t-20.5 16q-20 29 -13 114q-14 10 -19.5 29t1 56t8 54t0 28.5t-5.5 19t-11 22t-9.5 28t-8.5 20t-8 17t-7 20.5t-6.5 29t-9 31.5t-15 21t-14.5 16.5
q-20 22 -28 37.5t-8.5 26.5t0.5 21q3 26 -2 35l-11 22q-17 34 -17 54t10.5 30t22.5 6t33 -8.5t32.5 -2t21.5 6.5q25 8 40 2.5t20.5 -18t6.5 -27.5t1.5 -30t7 -26t10.5 -19t6.5 -16.5t3.5 -17.5t2.5 -22t5.5 -18.5t9 -5.5q12 2 16 24.5t9 38t9 27.5q9 24 7.5 33.5t-2 20
t3.5 19.5q10 22 42.5 18t52.5 -5t31 8t22 8t19 -9q19 -19 -2.5 -54.5t-28.5 -56t-3.5 -35t2.5 -21.5t-5 -14.5t-10 -17.5q-43 -76 -77 -190q-17 -56 -23 -138q-2 -31 -5 -45z" />
    <glyph glyph-name="Z" unicode="Z" horiz-adv-x="391" 
d="M297.5 -6.5q-11.5 -0.5 -23 -3.5t-21.5 -0.5t-20 5.5q-50 15 -77 -1q-5 -2 -10.5 -2t-16.5 5t-20.5 4t-18.5 -1q-21 -2 -32 14q-6 9 -7.5 36.5t-4.5 38.5q-7 18 -2.5 29t7.5 17t4.5 12t3.5 12.5t5 15.5q8 20 24 50t21.5 44.5t8 24t3.5 15.5t5.5 13t13.5 11.5t12.5 11
t2.5 10.5t-2.5 7.5t-3.5 7.5t-1 9.5t10 21t18 33.5q24 48 20.5 57t-8.5 9t-11 -2q-20 -9 -31 -3q-22 11 -57 -8q-41 -21 -69 -1q-10 7 -15.5 24.5t-4.5 37t4 37.5q8 49 4 61t-6 23t-2 23q2 27 20 42q16 13 35 9.5t31 -7t31.5 -6t43 2t43 4t30 -2.5t20.5 -3q24 -2 43 4.5
t33 10t28 -4.5q34 -20 17 -78q-26 -88 -8 -131q8 -23 6.5 -44.5t-18 -40t-23 -31t-12 -25t-11.5 -26.5t-15 -29q-14 -23 -13 -27t2 -5.5t-3 -8.5q-5 -8 -10 -8t-8.5 -4t-8.5 -19q-15 -45 -29 -66t-25 -36q-6 -6 -10 -12.5t-8 -11.5q26 8 46 6t29 -2t23.5 8.5t34 11.5
t30.5 -4.5t12.5 -13.5t0.5 -13.5t-2.5 -17t0 -27.5t5.5 -40t-3 -32t-16.5 -13.5t-20.5 -5t-22.5 -2z" />
    <glyph glyph-name="bracketleft" unicode="[" horiz-adv-x="231" 
d="M185.5 37.5q24.5 -5.5 34.5 -8.5t10.5 -14t-7.5 -18q-17 -11 -73 -9q-11 0 -21.5 -2.5t-20.5 -4.5q-22 -5 -33 6q-18 13 -7 66q8 45 -7 49q-7 1 -1 34.5t5 69.5t-1.5 54.5t-0.5 38.5v37q-23 69 -9 114q4 15 6 30q-12 16 -11 27t-0.5 30.5t-4.5 43t1 37.5q7 21 2 33
q-9 22 -4 49q2 10 -0.5 21t-0.5 16q1 5 11.5 16t22 15.5t18 5t19 -3t19.5 -6t14 -2.5q13 -2 39 2q28 4 35 -14q2 -7 -2.5 -13t-20.5 -7.5t-26 -5.5t-20.5 -5t-20 -13t-9 -32t0.5 -30.5v-21.5q-3 -56 2 -104.5t-1 -94.5q-8 -62 1 -108q1 -4 4.5 -7.5t9.5 -25.5q7 -28 0 -62
q-1 -14 -5.5 -46t-0.5 -58q4 -34 9 -62q20 -11 44.5 -16.5z" />
    <glyph glyph-name="backslash" unicode="\" horiz-adv-x="345" 
d="M19 741q6 9 15.5 13t27.5 -9t30 -34.5t14.5 -33t4.5 -21.5q5 -24 18 -40q30 -37 39 -91q15 7 27 -49q10 -56 52 -132q26 -46 33 -74q14 -57 20 -70t8.5 -22t5.5 -18q8 -22 23 -49q28 -49 12 -96q-6 -18 -20.5 -20.5t-24.5 0.5t-22 19t-22 36q-23 48 -23 79q0 22 -11 49
t-19 46t-15.5 43.5t-16 41.5l-16.5 33q-21 44 -31 87q-10 44 -18 58q-17 30 -24.5 56.5t-13.5 37t-12.5 18t-14.5 17t-19 31.5t-14 40t-1 31.5t8 22.5z" />
    <glyph glyph-name="bracketright" unicode="]" horiz-adv-x="227" 
d="M81 42q27 32 27 59q0 12 -1 25.5t-2 27.5q-2 35 -1 45.5t0 18t-3 14.5q-7 28 -1.5 48t8.5 28q14 49 6 81.5t-4.5 50.5t2 27t-4.5 16.5l-6 15t-3 16.5t6 32q10 42 8.5 67.5t-2 44.5t-4.5 34q-7 32 -34 36q-12 1 -24 1.5t-22 1.5q-21 4 -21 18q0 20 32 15q6 -1 17 0t23 2
q24 2 46 2q17 -2 33 -6t22 -18t7.5 -42.5t-3 -48t-5.5 -37.5t-1 -36q2 -44 5 -57q3 -11 1 -33l-3 -34q-1 -12 0.5 -25t-3 -40.5t-0.5 -52.5t3.5 -52.5t-2 -53.5t-3 -47.5t-1 -41t6.5 -100.5q-10 -30 -33 -44q-10 -6 -31 -7t-48.5 -2.5t-47 3t-20.5 15.5t17 19
q16 5 29.5 10.5t34.5 3.5z" />
    <glyph glyph-name="asciicircum" unicode="^" horiz-adv-x="380" 
d="M30 304q-21 0 -20 38q1 23 22.5 74t36.5 86q51 121 55.5 153.5t9.5 50.5t13.5 31t24.5 16q33 6 47 -34q2 -7 5.5 -10t7.5 -7q9 -11 12 -39q6 -43 20 -67.5t30 -50t24 -61t17.5 -56t12.5 -27t6 -11.5t7 -12q9 -17 8.5 -27.5t-2 -13.5t-2.5 -7.5t-1 -9t-4 -7.5
q-28 -23 -57 7q-23 24 -33.5 53.5t-16 36.5t-7 23t-9 25t-16.5 19.5t-13.5 21t-7.5 21.5q-5 18 -4.5 34t-8.5 16t-12 -16t-6 -29.5t-6 -26.5q-4 -16 -10 -34q-21 -21 -25 -38t-5.5 -21.5t-2.5 -8.5q-5 -10 -7 -17q-12 -40 -30.5 -60t-52.5 -15z" />
    <glyph glyph-name="underscore" unicode="_" horiz-adv-x="577" 
d="M0 40q0 62 67 56q38 -3 56 -7q35 -6 48 -6t27 -0.5t27 1t26 1.5t26 1q35 1 45.5 3.5t25.5 1t31 -3.5t30 -4t23 0q16 -2 39 1.5t40 -1t29 -5.5q29 -4 34 -25q6 -20 -6 -30q-5 -5 -8 -12t-12.5 -10.5t-18 -2.5t-17.5 -2t-30.5 -3t-49.5 4q-12 -5 -33.5 -1.5t-40 2t-29 -2.5
t-21.5 -1q-21 0 -51 7q-27 6 -39.5 4.5t-20.5 -3t-27 1t-29.5 -1t-16.5 0.5t-14.5 0t-17.5 -2t-12.5 1t-7.5 -2q-21 -8 -56 14q-15 9 -16 26z" />
    <glyph glyph-name="grave" unicode="`" 
d="M313 668.5q6 -18.5 -2.5 -29.5t-22.5 -13.5t-27.5 11.5t-22.5 16t-11 7q-2 9 -9 16.5t-10 5.5q-6 -4 -15 3l-14 11q-5 4 -9.5 5.5t-12.5 12.5t-5.5 27.5t11.5 19t15 5.5t16 -1t22 -10q26 -14 33 -25q9 -15 46 -36q12 -7 18 -25.5z" />
    <glyph glyph-name="a" unicode="a" horiz-adv-x="442" 
d="M97 -12q-10 -3 -22.5 1.5t-17.5 17t-6.5 29t-0.5 35.5t1 37q0 40 -13 51q-27 20 -22 102q5 47 11 75q10 46 9.5 78t2 50t6 30t8.5 25t9 43q10 75 18 93q11 25 26.5 51.5t25.5 35.5q23 17 66 3q32 -11 59.5 -7t42 3.5t32.5 -11t28 -25t14 -31.5q7 -29 1 -73.5t-4.5 -72
t12 -52t14 -39t6 -29t4 -31t6 -37.5t5 -33.5t-0.5 -20.5t-2.5 -14.5t1 -20t0 -29.5t-5.5 -31q-11 -46 -9 -65q4 -34 0 -48.5t-7.5 -23.5t-8 -25t-18.5 -29t-26.5 -8t-16 14.5t-6 19.5t-6 18t-12.5 9q-16 2 -17 18.5t0.5 29t-1.5 25.5t-10 25q-18 31 -42 34q-36 5 -50 -35
q-3 -10 -4.5 -26.5t-8 -29.5t-14 -22t-14 -16.5t-8.5 -18.5q-8 -43 -34 -49zM186 407q-20 -54 -5 -86q10 -18 26 -19q29 -3 34.5 4.5t13 16t5.5 26t-3 31t-9.5 30.5t-11.5 36.5t-4 37.5q-4 40 -18 40q-10 0 -12.5 -10.5t-3.5 -27.5q-1 -52 -12 -79z" />
    <glyph glyph-name="b" unicode="b" horiz-adv-x="460" 
d="M384 361q-28 -31 -57 -50q25 -4 43.5 -12.5t18.5 -26t4 -25.5l8 -16q10 -19 4.5 -44.5t-7 -49t-5.5 -45.5q-10 -54 -42 -64q-26 -8 -46 -12q-30 -42 -52 -39q-8 1 -13 11t-13 11t-17 -2l-20 -7q-19 -6 -60 8q-15 6 -22 28t-12.5 31.5t-10.5 16t-10 10.5q-19 17 -19 29
q-1 20 3.5 52.5t5 56t-2.5 44.5q-5 45 -27 59q-11 7 -15.5 11.5t-4.5 13.5t4 26t7 36t8 27.5t5.5 30t-1.5 40t-4 30.5q-3 29 0 47t1.5 33.5t-0.5 29.5q3 38 56 72q44 28 75 13q20 -8 29.5 -6t14.5 2t12 -4.5t16 -3t18 4.5q26 6 39 2t22 -1.5t15 2.5t15 -5t15.5 -6t11.5 -2
q9 -2 15 -18q4 -10 5 -18.5t2 -16.5q4 -17 14 -26q8 -7 8 -16q0 -16 7 -20.5t13 -19t9 -34.5q8 -51 -10 -93q-6 -72 -36 -87q-5 -2 -17 -8zM221.5 556q-2.5 5 -8 3t-7 -7t-1.5 -12t0.5 -15t-1 -17t-1 -17t2.5 -17q4 -25 4.5 -45t0 -32t-0.5 -21q1 -16 15 -21q14 -6 31 25
q26 45 30 92q2 17 -6 31.5t-15 16t-17 2.5t-14.5 7.5t-7 14t-5 12.5zM243.5 144q2.5 8 9.5 14.5t9 26.5q3 34 -6.5 48.5t-12.5 35.5q-11 7 -15 11.5t-8 1.5t-3.5 -8.5t-1.5 -12.5t-4.5 -14.5t0 -19t1 -21.5t-4 -26.5t-3 -24.5t8.5 -20.5t18.5 -5.5t12 15z" />
    <glyph glyph-name="c" unicode="c" horiz-adv-x="444" 
d="M423.5 577.5q-0.5 -13.5 -7.5 -38t-4.5 -44t5.5 -26t4.5 -15.5t-0.5 -19q-5 -23 -29 -36q-23 -10 -39.5 -21.5t-34.5 -17.5q-4 -12 -7.5 -22t-11.5 -15.5t-18 -2t-8 21t-5.5 24t-12 10.5t-8.5 8t-6 10q-5 18 2.5 32t8 21t-0.5 15q-3 20 -0.5 34t-7 24t-21 9t-19 -31
t-11.5 -74.5t-4.5 -96.5t4.5 -97q10 -103 36 -105t40 7.5t22 21.5t12.5 22.5t10.5 12.5q42 14 59 -17q7 -13 7 -37t-3.5 -35.5t-8 -19t-8.5 -13.5t-6 -15.5t-9 -17.5t-17 -14q-21 -11 -35 -11q-55 0 -82 -20q-17 -14 -34 -13q-25 1 -34 10t-24 18t-17.5 22.5t-9.5 21.5
t-15 20q-21 27 -21 64q0 23 1 38t0 26q0 21 -18 43.5t-21 39t-5.5 31t-0.5 28.5t4 29t7.5 26t4 22t2 18t6.5 15q8 22 -2 43.5t-10.5 34.5t2.5 23.5t6.5 20t3.5 24.5t5.5 35t28 25.5t25.5 15.5t7 21q3 11 19 24.5t46.5 18t44 0.5t24.5 -16.5t21 -14t21 0.5q52 7 104 -22
q18 -10 24 -31t10 -30t6.5 -19.5t2 -24z" />
    <glyph glyph-name="d" unicode="d" horiz-adv-x="440" 
d="M193 4q-40 -31 -68 -31q-13 0 -27.5 8t-19 19t-4.5 24.5v29.5q1 27 -8 49t-12 32q-5 21 -3 61q1 31 -2 37.5t-3 12.5t4 42q11 86 -10 88q-11 2 -10.5 5t-5.5 13.5t-7.5 16.5t-1.5 19t3 24t7 22q28 76 20 128q-11 57 -7.5 80.5t11 33.5t17.5 18.5t24 13.5q30 10 52.5 -5
t41.5 -19t36 -5q44 -3 54 -11t19.5 -12.5t16.5 -7.5q20 -10 24 -19t11 -16.5t15 -16.5q18 -23 23 -49q3 -17 5 -30t5 -25q9 -39 21 -69q24 -61 12 -94l-2 -4q8 -20 2.5 -42.5t-8 -32t-6.5 -21.5t-9 -30.5t-10 -32t-11 -24.5q-12 -22 -62 -74q-16 -16 -22.5 -32t-18.5 -25
q-16 -30 -27 -37q-22 -17 -59 -12zM179 445l3 -57q2 -24 -3 -44.5t-1.5 -43.5t1.5 -39t2 -26t2.5 -20.5t-2.5 -20.5q-2 -26 10 -28q8 -1 15 7.5t12 21.5q9 21 15 55q2 14 10 30q14 30 14 43.5t1 17t2.5 7.5t3.5 9t4 18.5t-3.5 34t-21 33.5t-21.5 22t-11 16q-10 14 -19 8
q-13 -10 -13 -44z" />
    <glyph glyph-name="e" unicode="e" horiz-adv-x="413" 
d="M50 188l-1 51q0 14 1 26q1 13 -2 32q-5 33 -4.5 48.5t0 25t-2.5 17.5q-3 12 -14.5 38t-11.5 56t13 48q12 18 9 37t-4.5 40.5t-0.5 44t10 43.5q22 51 88 49q41 -1 71 -8t44 -6t43 10q42 16 67 -2q7 -5 13.5 -7.5t11.5 -7.5q17 -19 10 -83l-4 -38q-5 -45 0 -67t5.5 -38.5
t-1.5 -29.5q-6 -29 -23 -29q-15 1 -21.5 9.5t-10.5 19t-8.5 19t-19.5 8.5q-44 0 -58.5 9.5t-25.5 11t-21 -2.5q-21 -9 -24.5 -33t-4.5 -42t0 -33q2 -35 13.5 -39.5t19.5 -1t16 8.5q24 16 49.5 15.5t38 -20.5t10.5 -38.5t-3.5 -36.5t-4.5 -34q-14 -62 -58 -24q-57 4 -71 -14
q-3 -5 -6 -21t-1 -34q5 -47 45 -50q26 -2 47.5 7t28.5 20q6 12 15 13.5t16 3t14 1.5t14 -2q18 -6 21.5 -28t-4.5 -40t-10.5 -32.5t-4.5 -21.5t-11.5 -17.5t-15 -17.5t-17.5 3q-22 17 -53 -20q-8 -11 -17 -16t-28 -4t-30 10t-20 18q-15 19 -52 14q-22 -3 -36 19q-3 3 -4.5 11
t-3.5 18q-7 26 -12.5 33.5t-6 19.5t-2.5 25.5t-3 20t1.5 15.5t2.5 20z" />
    <glyph glyph-name="f" unicode="f" horiz-adv-x="407" 
d="M202 403q0 -28 29 -28q7 0 13 1.5t20.5 4.5t27 -5.5t19 -12.5t10.5 -9q7 -9 6.5 -33.5t-10.5 -45t-45 -25.5t-52.5 -15t-21 -33t-8.5 -32t-6 -20t-5.5 -23.5t-3 -23.5t1 -29.5t-5.5 -36.5q-12 -44 -43 -44q-12 0 -18.5 12.5t-11 29.5t-9 36t-16.5 39.5t-13.5 46.5
t-1.5 51v48q0 88 -20 110q-13 13 -11 50v28q0 15 5 24q12 26 6.5 73t-10.5 72.5t-0.5 48.5t6 36t10 25t15 13.5t15.5 0.5q12 -1 21 8q33 33 62 15q12 -8 24.5 -17t27.5 -16t34.5 -5t38.5 6t38 2q48 -3 70 -44q15 -28 11.5 -58.5t-6.5 -49.5t-3 -31.5t-1 -15.5t-2 -5
q-4 -11 -5 -30t-4 -28q-9 -23 -35 -23q-17 0 -29 6q-24 12 -34 13q-14 2 -19 16q-2 5 -4 10.5t-6 10t-8.5 12t-18.5 5.5q-28 -4 -26 -32l2 -58v-25z" />
    <glyph glyph-name="g" unicode="g" horiz-adv-x="444" 
d="M330 14.5q2 11.5 2.5 33.5t-10.5 22q-9 0 -15.5 -19.5t-17.5 -25t-21.5 -8l-21 -5t-17.5 -9.5t-22 -14.5t-35 4t-27 20.5t-10.5 17t-7.5 14t-13 8q-20 5 -27 32.5t-14 59t-9.5 55.5t-5.5 46q-7 53 -19 63.5t-14 29.5q-5 48 -5 68.5t11.5 44t11.5 47t-3.5 36t-5.5 20
t-2 16.5q-1 16 8 48q5 17 8 31.5t6 25.5q11 40 56 40h14q27 0 48 17q10 7 22 11t20 -0.5t22 -3t29.5 11t36.5 13t44 -2t32 -18.5t14.5 -16.5t10.5 -6.5q19 -14 23 -60q3 -39 -10 -74q-2 -7 -7 -22t-12.5 -31.5t-7.5 -31t-1.5 -27.5t-8.5 -24q-17 -27 -67 -25q-43 0 -53 14
q-5 7 -5.5 18t-2 30t-11.5 35t-27 8q-11 -6 -16 -40.5t1 -69.5t5.5 -42.5t-2.5 -14.5q-13 -47 -4 -133q7 -63 31 -68q22 -4 36 23q12 25 -2 103q-12 61 20 64q14 2 35.5 1t38 3.5t35 0t30.5 -17.5t0 -50q-24 -74 -9 -129q2 -9 6 -25t7 -35.5t4 -39.5t-3 -36
q-7 -37 -37.5 -37t-42.5 2t-15 8t-1 17.5z" />
    <glyph glyph-name="h" unicode="h" horiz-adv-x="497" 
d="M289 126l1 76v25q0 30 -6 38q-9 14 -28 13.5t-27.5 -11.5t-10 -27t-2 -35t-0.5 -41q-2 -44 0.5 -68t0 -30.5t-10.5 -13t-13 -17t-9 -21.5q-12 -26 -25 -27q-39 -4 -67 42q-6 11 -16 21q-21 23 -8 74q5 24 5 49.5t-2 36.5t0 24.5t-3 24t-3.5 27.5t-2 29.5t-1.5 22.5
t-2.5 16t-3 17.5t2.5 24.5q3 36 -9 55t-20.5 44t2.5 60q17 53 10 117q-2 16 7 37q13 33 85 37q23 1 41.5 6t37 0.5t21.5 -23.5t5.5 -26t3.5 -14q2 -13 -4 -41.5t-7 -48t-1 -37.5q2 -44 -3.5 -62.5t-3.5 -28t8 -15.5q20 -18 55 4q5 3 9 10q-5 28 -6 69q-1 61 -4 95.5t1 57.5
t21 43t31.5 17.5t24 -12t17.5 -8.5t22 10q37 22 69 -27q-10 -10 -5.5 -36.5t1.5 -38t-4 -32t-1.5 -39.5t-5.5 -50q-7 -43 -1 -99t2 -101t-2 -75t-1.5 -40t-7.5 -20q-15 -29 -17 -59q-2 -25 -3 -49.5t-5 -43.5q-9 -43 -41 -43q-36 0 -41 55q-23 7 -37.5 24t-12.5 58z" />
    <glyph glyph-name="i" unicode="i" horiz-adv-x="336" 
d="M272 553q-34 -9 -13 -116q7 -29 7.5 -48.5t-5.5 -42.5t-6 -37t-4 -33q1 -21 -0.5 -42.5t-2.5 -41.5q-3 -49 -1 -58t6.5 -11.5t10.5 -4.5q14 -5 17 -13t2.5 -22.5t-3.5 -30.5q-9 -38 -25 -49q-9 -6 -18.5 -4t-20.5 4q-34 6 -58 -6q-59 -32 -91 0q-13 13 -16 40
q-4 49 5.5 63t16 17.5t11.5 6.5q11 5 11 17q0 9 2.5 19.5t4.5 22.5q5 29 -5 48q-11 22 -9.5 36t2.5 25l4 24q2 29 -1 49.5t-4.5 43t-1 42.5t0.5 38q0 42 -8.5 50t-15.5 8.5t-14 0.5q-19 -2 -24 6q-11 11 -11 28t6.5 26t8.5 20.5t2 24.5q2 30 -2 39.5t-5.5 17t-1.5 14.5
q0 29 41 30q25 1 51 -0.5t41 1.5q52 10 83.5 8t40.5 -5q25 -10 27 -55q1 -21 1 -44t2 -47q4 -50 -38 -59z" />
    <glyph glyph-name="j" unicode="j" horiz-adv-x="376" 
d="M329 453q7 -13 12 -47q10 -68 -17 -101q-28 -30 -2 -69q14 -28 -5 -116q-10 -51 -20.5 -72t-30.5 -24q-9 -2 -16.5 -8.5t-16.5 -13.5q-41 -35 -109 -9q-10 4 -20.5 8t-27.5 6q-30 3 -45 32q-7 13 -13 29l-11 35q-9 27 -9 51.5t0.5 36t-1.5 21.5t-2 21t5 19q11 20 45 11
q19 -5 31.5 -6t21.5 -2q28 -3 26 -35v-30q0 -37 20 -40q20 -5 26 24q3 11 2.5 23.5l-1 25t1 21.5t13.5 23.5t9 30t-8.5 20t-7.5 13t-3 18.5t-1 20t1 22t-5 36.5t-5.5 47t-3 39.5t-8.5 36q-10 48 -7 94q-9 23 -11 46.5t3 32.5t10 11t11 4q15 6 27 19t29 19q21 7 51 -23
q20 2 32.5 2.5t17.5 -6t7 -8.5q7 -5 11 -4q-3 -13 3.5 -34.5t5 -43t0 -38.5t0 -23.5t-3.5 -11.5q-7 -13 -3 -35t-1.5 -31t-12 -15.5t-4.5 -23.5t10 -28z" />
    <glyph glyph-name="k" unicode="k" horiz-adv-x="465" 
d="M340.5 367q-7.5 -19 -7.5 -28.5t6.5 -26t16.5 -37t22.5 -45.5t21.5 -46.5t12.5 -33t5.5 -22.5q2 -19 -1.5 -43t-2 -38.5t1 -26.5t-4.5 -19.5t-23.5 -9t-36 13.5t-28 35.5t-19 40.5t-19.5 33t-20.5 38t-14.5 48t-13 40t-19.5 19t-16 -6t-3 -21.5t2.5 -30t2.5 -36t-2 -36.5
t-16 -32.5t-18 -31.5t-7.5 -31t-8 -26t-17 -11q-24 -1 -44 27t-23 73q-3 26 -15 34q-11 7 -7 55q1 13 4 23q6 31 -0.5 88.5t-8.5 68t-4.5 25t-4 31t-1.5 34t4.5 37t5 32.5t-0.5 23q-5 32 -3.5 51.5t-1.5 41.5t-4 43t3.5 38.5t18 25.5t23.5 6.5t21 -4.5q33 -9 46 -7
q76 19 61 -97q-3 -19 -6 -34q-7 -36 -4 -54q2 -12 2.5 -26t1.5 -26q2 -28 13 -28q17 0 43 58q6 13 8.5 21t7 19t10.5 22q16 27 34 34q-13 28 -4.5 48.5t13.5 30.5t11 16q11 11 32.5 5t37.5 -1t31.5 10.5t30.5 8t25.5 -6.5t13 -20.5t-0.5 -24.5q-6 -27 -30 -53
q-14 -55 -46 -87q-4 -47 -30 -79q-10 -11 -30 -52t-27.5 -60z" />
    <glyph glyph-name="l" unicode="l" horiz-adv-x="325" 
d="M341.5 133.5q-0.5 -10.5 -2 -21.5t0.5 -24.5t3.5 -26t1.5 -23.5t-6.5 -18.5t-19.5 -12.5t-29 -7q-37 -3 -64 11q-25 13 -47.5 8t-35 -9.5t-29 -8.5t-32.5 -3.5t-27 18t-12 40.5t7 47t6 54.5t-4 52t0 37.5q5 38 -9 53q-11 13 -11 30.5t1 28.5t7 19t7.5 13.5t-0.5 19.5
q-8 57 -5.5 88t-1 53.5t-1.5 37t-2 24.5t-2.5 14.5t-0.5 13t-4 18.5q-6 30 -3.5 41t10 25.5t18.5 17.5t13 5t10 5q21 6 31 1t18 -5.5t16.5 0t16.5 2.5l12 2q21 6 32 -2q7 -7 10 -11t1 -12t2 -13t3 -14.5t-0.5 -14t1.5 -9.5q2 -10 -2 -24t-5 -18.5t-1 -8.5q0 -13 -3.5 -24.5
t-4 -19t-0.5 -17.5v-22q0 -12 -1.5 -30t-3 -42.5t-2.5 -49.5q-4 -66 -10 -84q-16 -9 -5 -42l7 -21q10 -30 10 -59t-5 -56q29 -16 41 -17q29 -4 52.5 8t34 10t15 -9.5t4 -18z" />
    <glyph glyph-name="m" unicode="m" horiz-adv-x="671" 
d="M506 7q-33 0 -30 56q2 38 0.5 67t-12.5 61t-15 58t6 57q14 44 2 98q-2 9 -2 18.5t-1 17.5q-1 19 -10 19q-8 0 -11 -14q-6 -36 -14 -56q-22 -52 -17 -86q13 -50 -2 -77q-7 -13 -17 -19t-13 -10.5t-2.5 -16t-5.5 -18.5t-7.5 -15t-3.5 -15q-5 -18 -22 -16t-23.5 21t-10 44
l-7 50t-13 38t-13 26t-5.5 27q-5 34 -13 47q-7 12 -11 45t-7.5 45t-12.5 12q-10 -1 -11 -15t3 -23t1 -32t1 -40t8 -30.5t7 -28.5q10 -41 4.5 -69.5t-6.5 -44t-12.5 -22.5t-14 -14.5t-3.5 -17t-2 -20t-7 -25.5q-13 -32 -8.5 -47t-5 -32t-27 -18.5t-28 6.5t-18.5 20
q-33 54 -26 122q1 15 2.5 30t-0.5 37q-3 54 -25 85q-15 21 -17 51q-5 52 6 74q5 10 5 31.5t-0.5 31t1 14t2 16t0.5 26.5q-1 27 -7 49.5t-7.5 39t0.5 32.5q3 36 12.5 51t17.5 17.5t18 2.5t17 3.5t15 6.5q17 7 33 1t27.5 -4t21.5 5q26 10 39.5 5t24.5 -17t12.5 -19.5
t4.5 -10.5t7 -6q8 -7 8 -22q0 -22 12 -59q21 -70 40 -76q4 -1 14 6t14 21q6 24 4 36.5t3.5 19.5t6 13t1.5 16t4 23q8 33 23 50t31 20t32.5 1.5l33 -3t33.5 5.5q45 20 62 1q5 -5 9.5 -7t8.5 -4q8 -6 9.5 -18.5t3.5 -17t4 -8.5q11 -26 14 -90q3 -105 -4 -120q7 -41 -7 -58
l-6 -6q-18 -18 -22 -48q-2 -12 0.5 -20t2.5 -17t-0.5 -16t-0.5 -15q-2 -29 -0.5 -42t0 -19t-3.5 -11q-5 -15 -3 -25.5t0 -16.5t-5 -12q-8 -17 -6.5 -43.5t-2 -44.5t-3.5 -37q-2 -53 -14 -49q-5 2 -8.5 -5t-6 -18t-13.5 -7.5t-14.5 16.5t-9 17t-16.5 4z" />
    <glyph glyph-name="n" unicode="n" horiz-adv-x="521" 
d="M121 730q50 20 54 4q25 6 37 -15q4 -7 15.5 -29t25 -47t25.5 -47t16 -29.5t10 -8.5t12 3q13 10 7.5 30t-5 31.5t2.5 21.5q6 28 2 45t-4 32q0 30 49 30q10 0 23 -0.5t39 2t45.5 -14t12.5 -58.5q-9 -57 -8 -76.5t1 -36.5q0 -18 -6 -53q-11 -62 -6 -88q4 -23 4 -34v-16
q0 -3 2 -13t-1 -20.5t-1 -22.5t-5 -27.5t-6.5 -34t-2.5 -33.5t3 -35q9 -31 -15 -109q-4 -19 -12.5 -24.5t-12.5 -8.5t-6 -13q-5 -20 -21 -18q-21 3 -34 42q-18 54 -29 63t-16.5 25t-9.5 33q-8 42 -16 48.5t-13 25.5t-10 27t-9.5 18t-9.5 20q-13 25 -25 22q-7 -2 -9.5 -17.5
t-4.5 -37.5q-6 -64 -20 -92q9 -26 13.5 -47.5t-2 -51t-10.5 -47.5t-8.5 -31.5t-10.5 -20.5t-15 -5.5t-12 5.5l-6 8q-7 13 -24 19t-24 15t-9 21t-2.5 26t-7 30.5t-6.5 27.5t2 19.5l4 17t-4 26.5q-12 37 7 61q14 20 12 34q-6 29 -23 38q-8 5 -8 12q0 15 -4.5 22.5t-0.5 19.5
t-1 20q0 1 -2.5 20.5t-5 50t-5.5 66t-4 68.5q-4 76 1.5 89t17 19t24.5 8q28 3 46 -4z" />
    <glyph glyph-name="o" unicode="o" horiz-adv-x="481" 
d="M120 690q11 10 19 21.5t21 21.5q35 29 70 17q43 -16 79 -20t52.5 -18t28.5 -30q29 -38 35 -83q1 -17 6 -24q13 -22 8.5 -59t-3 -51.5t5 -21.5t6.5 -14q8 -19 8 -38q0 -24 -16 -48q-7 -9 -5 -35t3 -52q1 -65 -7 -80.5t-11.5 -18.5t-6.5 -5q-15 -7 -26.5 -41.5t-30.5 -56
t-39.5 -35t-32 -21t-16.5 -14.5l-10 -14q-13 -16 -33 -16q-34 0 -50 16q-7 9 -15 26q-15 27 -40 44q-28 19 -34 57q-3 13 -1.5 26t-1.5 33q-2 20 -8 36t-7 30q-5 42 -28 45q-17 2 -20 51q-1 25 2 47.5t8 38.5q8 29 5 67.5t0 68.5q5 56 24 91q9 15 26.5 30t34.5 29z
M193.5 381.5q7.5 -8.5 11 -26.5t2.5 -39.5t-1 -41t2 -35t6 -28.5q11 -31 31 -31q31 0 43 120q4 33 4 84.5t-16 89t-39 37.5q-22 0 -40 -49q-16 -44 -13.5 -58t10 -22.5z" />
    <glyph glyph-name="p" unicode="p" horiz-adv-x="474" 
d="M134 -15q-14 1 -28.5 30t-20 74t-7.5 61t-4 24q-3 15 -11.5 26.5t-10.5 17.5q-2 9 -1 45q2 77 -7 102q-4 11 -3 18t0.5 15t-5.5 17t-10 21q-16 32 -16 44q0 15 10 34q22 37 25.5 51.5t3 37t-0.5 45.5q-2 59 10 74q8 8 19 11t28 9q34 12 51.5 12t28 -9.5t24.5 -11t19.5 0
t9.5 2.5q12 5 20 5q13 0 19 -10t11 -16.5t16.5 -3.5t17.5 3h10q15 -2 26 1q22 7 34 -7q3 -7 14 -10t19 -8q19 -10 26 -35q14 -46 4 -95q-4 -17 -6.5 -27t-4 -17.5t-2 -14.5t-1 -17t-0.5 -22v-27q0 -31 2 -49q6 -50 -45 -72q-17 -7 -24 -13t-12 -18t-18.5 -30t-41 -28.5
t-47.5 -17.5t-25 -17q-7 -13 -3.5 -61.5t2.5 -61.5t-3 -21.5t-10 -13.5t-14 -5t-12.5 -6t-11.5 -12t-11 -11q-14 -13 -33 -13zM202 545q-6 -6 -12 -35t-6 -46t7 -30.5t6.5 -22t-2 -18t-1.5 -19.5q-2 -24 4 -30t13.5 -4.5t15.5 5.5t14.5 8.5t13 6.5t9.5 9t9 12q7 5 9.5 13.5
t5 18t-0.5 18t-11 25.5q-6 17 -4 27q8 42 -10 58q-23 14 -38.5 12t-21.5 -8z" />
    <glyph glyph-name="q" unicode="q" horiz-adv-x="492" 
d="M453 359q4 -80 -21 -161q-9 -32 -26 -61q-5 -12 -3.5 -22.5t15 -25.5t18 -26.5t4.5 -22t-2.5 -20.5t-4 -27t-2 -32.5t-11.5 -20.5q-4 -2 -7 -4.5t-7 -0.5q-5 3 -12.5 16t-11.5 15.5t-8 2t-8 -1.5q-11 -3 -19 16q-17 39 -37 37q-9 -2 -19.5 -8t-24.5 -11q-63 -24 -108 24
q-18 20 -25 35t-11.5 17.5t-9 4t-9.5 3.5q-12 5 -33 86q-6 19 -15 44t-17 49q-21 69 -22.5 100.5t0 48t4 28t4.5 20.5t1 25.5t5 31t12.5 32.5t14.5 47t24 48.5t23 29t14 16.5q15 16 32 25t32 16t30 11q36 9 56 -7q29 -19 47 -16q6 1 19 1q33 0 64 -39q20 -25 29.5 -39
t13.5 -31.5t9 -27.5t4 -26t-1.5 -35t5.5 -42.5t9 -39.5t3 -31q2 -36 -17 -51zM298 339q-2 30 2 49q21 81 -25 127q-17 17 -28 6l-11 -11q-13 -17 -23 -17.5t-15.5 -5.5t-11 -14.5t-10.5 -28.5q-11 -47 -4.5 -105t16.5 -86.5t21 -45t21.5 -23.5t15.5 -7h2q-33 72 -29 99
q6 29 56 54q13 6 23 9z" />
    <glyph glyph-name="r" unicode="r" horiz-adv-x="470" 
d="M292 719l32 2q34 0 48.5 -11t22 -20t13.5 -18.5t16.5 -19.5t10.5 -23.5t7.5 -21.5t7.5 -26t-0.5 -34.5t-3.5 -27t-3 -21t4.5 -19t1 -41t-11 -65.5t-19.5 -57q-24 -45 -78 -71q5 -12 11.5 -26.5t12.5 -29.5q13 -37 13 -53.5t1.5 -24t3.5 -11.5t5.5 -6t10.5 -7.5t11 -18.5
t4 -27q0 -32 -7.5 -39.5t-16 -10t-17.5 -3.5q-23 -3 -29 6q-8 8 -8.5 16.5t-3.5 15t-9 8t-8.5 12.5t-7 14.5t-18.5 1.5q-25 -5 -37 30q-3 8 -6 21t-7 25q-8 29 -18.5 31.5t-15.5 -2.5t-7.5 -13.5t-2.5 -19t2.5 -22.5t0.5 -20t-5.5 -13t-7.5 -9q-8 -5 -9.5 -20t-4.5 -26
q-6 -27 -16 -34t-20 -8.5t-20 0.5q-25 5 -31 17.5t-7 19t-0.5 12.5t1.5 13t0.5 16.5t-4.5 25.5t-5 38l-1 26q0 4 7 13.5t4.5 22t-11.5 16t-9 8.5t2 25t-1.5 50t-4.5 53q-4 50 -17.5 56.5t-15.5 16t0 21.5t4.5 30t5.5 36.5t5.5 34.5t3.5 22t0.5 11.5t-0.5 10.5q-2 16 0 28
q4 23 2 32.5t3.5 29t9.5 27.5t15 12t21.5 11.5t19.5 15t16 14t17 9.5q29 6 42.5 1.5t19.5 -9.5t14.5 -10t18 -7.5t17.5 -2.5q21 -2 25.5 -5.5t10.5 -3.5zM209 440l6 -91q0 -9 -1 -17.5t-2 -15.5q-1 -15 11 -18q10 -2 16 5.5t11 20.5q12 25 8 32q-8 10 -4.5 17.5t15 29.5
t17 38t2.5 34.5t-3 25.5v11q0 8 -7.5 14.5t-10.5 7t-5 0.5q-9 -2 -17 1.5t-15 3t-16 -9.5t-10 -18.5t0 -21.5q5 -36 5 -49z" />
    <glyph glyph-name="s" unicode="s" horiz-adv-x="408" 
d="M397 570q-1 -7 -14 -24t-15.5 -36.5t-1.5 -32t0 -21.5q-1 -22 -24 -30q-20 -8 -31 1t-18 23.5t-10.5 25t-11.5 11.5q-14 3 -21.5 -3t-11.5 -10q-8 -8 -16.5 -11t-13.5 -6q-10 -7 -8 -23q4 -31 69 -94q12 -12 28.5 -26t32.5 -32q36 -43 40 -97q4 -55 -16 -96
q-16 -33 -38 -43q-17 -9 -23 -23.5t-9 -21t-12.5 -11t-21.5 -3.5t-22.5 4.5t-19 8t-14 5.5t-10.5 -3.5t-10 -9.5q-15 -15 -27 -11.5t-28 11.5t-31 20q-54 42 -37 86q11 29 24.5 41t21.5 12q13 0 17.5 -9.5t7.5 -16t7 -10.5t12.5 -8t18.5 -5q25 -2 38 20t10 48q-7 47 -20 40
q-11 -7 -27 -0.5t-17 17t-4 20.5t-7 19q-9 23 -16 25q-8 2 -21.5 2t-29.5 17.5t-23 44t-12 46t-9 30.5t-7 23q-10 38 -1 98q6 35 22 61.5t36 52.5q38 51 70 71t49 4q15 -13 32.5 -10.5t27.5 5.5l18 4q17 4 34.5 -1t31.5 -34q7 -15 14.5 -26t14.5 -21q15 -24 17.5 -39.5
t7 -22.5t7 -13t1.5 -13z" />
    <glyph glyph-name="t" unicode="t" horiz-adv-x="461" 
d="M93.5 732.5q17.5 0.5 52.5 -0.5q58 -3 82 8q49 25 79 6q14 -8 27 -10t37 12q26 11 43 5t25 -15t10.5 -31.5t1 -44.5t-4.5 -41q-6 -51 -4.5 -67t4 -33t1.5 -33q-2 -39 -32 -44q-22 -3 -32 10.5t-16.5 30t-13 29.5t-18.5 9.5t-15 -26t-2 -53t4 -63t4 -55t2.5 -45.5t1.5 -43
q0 -43 -12 -59q-6 -8 -6 -19t2.5 -23t5.5 -24t3 -29q0 -40 -36 -56q-13 -6 -24 -20t-16.5 -18.5t-13 -3t-11 7t-6.5 11.5q-6 16 -17 21q-13 3 -15.5 22t-3 33.5t-2.5 35.5t-13 34t-18 16.5t-9 17t0.5 27.5t6.5 31q12 49 13 92q3 80 0 106q-4 52 -28 52q-12 -1 -17 -10.5
t-11 -22.5q-14 -33 -51 -18q-13 6 -16.5 19t-4 30.5t-1 37t-7 37t-12.5 33.5t-5 32t7.5 31t4 30t6 29.5t31 12.5t40 -1.5z" />
    <glyph glyph-name="u" unicode="u" horiz-adv-x="501" 
d="M210 587l-5 -227q0 -151 42 -143q36 6 33 127q0 36 5.5 46.5t7.5 17.5q5 20 2 53q-2 21 -7 63t-9 86.5t-4 80.5t7.5 45t19 10.5t24 0t24 -4.5t19 -3t18 2.5t21 4t20 1.5t17.5 -7t13.5 -35t8 -66t2.5 -81.5t-1 -82.5q-4 -86 -7.5 -104t-8.5 -26t-10 -15q-10 -14 -3 -40
t11 -40q7 -25 1 -45t-4 -39q5 -51 -12 -73q-8 -11 -25 -21q-34 -19 -50 -46q-8 -16 -19 -19q-6 -2 -18 -0.5t-26 3t-27 3t-18 0t-9 -6t-9 -9.5q-27 -27 -56 6q-6 7 -11.5 13.5t-10.5 10t-13.5 7t-18.5 10.5q-43 26 -54 84q-6 28 -10 72.5t-6.5 56.5t-12.5 26.5t-13 27
t-1 26.5t5 32q8 48 4 84t-1.5 56t0.5 25.5t-6.5 10.5t-2.5 21t2 31v31q3 68 21 82q15 11 31 12q25 1 37.5 9t20.5 13q50 28 62 -40q8 -42 10 -117z" />
    <glyph glyph-name="v" unicode="v" horiz-adv-x="464" 
d="M189 660q19 -23 17 -75q0 -27 6 -43l10 -26q7 -18 12 -70q1 -20 12 -20q7 0 8 26q2 52 10 81t11.5 50.5t5.5 42t3.5 38t5 36t15 32.5t36.5 13t34 -2.5t14.5 -3t9 -3t10.5 -1.5t15.5 1t13 -0.5t9.5 -5.5t9 -14q11 -24 7.5 -57t-8 -43.5t-9 -16.5t-9.5 -10.5t-9 -14.5
t-6 -28t-4 -39q-7 -75 -22 -100q-3 -6 -8 -12q-23 -31 -28.5 -53.5t-7.5 -36.5q-15 -80 -30 -129q-18 -56 -20 -68q-6 -42 -30 -60q-12 -9 -22.5 -35t-16.5 -36.5t-17 -8.5t-15 14q-10 33 -22 46.5t-21 37.5t-12.5 44.5t-5.5 41.5q-7 57 -12 78q-12 50 -25 62q-8 9 -15 14.5
t-12 10.5q-11 11 -10.5 29.5t3.5 50t-6.5 61.5t-12 46.5t-6.5 33.5q-8 37 -28 74q-36 65 -11 103q14 22 47 22h23q11 0 21 9q14 12 42 -2q4 -1 9.5 -0.5t11.5 -1.5q30 -10 30 -82z" />
    <glyph glyph-name="w" unicode="w" horiz-adv-x="650" 
d="M424 411l-1 67q1 24 5 35t5.5 22.5t3 24t3.5 24.5q5 28 14 30t11 22q5 33 -2 53q-8 24 1 37q17 26 56 8q28 -12 40 -12t21.5 2.5t27 7t28 -13t9 -34.5t-3.5 -31.5t-4 -30.5q-7 -40 -11.5 -52.5t-6.5 -26t-4 -28.5q-4 -44 -9 -63q-26 -98 -26 -119t-2 -26t-5 -10t-8 -12.5
t-11 -23.5q-8 -21 -7 -38q2 -35 -5 -54t-14.5 -38.5t-14.5 -38.5q-17 -42 -21 -66t-15.5 -36.5t-24 -7.5t-16 12t-6.5 14q-9 20 -22 24q-20 8 -29.5 28.5t-11 49.5t-3.5 52t-5 42q-9 47 -19 47q-6 0 -9 -10.5t-6 -26.5q-9 -45 -19.5 -62t-13.5 -30t-4.5 -25t-2.5 -23.5
t-5.5 -23.5t-10.5 -24.5t-15 -21.5q-21 -19 -48 -2q-17 11 -38 17.5t-28 11t-12.5 16.5t-8 33.5t-6.5 49.5q-12 80 -28 129q-13 40 -26 109.5t-17.5 91t-8.5 22.5q-7 1 -12 20q-7 33 -4 50t1.5 31.5t-4.5 29.5t-6.5 29t-6.5 30q-9 38 16 55q36 22 60 4q11 8 30 -2
q11 11 27.5 18t29.5 2.5t20 -15t11 -25.5q6 -21 9.5 -56.5t3.5 -50.5v-30q0 -36 6.5 -78t6 -65.5t1.5 -33t4 -16.5t5 -13q7 -11 17 -8q6 3 6 9.5t-1.5 16.5t-3.5 22t-1 24.5t2.5 31t2.5 38.5q5 57 9 81.5t6 38t5 29.5q17 13 26 36q-4 5 -4 9l7 29q1 11 10 19.5t17 6.5t12 -5
t8 -11q6 -15 7.5 -49t3 -48t2.5 -24.5t2 -20t1 -29t-1 -38.5t8 -38t10 -25.5t0 -13t-2.5 -15t-1.5 -25.5q0 -31 15 -45q23 -21 28 16q2 15 2 33z" />
    <glyph glyph-name="x" unicode="x" horiz-adv-x="473" 
d="M473 648.5q-11 -25.5 -25 -54t-22 -60.5t-12 -45q-7 -18 -26 -46.5t-27 -42.5q-17 -29 -21 -53q3 -12 10 -31.5t14 -43.5q17 -57 17 -97q21 -41 20 -60.5t-4 -33.5q11 -26 14 -44t-13 -36.5t-29 -14t-16 21.5q-4 17 -12 17.5t-15.5 0t-20 7t-17.5 28t-10.5 43.5t-11.5 46
q-15 55 -25 55q-6 1 -8 -6t-4 -18q-8 -47 -35 -79q-17 -23 -20.5 -31.5t-5 -23.5t-16.5 -28.5t-30 -15t-20 -1.5h-8q-5 -1 -14 -6t-18 -5t-20 13t-13.5 18.5t-1.5 11t5 12.5q30 53 44.5 119.5t28.5 97t15.5 47.5t3.5 33q4 25 -7.5 54.5t-22 36.5t-13.5 12.5t-5 12.5t-3 15
q-2 19 -17 57q-17 43 -39 87q-27 54 -27 84q0 25 22 28q11 2 22.5 1.5l23 -1t20 3.5t19 8t21.5 6q25 5 36.5 -5.5t18 -30.5t12 -44.5t11 -50t12.5 -47.5q16 -48 40 -46q12 1 16 16.5t6 37.5q6 60 28 86q22 25 25 41t5 23t10.5 13.5t17.5 6.5t18 -3t16 -8t12 -8q77 18 88 -1
q7 -12 0.5 -33t-17.5 -46.5z" />
    <glyph glyph-name="y" unicode="y" horiz-adv-x="442" 
d="M435 740q13 0 30 -21q8 -12 8 -29q0 -33 -23 -57.5t-31 -40.5t-8.5 -32t-3.5 -27t-9 -21q-13 -23 -37 -29q-5 -23 -18.5 -40t-17 -24t-5.5 -13q-5 -13 -12 -23q-6 -121 -4 -173q2 -82 -29 -117q-11 -15 -15 -47.5t-8 -45t-16 -14t-20.5 3.5t-14 13t-10 17t-15 19t-10 32
t2 40t-3 29t-10.5 21t-12 19q-12 19 -9.5 41.5t4.5 38.5q7 41 6 53q-4 28 2 62q-8 14 -12 29q-7 26 -22 31q-30 9 -42 49q-9 31 -4.5 40t5.5 12q3 8 -33 39q-18 15 -25.5 37t-16 36.5t-16.5 27.5q-16 28 -8 48q8 14 30 17.5t44 -4t37 -8.5t28.5 -0.5t24 1t16.5 -0.5
q4 -9 12.5 -17t12 -22t4 -37t10 -39t12 -29t4 -25t3.5 -20.5t9 -9.5q7 -2 10 8t6 25q9 45 20 60q13 17 17.5 46t7.5 42t13 21.5t31 5.5t46 -6.5t41 2.5t24 6z" />
    <glyph glyph-name="z" unicode="z" horiz-adv-x="401" 
d="M39.5 87q1.5 20 0.5 32.5t-7 26.5q34 42 52 76.5t19 40.5t0 13.5t0 16.5q1 24 10.5 36.5t18 21t17.5 19.5q21 26 35 57q20 39 32.5 59.5t6.5 27t-11.5 5.5t-12.5 -3q-25 -4 -43 1t-26.5 0t-16.5 -12q-21 -18 -46 -12.5t-30.5 18t-5.5 28.5t2 33q4 26 -4 48t-11.5 36
t-3.5 27.5t8 27.5q22 45 107 25q13 -3 22 -6t17 -4q19 -4 34.5 2t21 7t10.5 1q16 -2 27.5 0t20 1.5t15.5 -1.5q16 -4 31 -3q20 1 41 -17q9 -12 7.5 -30.5t1.5 -36t2 -25.5t-3 -16q-4 -26 -4 -43t1.5 -26.5t2.5 -16.5q4 -16 2 -36q-8 -38 -66 -124q9 -37 -16 -54
q-10 -8 -30 -14q0 -17 -24 -51.5t-29.5 -53.5t-5.5 -36q12 0 17.5 -3.5t23 -4.5t37 0t39 12.5t32.5 2.5t6 -29t-7 -44t3 -43q10 -36 -15 -43q-7 -3 -16.5 -1.5t-19.5 2.5q-28 5 -41.5 0t-26.5 -4.5t-24 2.5q-34 6 -47 3t-24.5 -8t-23.5 -9q-30 -8 -50.5 0.5t-26 25t-6.5 36
t0.5 39.5z" />
    <glyph glyph-name="braceleft" unicode="{" horiz-adv-x="266" 
d="M193 72q26 -39 48 -39q6 0 10 -7.5t-1 -22.5q-7 -21 -32 -25q-28 -5 -44.5 -2t-23.5 12t-7 15.5t-7 10.5t-13 11t-11 17q-14 23 -12.5 40.5t2 24t1.5 11.5t1 10l2 15q3 20 4 38.5t6 35.5t3.5 23.5t-3.5 17t-8 21t-9.5 19t-9.5 10.5t-16 10t-20.5 9t-18 5t-10.5 11t-4 16
q-1 20 7 31t11.5 10t11 4t8.5 8l2 6q1 6 10 9q13 4 28 45q9 23 5 52q-7 49 -16 55q4 16 5 35.5t7 30t7 18t1 15.5q0 18 9 24q6 4 10.5 12.5t9.5 17.5q12 22 28 28t21.5 11t10.5 8q9 6 30 0q14 11 20.5 4.5t8 -14t2 -14t-3.5 -13.5q-7 -11 -26.5 -25t-28.5 -23.5t-5.5 -23.5
t-0.5 -20.5t-11.5 -17t-9 -17t-1.5 -12.5v-12t-2 -12.5t-1.5 -26.5t1.5 -44q5 -65 2.5 -72t-5.5 -9.5t-8 -12.5q-12 -26 -34 -48l13 -14q7 -6 15 -11q16 -10 21 -22t7.5 -16t4.5 -9q13 -32 4 -100q12 -39 0 -73q-8 -30 5 -49z" />
    <glyph glyph-name="bar" unicode="|" horiz-adv-x="163" 
d="M59 750.5q3 3.5 15 5.5q20 4 28 -4t15 -11.5t11 -13.5t3 -19t3 -22q6 -18 0.5 -62t-5.5 -70t-2.5 -38.5t-1.5 -34t6.5 -35t2 -34.5t-2 -40.5t2.5 -30t1 -21.5q0 -21 -8 -57q-4 -18 -4 -29t1 -19q3 -24 0.5 -44.5t1.5 -32t-0.5 -18t0 -15.5t2 -19t-1 -13.5t3.5 -8.5
q8 -24 -15 -60q-10 -15 -24.5 -15.5t-26 1.5t-20.5 9q-22 17 -18 59q2 30 7 56l5 34q2 9 2 23t0.5 28.5t-1 29t-1.5 28v27.5q-2 34 -5 47t-1 25t5 23q8 31 5.5 45t-2 24.5t3.5 19.5q6 22 4.5 35.5t-3 38.5t-3 38.5t-3 18.5t-2.5 9q-3 12 -1 22.5t1.5 17t-1.5 12.5
q-1 12 3.5 29t6 30t6 20.5t7.5 11z" />
    <glyph glyph-name="braceright" unicode="}" horiz-adv-x="266" 
d="M84 688q-25 39 -48 39q-7 0 -9 6q-5 8 0 23.5t12.5 19t17.5 6t21 2.5q27 2 36 -9.5t8.5 -18t6 -11t13 -11t12.5 -16.5q14 -24 12.5 -41t-2 -23.5t-1.5 -11.5t-1.5 -10.5t-2 -20.5t2.5 -33t-0.5 -35t-3.5 -23.5t3.5 -17t7.5 -21t8.5 -19t10 -11t16.5 -10.5t20.5 -8.5
t18 -4.5t10.5 -11t3 -16q2 -23 -6 -33t-11.5 -9t-11.5 -3.5t-9 -7.5l-2 -6q-1 -7 -8 -9q-17 -6 -30 -45q-7 -24 -6.5 -49t3.5 -33v-24q0 -54 -10 -69q-4 -7 -4.5 -15t-0.5 -16q-2 -20 -9 -25q-6 -4 -9 -12t-6 -17q-10 -24 -27 -30q-12 -5 -17.5 -9.5t-9.5 -7.5q-10 -7 -32 0
q-26 -20 -30 23q0 13 11.5 23.5t24.5 19.5q33 21 28 43q-2 14 1.5 20.5t11 17t8 21t-0.5 22t-2 21.5t1.5 16.5t2.5 22.5v35q-2 59 6 68q3 2 8 12q16 31 34 48q-8 6 -14 13t-14 12q-14 9 -20 21t-8.5 16.5t-5.5 9.5q-14 28 -4 100q-5 16 -5 34.5t6.5 43.5t-5.5 44z" />
    <glyph glyph-name="asciitilde" unicode="~" horiz-adv-x="414" 
d="M276 379q12 13 30 11q26 30 72 17q20 -6 24 -20t-2 -23t-10.5 -15.5t-15 -11.5t-29 -10t-30 -10.5t-15 -8.5t-8.5 -4q-12 -5 -33 0q-14 3 -22 3.5t-13 1.5q-11 2 -25 16q-52 49 -95 5q-4 -3 -9 -4q-7 -2 -16 -10q-15 -15 -22 -13q-4 1 -10 2t-13 3q-15 5 -17 13t-6 17
t1 19.5t10.5 12.5t13 10t18.5 13.5t18 10.5t14.5 9.5t15.5 8.5q19 9 24 8t14 -7q13 10 28 3.5t23.5 -8t16.5 -8.5q34 -25 43.5 -25.5t24.5 -5.5z" />
    <glyph glyph-name="uni00A0" unicode="&#xa0;" horiz-adv-x="241" 
 />
    <glyph glyph-name="exclamdown" unicode="&#xa1;" horiz-adv-x="207" 
d="M47 418l2 71q0 69 29 92q18 13 33 10.5t23 -10.5q7 -9 7.5 -21t5.5 -34.5t11.5 -45t4.5 -48.5t-2.5 -49t8.5 -34q12 -15 12 -34q0 -12 -3 -21q-10 -26 -10 -46t1 -29q3 -24 5.5 -42.5t0.5 -41t0 -45.5t2.5 -37t-5 -29t-8 -20.5t-5.5 -9.5q-4 -5 -15 -11t-15 -9t-11 -1.5
t-15 10t-19 13.5t-25.5 12t-17 22.5t-3.5 18.5t-2 5q-3 4 -5 26.5t3.5 45t6 37.5t5.5 30.5t3.5 32t-0.5 24.5t2.5 14.5t1.5 13.5t-3.5 22t-3 26.5t-1 25t0 27t1.5 39.5zM173.5 693q-1.5 -8 -11 -16.5t-19.5 -16t-22 -12.5q-25 -12 -47.5 -9.5t-29.5 8.5t-12 14
q-9 18 -6 29.5t10 20t16 15.5q18 12 33 15q7 1 14 6q11 8 22.5 5.5t15.5 -12t12 -12.5t14 -8t9 -12t1.5 -15z" />
    <glyph glyph-name="cent" unicode="&#xa2;" horiz-adv-x="375" 
d="M262 580q26 3 44 -6.5t23 -17.5t17 -25.5t16.5 -32t-1 -23.5t-10.5 -20.5t-11 -18t-23 -8.5t-23 7t-7 15q-3 14 -17 18q-8 2 -10.5 4t-7.5 4h-4q-14 -86 -8 -121q5 -33 -5 -64q-15 -47 -22 -86q6 2 16.5 5t12.5 6.5t6 5t8.5 6t9.5 8.5q12 12 25 10.5t18 -8t8 -14.5
q7 -19 4 -27q-5 -5 -10.5 -14.5t-11 -11.5t-9 -8t-9 -6t-10.5 -5.5t-10 -4.5q-7 1 -63 -11q-3 -10 -5.5 -30.5t-5.5 -41.5q-8 -55 -16 -64t-15.5 -9t-15.5 3q-18 9 -20 20q-4 18 -1 29q9 4 11.5 13t1.5 26.5t-1 33.5t1 28q-2 2 -3.5 4t-6.5 8t-13 11.5t-13 13.5
q-23 3 -42 31q-13 19 -15.5 34.5t-6 23.5t-6 19.5t-5.5 19t-6 17.5q-11 34 -1 95q7 45 28 72q12 12 25 22t17 15t5 12.5t4.5 10.5t8.5 5q12 6 16 14q8 18 55 16q11 -1 16 -2q11 32 11.5 69t7 55t15 28t18 8.5t12.5 -6t10.5 -6.5t13.5 -15t1.5 -33t-6 -44.5t-5.5 -33.5
q-5 -10 -5 -28zM91 318q12 -62 27 -69q6 -3 10 -7l3 -5q1 7 1.5 14.5t2.5 17t4 14t5 8.5q6 10 11 66t9 80t5 33.5t3 17.5q-16 -6 -36 -27.5t-26.5 -25t-9 -10.5t3.5 -13.5t6 -17.5t-10 -24q-12 -17 -9 -52z" />
    <glyph glyph-name="sterling" unicode="&#xa3;" horiz-adv-x="381" 
d="M73 541q-5 3 -5 11q-2 28 7.5 42t15 28t14.5 19q6 3 9 6q5 7 13.5 8.5t15 8.5t17.5 10.5t22.5 10t25.5 2.5q6 4 16 3.5t13 -5.5q3 9 17.5 2.5t20.5 -6t14 -7.5q11 0 13 -8q17 -6 32 -38q14 -28 12 -41t1 -15t9 -10q21 -26 12 -38q-3 -5 -1.5 -8.5t-0.5 -8.5t-6 -10
q-12 -13 -23 -11q-5 -8 -21.5 -13.5t-32 -0.5t-18.5 9.5t-4 9.5l-2 10t-8 9.5t-10 8.5t-5 7q-3 7 -12 9.5t-16 -1t-14 -6.5q-4 -10 -9.5 -17t-5.5 -13.5t2 -16t-1 -19t0.5 -29t5.5 -33.5t3 -15q30 -2 53 0t34 2q30 -3 27 -40q-3 -30 -39 -25q-10 2 -20 6q-17 6 -49 -3
q0 -21 -4.5 -37t-3 -20t-2 -9t-4.5 -16t-10 -15q-1 -12 -8.5 -26.5t-16.5 -16.5q-1 -5 -1 -15.5t10 -9.5q24 0 42 7t23 11q6 8 29 13t49.5 0t38 -14.5t5.5 -19.5q2 -11 7 -29t2.5 -25t-7.5 -16t-13 -17q-20 -22 -43 -17q-13 3 -23 15t-16 17t-18 4.5t-24.5 -7t-22.5 -13.5
q-28 -18 -36 -17q-7 1 -12.5 4t-12.5 4q-16 1 -43 -11q-17 1 -29 19.5t-14 39.5t-5 29.5t-5 14.5q-8 26 9 42q8 7 17 14q36 30 36 58q0 3 -0.5 7t1 13t3.5 15t0.5 13t-1.5 10q-54 -12 -77 -6q-19 8 -24 30q-4 21 10 33q6 6 12 5.5t14.5 -2t22 -1.5t35.5 7q-5 20 -5 33.5
t-2 20t-5 12.5q-27 55 0 85z" />
    <glyph glyph-name="currency" unicode="&#xa4;" horiz-adv-x="348" 
d="M287 500q18 18 29 17q28 -4 20 -28q-2 -6 -6 -9l-8 -6q-12 -9 -17.5 -23.5t-9.5 -21.5q14 -27 9.5 -46.5t-2 -27t-6.5 -14.5q-3 -13 -2.5 -18.5t-6.5 -17.5q23 -28 34.5 -36.5t15.5 -16t-2 -17t-20 -13.5q-22 -5 -39 27q-3 5 -5 5.5t-9 2.5q-36 -28 -71 -31
q-63 -5 -85 10q-7 6 -13 11q-24 -19 -31.5 -32t-15 -14.5t-19.5 1t-15 9t-1 20.5t7 17q25 17 35 36q-5 7 -6 8.5t0 10.5t-2.5 14t-2 14t-1 14.5t-5.5 11.5q-6 16 -2 32q10 42 18.5 51t4.5 20q-5 5 -11.5 10t-13.5 18.5t-6.5 20t5.5 15t12.5 5t12.5 -3.5q16 0 26 -19
q3 -7 10 -11t12 -7q18 6 37 17.5t37.5 11.5t26.5 -0.5t17 -8.5t13.5 -7.5t9.5 -5.5t6.5 -7.5t2.5 -3.5q3 -2 8 -12l13 13q7 7 12 15zM200 431q-5 15 -21 12.5t-28.5 -12t-14.5 -12.5t-3.5 -6t-2.5 -7t-7 -13q-7 -11 -9 -31t1.5 -25.5t7.5 -13t10.5 -9.5t11 -6.5t8 -4.5
t10 -4t14.5 -3.5t12.5 0.5t7.5 3.5t8 5.5t4.5 5t6.5 6.5t7 8.5t3 13q10 19 4 35t-8 23.5t-8.5 12.5t-8.5 10t-5 12z" />
    <glyph glyph-name="yen" unicode="&#xa5;" horiz-adv-x="395" 
d="M200 482q22 22 22 39q2 40 15 57.5t15 24.5t2 16t7 20t6 21t2 16.5t5 14.5q3 8 14.5 11.5t21.5 -1.5q12 -6 30 -1.5t32 0.5q23 -6 16 -40q-3 -16 -17.5 -38.5t-20 -47t-15 -38t-15 -30.5t-12.5 -38q-18 -55 -42 -80q84 24 98 10q4 -3 3 -9t0 -8t8 -3q-3 -5 -3 -11.5
t2 -8.5q-13 -8 -30 -9t-39.5 0t-45.5 -7q0 -36 -2 -76q8 -1 17.5 -3t29.5 -1t34 1t22.5 -8.5t3 -23t-16.5 -19t-19 -2.5t-16 1t-13.5 0.5t-10 0.5t-9 0.5t-9.5 2.5q-10 2 -17 -9q0 -16 3 -36q5 -45 -6 -60q-5 -9 -5.5 -16t-2 -14t-3.5 -14.5t-7 -14.5q-10 -17 -28 -16.5
t-25 5.5t-10.5 11t-4.5 11.5t-4 8t-4 9t-0.5 15t1.5 17.5t0 16q0 7 -4 13t-7 11q-11 16 -9 26q3 14 3 24q-7 12 -20 10t-17.5 -1t-9 -6.5t-19.5 -11.5t-25.5 1t-17 11t-5.5 20.5t14 26t32.5 12t27.5 -0.5t15 -1q14 -2 30 2q2 22 2 41.5t-2 36.5q-54 16 -73 2q-36 -25 -50 -4
q-19 28 -2 47q10 11 27 16t36 -7q10 8 39 6h4q-8 13 -14.5 23.5t-7.5 18.5q-5 25 -15 25q0 8 -3.5 11.5t-4.5 14.5t-9 17.5t-11 21.5q-4 23 -15 40.5t-17 28t-11 22.5q-12 29 -5 46q6 16 31 19q10 2 19.5 3t18.5 6t15.5 1t22.5 -8q41 -10 39 -68q-2 -42 8 -60q13 -25 16 -37
q6 -24 10 -30q5 -8 7 -15z" />
    <glyph glyph-name="brokenbar" unicode="&#xa6;" horiz-adv-x="160" 
d="M43 736q1 5 10.5 12.5t30 6.5t27.5 -10t11 -12t6 -6q5 -7 0 -24q-4 -13 0 -19q6 -12 4 -36.5t-2 -40.5t2 -32.5t1 -28.5t-11 -30t-10 -27.5t2.5 -17.5t5.5 -17q12 -28 -14 -38q-35 -15 -64 7q-15 11 -15 33t4 46.5t8 49.5q12 76 -1 132q-3 13 5 52zM36 194q-1 12 -3 28.5
t-2 32.5q0 38 14 50q20 15 34 16t19 -3q22 -14 25 -28t1.5 -27t-3.5 -28q-6 -43 -1.5 -72t8 -51.5t3 -35t-3.5 -26t-9 -26.5q-14 -32 -36 -35t-34.5 7t-17.5 28q-11 39 5 85q12 37 9.5 48.5t-5 18t-3.5 18.5z" />
    <glyph glyph-name="section" unicode="&#xa7;" horiz-adv-x="366" 
d="M270 230q16 -35 36 -63q39 -54 -7 -103q-6 -7 -11 -12q-2 -32 -25 -58q-10 -12 -18 -23t-19 -17q-23 -15 -62 -5q-14 -8 -21 -7.5t-14.5 -5.5t-17.5 -8.5t-14.5 -5t-18 1.5t-24.5 6q-11 3 -17 23.5t-6.5 45t6.5 45.5t23 23q45 7 63 16q40 22 37 59q-5 44 -40 51
q-9 2 -19.5 3t-18 8.5t-12.5 17.5t-9.5 19.5t-14 17t-19 23t-4.5 34t4.5 36.5t6.5 30.5t9.5 27.5t14.5 22t14 17t4 17q-16 26 -29 31q-9 4 -13.5 20.5t-7 26t-6.5 15.5q-13 23 6 76q3 9 3 17v14q0 16 6 23q4 5 8 13t9 16q10 17 25.5 15t35.5 9.5t34 20t29 16t28 6.5
t20.5 0.5t14 3t13 1.5t12.5 -4q5 -2 8 -10.5t16 -26.5t23.5 -41t-4.5 -40q-24 -27 -43 -20q-8 3 -14.5 7t-12.5 1.5t-9 -7.5l-5 -11q-7 -15 -14 -15q-5 0 -13 1t-16 0q-22 -2 -31 -23t0.5 -41.5t41.5 -37t38 -21.5t8 -8q3 -4 23 -8q25 -5 32 -10.5t11 -9.5t11 -7
q20 -11 33.5 -39t12.5 -63t-14 -53.5t-21 -23.5q-5 -14 -20 -28.5t-35 -20.5zM224.5 337q-2.5 12 -18.5 18q-25 9 -46 30q-11 -5 -18.5 -17t-6 -25.5t10.5 -25.5t20 -23q25 -23 36 -22.5t13 10t7 26.5t2.5 29z" />
    <glyph glyph-name="dieresis" unicode="&#xa8;" 
d="M100 736q15 16 27.5 16.5t23 -3t19.5 -10.5q23 -18 21 -44q0 -27 -23 -44q-19 -15 -39 -10t-34 19t-12 37t17 39zM349 651.5q-14 -10.5 -34 -12t-28.5 10t-9 11.5t-5.5 5t-5 15.5t-3.5 15t3.5 17t12 16t9.5 8t11.5 8.5q42 22 68 -23q4 -6 9.5 -12t6.5 -20t-10 -21.5
t-25 -18z" />
    <glyph glyph-name="copyright" unicode="&#xa9;" horiz-adv-x="513" 
d="M497 500l-4 -48q0 -13 -4.5 -28t-4.5 -29t-14 -25q-9 -9 -12 -14q-5 -8 -11 -10.5t-10.5 -8.5t-15.5 -9t-15.5 -13t-7.5 -14t-5.5 -11t-6.5 -15q-9 -21 -16 -23.5t-11.5 -7t-10.5 -8.5q-12 -7 -34 -1t-36 4.5t-26.5 0.5t-18.5 -0.5t-11 -5.5q-26 -17 -56 13q-21 2 -34 9
q-16 8 -46 38q-14 11 -17 19q-6 13 -14 21t-11 22q-7 33 -16.5 47.5t-9.5 33.5t-5 35t-3.5 27.5t3 22.5t4.5 22q7 27 20 40q22 21 29 32q18 41 30.5 53.5t25 23.5t28.5 21q38 26 74 22q12 12 32.5 12.5t30.5 -9.5t17.5 -11t15 0l15 2t18.5 -1.5t27 -12t22 -23.5t12 -20
t12 -13q19 -22 24.5 -36t9 -19t6.5 -10q8 -11 13 -28q4 -15 9 -21q7 -9 7 -22zM131 628.5q-2 -2.5 -10.5 -10.5t-13 -22t-8 -24.5t-7 -19t-6.5 -16.5q-9 -21 -8 -30t-1 -25.5t2.5 -28.5t1.5 -25.5t5.5 -22.5t11.5 -16.5t5 -15.5q5 -19 15 -28t15.5 -22.5t16.5 -16.5t20 -10
t30.5 -9.5t33.5 1t31 -1.5t31 -3t23 12.5t22 19t23 18.5q33 26 40 35q14 14 18 33.5t6 32t4 18t4 11.5q3 11 1 30q-1 11 -1 16t1 9.5t3 10.5q6 22 -2.5 36t-19.5 25t-22.5 21.5t-21.5 22.5t-26.5 18t-30 12t-22.5 13t-23.5 9t-25 1t-30 -9.5t-30 -9.5t-18.5 -7.5t-17.5 -8
t-12 -6.5t-3 -7.5t-1.5 -4.5t-3 -4.5zM270 618l22 -6h7q6 0 18 -3q31 -8 37 -35q3 -8 1 -14q-4 -13 -2.5 -22t-3.5 -20.5t-10.5 -13t-12 -2t-14.5 -0.5q-22 0 -32 6t-10 11q-5 26 -21 29q-11 1 -20 -12.5t-8 -26.5t-0.5 -19t-3.5 -12q-6 -15 -3 -33q6 -36 26 -47
q31 -15 60 4l16 12q19 14 26 14q15 0 19 -8t5.5 -17t0.5 -17q-2 -21 -19 -21q-18 1 -24.5 -5.5t-12.5 -9.5t-10.5 -6.5t-12.5 -5.5q-18 -5 -42.5 0t-37.5 14.5t-26 20.5q-22 -5 -36 17q-8 15 -12.5 30.5t2.5 33.5t8 26.5t1 15.5v14t3 15.5t3.5 16.5t2.5 14q3 17 12 20
t8.5 7.5t6.5 7t11.5 7t10.5 8.5q15 12 44 10z" />
    <glyph glyph-name="ordfeminine" unicode="&#xaa;" horiz-adv-x="304" 
d="M279 306.5q-4 -6.5 -15 -12.5t-17.5 -0.5t-19.5 23.5q-88 -58 -137.5 -44.5t-70 47.5t-0.5 76q16 33 74 46q22 5 41.5 6t28.5 4t14.5 13.5t4.5 21.5t-8.5 20t-19.5 9.5t-16 -4t-7 -10.5l-6 -12t-9.5 -9t-21 -5.5t-30.5 -0.5q-58 7 -51 61q4 34 35 64q16 15 42 23.5
t45.5 15t34.5 9.5q52 8 88 -44q15 -21 17.5 -36t3 -30.5t0.5 -34.5v-42q0 -23 1.5 -54.5t3 -51t0.5 -31t-5 -18zM138.5 414.5q-17.5 -4.5 -22 -12.5t-3 -16t6.5 -16q11 -19 23 -19q16 0 30 9q28 16 26 27.5t-13 20.5t-20.5 10t-27 -3.5z" />
    <glyph glyph-name="guillemotleft" unicode="&#xab;" horiz-adv-x="390" 
d="M368 422q22 2 22 -22q1 -5 -7 -16.5t-7 -19.5q-16 -20 -27 -34.5t-19 -23.5l-15 -18q-7 -9 -17.5 -21t-19.5 -25q-23 -29 -22.5 -41t6 -25t12.5 -26q16 -24 28.5 -37.5t12.5 -20t8.5 -12.5t21.5 -21.5t15.5 -32t1 -19.5t-1.5 -9.5t-9.5 -9.5t-16 5.5t-14.5 16.5l-15 15
q-25 18 -52 63q-8 12 -28.5 31t-32.5 37.5t-20 27.5t-6.5 25t18 30.5t29 25.5t23.5 28t27 33q17 14 38 31.5t38 40.5t29 24zM227 377q-7 -4 -9 -11.5t-10.5 -11.5t-9 -9t-9.5 -12q-26 -21 -29 -31q-2 -8 -11 -14.5t-19 -15.5q-16 -13 -26 -32t-15 -28t2.5 -18t10 -21
t12.5 -19.5t13 -11t6 -7.5q7 -9 19.5 -19.5t18 -16t8.5 -10.5t5.5 -10.5t6.5 -13t13 -16.5t18 -19q22 -23 15 -32.5t-16.5 -10.5t-20.5 3q-25 7 -35 22.5t-18.5 23t-16.5 13.5q-21 16 -22 21q-5 9 -7.5 16.5t-16.5 14t-33.5 23.5t-28 33t-12.5 22t-5 12q-1 9 6 31
q2 6 9.5 14t16 23t12 19.5t7 7.5t8 5.5t15 14.5t28 27t28.5 26t20.5 17t16.5 19q9 18 33 27q2 0 6 2.5t9 3.5q11 4 16 -4q9 -16 3.5 -29.5t-12.5 -17.5z" />
    <glyph glyph-name="logicalnot" unicode="&#xac;" horiz-adv-x="677" 
d="M372 409l66 6q22 0 35 -1.5t42 -0.5t43 -7.5t19.5 -8.5t11 1.5l11 3t11.5 1.5q11 0 19 -17q2 -4 10 -6.5t10.5 -8.5t7.5 -11.5t8.5 -18.5t-1.5 -18.5t-4.5 -7.5t0.5 -5q0 -8 -7.5 -18.5t-9 -15.5t-1.5 -9v-8t-2 -10.5t-2.5 -11.5t0.5 -10.5t3 -12.5l3 -18q4 -21 -1 -28
t-13 -17t-19.5 -9.5t-22.5 1.5q-29 3 -41 63q-6 27 1 52t9.5 35t-1.5 17q-8 15 -24 15t-29 -3.5t-18.5 -3t-11.5 1.5q-17 3 -34 1t-26.5 1.5t-21 1.5t-18.5 0.5t-16 -0.5t-16 -3h-30t-22.5 -2.5t-14.5 -2t-9 1.5q-10 4 -23 1t-18.5 -2t-9.5 3q-9 5 -22.5 3t-21.5 -0.5
t-15 3.5t-14 2t-16 -5.5t-15 -6t-11 1.5q-13 4 -30 -1q-32 -8 -42 12q-13 2 -16 35q0 7 -2 10q2 2 10 12.5t13.5 15t14 6.5t17 1.5t16.5 -1.5t16.5 1.5t15 3.5t12.5 1t12.5 -2t14 -5t14.5 -2.5t16 1.5q22 2 39 -3t20.5 -4t6.5 4q7 7 20 8t17.5 -0.5t6.5 -2.5q7 -4 17 -1
t19 3z" />
    <glyph glyph-name="sfthyphen" unicode="&#xad;" horiz-adv-x="399" 
d="M14 309q-19 19 -2 51q20 40 68 29q34 -8 57.5 -3.5t30.5 0.5t12.5 -3t13.5 3q24 6 52 6q19 0 37.5 1.5t34.5 2.5q39 2 53 -4q20 -12 22 -30q4 -34 -18 -47t-36.5 -11.5t-26 7.5t-20 13t-14 7t-9.5 -3t-9 -7q-13 -9 -32 -9t-25 -1.5t-11 -4.5q-11 -5 -28 -5h-31
q-18 0 -46 1.5t-44.5 -0.5t-28.5 7z" />
    <glyph glyph-name="registered" unicode="&#xae;" horiz-adv-x="513" 
d="M497 500l-4 -48q0 -13 -4.5 -28t-4.5 -29t-14 -25q-9 -9 -12 -14q-5 -8 -11 -10.5t-10.5 -8.5t-15.5 -9t-15.5 -13t-7.5 -14t-5.5 -11t-6.5 -15q-9 -21 -16 -23.5t-11.5 -7t-10.5 -8.5q-12 -7 -34 -1t-36 4.5t-26.5 0.5t-18.5 -0.5t-11 -5.5q-26 -17 -56 13q-21 2 -34 9
q-16 8 -46 38q-14 11 -17 19q-6 13 -14 21t-11 22q-7 33 -16.5 47.5t-9.5 33.5t-5 35t-3.5 27.5t3 22.5t4.5 22q7 27 20 40q22 21 29 32q18 41 30.5 53.5t25 23.5t28.5 21q38 26 74 22q12 12 32.5 12.5t30.5 -9.5t17.5 -11t15 0l15 2t18.5 -1.5t27 -12t22 -23.5t12 -20
t12 -13q19 -22 24.5 -36t9 -19t6.5 -10q8 -11 13 -28q4 -15 9 -21q7 -9 7 -22zM131 628.5q-2 -2.5 -10.5 -10.5t-13 -22t-8 -24.5t-7 -19t-6.5 -16.5q-9 -21 -8 -30t-1 -25.5t2.5 -28.5t1.5 -25.5t5.5 -22.5t11.5 -16.5t5 -15.5q5 -19 15 -28t15.5 -22.5t16.5 -16.5t20 -10
t30.5 -9.5t33.5 1t31 -1.5t31 -3t23 12.5t22 19t23 18.5q33 26 40 35q14 14 18 33.5t6 32t4 18t4 11.5q3 11 1 30q-1 11 -1 16t1 9.5t3 10.5q6 22 -2.5 36t-19.5 25t-22.5 21.5t-21.5 22.5t-26.5 18t-30 12t-22.5 13t-23.5 9t-25 1t-30 -9.5t-30 -9.5t-18.5 -7.5t-17.5 -8
t-12 -6.5t-3 -7.5t-1.5 -4.5t-3 -4.5zM168 605q19 32 58 16q14 -5 27 -1q33 11 63 -10q5 -3 8 -7t9 -5.5t7.5 -3t1.5 -4.5q2 -8 8 -15q15 -17 6 -43q-2 -8 -1 -14q3 -16 -13 -28q-2 -2 -4 -2q-7 -3 -16 -32q-2 -8 2 -17t6.5 -11.5t5.5 -3.5q6 -4 7.5 -13t4.5 -16t0.5 -15
t0 -19.5t-5 -15t-14 -3t-11.5 2.5q-14 5 -12 16q-11 16 -12 27.5t-6 19t-16 13t-21.5 -4t-12.5 -18.5t-2.5 -18t-0.5 -17.5t-4 -14.5t-13.5 -10t-19.5 -4q-25 0 -28.5 21.5t-2.5 44t3 44.5q8 89 -4 99q-10 9 -8.5 28.5t10.5 33.5zM257.5 465.5q17.5 2.5 26 17t8.5 23.5
q0 28 -10.5 35.5t-26.5 8.5t-22 -8.5t-7.5 -18.5t-1.5 -17q2 -19 9 -31t24.5 -9.5z" />
    <glyph glyph-name="macron" unicode="&#xaf;" 
d="M146 666q-33 2 -36 24q-1 13 1.5 16t4.5 9q1 6 5.5 6.5t6.5 5.5t6 4t8.5 1.5t6.5 -1t9 -2t9.5 0t4.5 -3.5q5 -3 17 1q19 7 27 2q5 -3 14.5 0t16.5 1t17 1t16 -1q14 -10 18 -6t8 4q4 -1 12 2.5t19 1t12 -11.5q2 -6 5 -9t1 -10t0 -12t-8.5 -16.5t-24.5 -13t-24 4t-22 1
t-19.5 -1t-11 2t-8.5 -3.5q-15 -4 -30 0.5t-29.5 3t-31.5 0.5z" />
    <glyph glyph-name="degree" unicode="&#xb0;" horiz-adv-x="205" 
d="M41 745q4 11 12.5 13t13.5 7t10.5 3.5t10 3t16.5 3t17 1t13.5 -1.5t13 -5.5t9 -3.5t9.5 -14t9.5 -15.5t6.5 -9.5q3 -17 2.5 -29t-0.5 -25.5t-8 -18t-13 -16.5t-16.5 -12.5t-18.5 -3.5t-18.5 -1t-17 -2.5t-13 0t-18 6t-14.5 6.5t-8.5 12.5t-8.5 11.5t-6 11.5t-3 16.5
q-2 21 3 29.5t4 16t3 10.5q8 4 10 7zM91.5 728q-0.5 -3 -7 -5t-6.5 -3.5t-3 -7t-3.5 -7.5t-0.5 -4v-5q0 -2 -2 -10q-4 -16 11 -19q5 -2 11.5 -2t11 5t11 5.5t8 4.5t3.5 4.5t4 1.5q5 2 5 13q0 19 -28 29q-7 3 -10.5 3t-4 -3z" />
    <glyph glyph-name="twosuperior" unicode="&#xb2;" horiz-adv-x="238" 
d="M104 460q13 3 26 7t30 3q37 -1 42 -9.5t5.5 -19.5t-0.5 -23q-3 -39 -24 -39q-7 0 -15 1q-40 7 -78 -10q-23 -10 -50 5q-4 3 -7.5 7t-11 7.5t-6.5 16t-1 28t2 21.5t12.5 11t10.5 9t10.5 5.5t12 7t6.5 12t5.5 12t7.5 7.5q6 2 9.5 10.5t5.5 12t7 4t10.5 9t10.5 19.5
q11 27 9 36q-5 21 -24 13q-7 -4 -9 -11t-3.5 -10t-10.5 -6.5t-14.5 -6t-13.5 2t-15 4.5h-13q-25 0 -18 20q2 8 0 16t6.5 19.5t10.5 22t11 24.5t20.5 18t21 8t18.5 8q23 8 33 1q9 -6 15 -5q11 2 18 -3.5t13.5 -7.5t8 -9.5t5 -8t6.5 -7t8.5 -9t6 -10.5t5.5 -20.5t2.5 -24
t-5 -30.5t-19.5 -39q-17 -17 -25 -29t-21 -14q-20 -20 -26 -33q-8 -16 -21 -23z" />
    <glyph glyph-name="threesuperior" unicode="&#xb3;" horiz-adv-x="229" 
d="M197 588q-14 -14 -23 -27l14 -15q7 -6 8.5 -13.5t7 -10.5t5.5 -16t-3.5 -18t-2 -16t-2.5 -18.5t-10.5 -17t-13.5 -15t-17.5 -15t-24.5 -22t-27.5 -10t-18 8t-19.5 5.5q-28 0 -44 23q-23 29 -4 50.5t32 4.5q2 -3 9 -8t13.5 -3t13 0t12 2.5t12.5 14.5t2 16.5t-6 10t-9 5.5
t-10.5 0.5t-4.5 0.5t-1.5 6.5t-1.5 11t-4.5 11t-0.5 9t13.5 15t21 17t18 15.5t6.5 25t-10.5 19.5t-17.5 -1t-12 -13.5t-8 -11q-4 -1 -15 -1h-22q-43 0 -46 8q-2 5 0 11t-0.5 9.5t0.5 8t6 14.5t11 16.5t12 19.5t7.5 18.5t12 9t17.5 7.5l18 8q21 8 29.5 3.5t18 -1t16 -1.5
t13.5 -9.5t14 -9.5q17 -14 18.5 -25t4.5 -18t6 -13q6 -17 2 -31.5t-6 -28.5t-9 -16z" />
    <glyph glyph-name="acute" unicode="&#xb4;" 
d="M178 625.5q-14 2.5 -22.5 13.5t-2.5 29.5t18 25.5q36 21 42.5 30.5t16 17t20.5 13.5q28 15 36 11.5t17 -6t11 -19t-5.5 -27.5t-12 -12.5t-9.5 -5.5l-10 -8q-13 -10 -19 -6q-3 2 -10 -5.5t-9 -16.5q-2 -5 -11 -7t-22.5 -16t-27.5 -11.5z" />
    <glyph glyph-name="mu" unicode="&#xb5;" horiz-adv-x="493" 
d="M441 162l-2 -41q0 -31 7 -36.5t12.5 -3.5t11.5 4q16 5 23.5 -2t4.5 -16t-2.5 -21.5t-1 -21t-12.5 -17.5q-9 -10 -11.5 -15.5t-10 -7t-11 -4.5t-7.5 -6q-12 -6 -32.5 -1t-31 20t-13.5 25.5t0 29.5t3 38l1 56q0 8 -0.5 18.5t0.5 23.5q-8 -16 -11 -33q-3 -19 -12.5 -29.5
t-15 -20.5t-13 -17t-14.5 -12q-17 -11 -21 -18q-8 -11 -16.5 -24t-19.5 -22q-13 -8 -19 -13.5t-24 -6.5q-30 -2 -45.5 4.5t-30 12.5t-19.5 20q-4 9 -9 18t-9 20q-7 -41 -13 -57q-16 -46 -16 -66.5t-1 -31.5q-2 -24 -13 -35q-4 -24 -17 -35q-14 -9 -20 -18t-10.5 -16
t-9.5 -13q-8 -10 -31.5 -12.5t-34.5 -0.5q-26 3 -26 22q0 8 6 12t14 8q20 13 26 34q6 23 14 37q12 23 15 42t10.5 33.5t7.5 33.5q0 24 13.5 63t15.5 58.5t6 30.5t4 25q0 17 3 43.5t6 35t1 30.5t4 44t6 46q1 24 1 37.5t10 20.5t15 7.5t10 -1.5q17 -4 35 1q52 17 55 -24
q2 -34 -3 -56.5t-7 -42.5t-8 -41q-15 -54 -16.5 -84.5t-8.5 -52.5t-2 -32t15 -16q19 -14 40.5 -11.5t30.5 11t14 24t11.5 21t10 20t14.5 22.5t20 31.5t11 37.5t7 25q13 29 15 45t8.5 30.5t6.5 39.5t3 34q6 19 21 33q22 20 39 1q7 -8 17.5 -9.5t18.5 -5.5t14 -11
q15 -16 10.5 -37t-7 -31t-2.5 -19.5t-2 -17t-4 -17.5t-2 -23.5t3.5 -26.5t9 -29t4.5 -25.5t-4 -15t-6 -9.5q-7 -9 -7 -17z" />
    <glyph glyph-name="paragraph" unicode="&#xb6;" horiz-adv-x="495" 
d="M346 95l-4 -25v-10q0 -11 -8.5 -19t-6.5 -15q7 -23 -17 -51q-4 -4 -12.5 -3t-13.5 6t-8.5 12l-7 14t-8 12.5t-5 15.5t0.5 21q2 22 8 47.5t3.5 47.5t-2 33t0.5 22t0.5 22t-0.5 23t-2.5 22t-3 26.5t0.5 25.5t3 18q-26 -9 -43 -10t-33 13t-31 14t-30.5 -3t-30.5 -2
q-20 0 -48 36q-6 9 -9 14q-5 10 -11 15.5t-7.5 9.5t-2.5 9q-1 16 -9 36q-21 50 6 79q15 17 22 39q12 43 25 58q25 27 60 42q16 8 32.5 18t39.5 14t32.5 6t17.5 4q14 4 35.5 6.5t33.5 4.5t23 3.5t23 1.5t28 -2t32 -3.5t29 -6.5q28 -13 26 -44q-1 -22 -9.5 -70.5t-10.5 -64
t-2.5 -54.5t-4 -71t-3 -45.5t2 -24l3 -21t3 -27t3.5 -28t4 -22.5q5 -20 6 -44t2.5 -43.5t2 -38t1 -34t-0.5 -23.5t-1 -19v-23q0 -27 -10 -33t-20.5 -16.5t-25.5 -9.5q-29 3 -25 36l-1 21q0 8 5 23q-2 25 2 66t4 50l-4 67q3 45 -5.5 84t-10 48.5t-1.5 18.5q-1 14 3.5 45
t4.5 51.5t2 45.5t1 43.5t3 38.5q3 21 15 56q-57 11 -60 -24q-2 -15 -2.5 -25.5t-1 -20t-0.5 -19t-1.5 -29t-3.5 -43t-4 -47.5q-5 -62 -4 -93q4 -78 3.5 -101.5t1 -33.5t3.5 -18q3 -23 2 -38q-1 -12 1 -21q4 -17 3 -28t0 -17q2 -12 2 -21z" />
    <glyph glyph-name="periodcentered" unicode="&#xb7;" horiz-adv-x="174" 
d="M11.5 365.5q1.5 8.5 15.5 21t36.5 25t60.5 7.5q18 -2 28 -21q10 -16 6 -33.5t-24.5 -31.5t-30.5 -15.5t-14 -4t-7 -4.5q-10 -6 -20.5 -3t-14 12t-11.5 12.5t-14 8.5t-9 11.5t-1.5 15z" />
    <glyph glyph-name="cedilla" unicode="&#xb8;" 
d="M133 -146q8 -1 18 4.5t20 1.5t27.5 -9.5t36.5 1.5q31 13 29 31q-2 7 0.5 10t-5.5 7.5t-16 15t-29 8.5t-40 9q-17 9 -14 44q0 7 -3 10.5t1 6t-0.5 10t0 9.5t3.5 11q-4 12 3 19q8 6 15 5q13 -4 17 -1q3 2 5 -1q4 -5 12.5 -0.5t16 2t8.5 -13t2.5 -12.5t-3.5 -13t-4.5 -14
t7.5 -9q8 -13 26 -8q6 4 16 0q20 -6 22 -18q0 -2 8 -5q13 -5 15 -13q0 -7 3 -10q7 -7 8.5 -22t2.5 -21t0.5 -9t-1.5 -6t-3.5 -11t-5.5 -19q-6 -25 -25 -32q-9 -3 -17 -14q-52 -15 -73 -11.5t-35 3t-24 7t-21.5 8t-11.5 25t9 24.5z" />
    <glyph glyph-name="onesuperior" unicode="&#xb9;" horiz-adv-x="168" 
d="M131 504q3 -8 2 -26t3 -27t-1.5 -24t-10 -24.5t-13 -11.5t-17.5 -3t-14 -3.5t-11 -2t-13 3.5q-16 5 -20 22t-0.5 26t2 17t0.5 14.5t4 13.5q7 17 5.5 24.5t-0.5 23t2.5 35t1.5 40t-3 36.5q-31 6 -32.5 18t3 18.5t11.5 12.5t9 12t3 12q4 14 13 17q6 2 8 6t4 7q5 8 21 -2
q10 -6 17 -8t11 -5q12 -7 12 -41v-14q0 -8 -0.5 -15t1.5 -15t-0.5 -17.5t-2.5 -20.5t3 -19.5t-0.5 -21.5t-3 -18.5t1.5 -9.5t2 -7t0 -9t2 -14z" />
    <glyph glyph-name="ordmasculine" unicode="&#xba;" horiz-adv-x="307" 
d="M37 573q3 3 6 12.5t9 16t12.5 11t12.5 8t10 9.5q5 7 14 8q19 2 22.5 8.5t11.5 7t16.5 0t16.5 -0.5t13 4q10 8 37 -11q6 -5 12 -7t14 -7.5t14 -27.5t10 -30.5t8 -15.5q10 -15 11 -28q5 -37 5 -60.5t-2.5 -40t-5.5 -31.5q-9 -38 -22 -47q-7 -6 -15.5 -26.5t-14.5 -29
t-19 -9.5t-25 -7.5t-24.5 -4t-18.5 0.5t-11 -4q-13 -5 -22.5 2.5t-25 11t-21.5 14.5t-13.5 27.5t-13.5 25t-11.5 28t-10.5 42.5q-11 56 -5 71.5t7.5 26t1.5 18.5q0 22 7 27t10 8zM109 472l2 -17q0 -9 3 -15l6 -11q2 -5 6.5 -20.5t15.5 -18.5q17 -5 31 5.5t15.5 19.5
t4.5 13.5t6 9.5q8 12 7 17.5t1.5 8.5t4.5 7q5 9 -5 27q-11 19 -43 20q-29 2 -41 -8q-5 -3 -3 -8.5t-4 -13.5q-7 -11 -7 -16z" />
    <glyph glyph-name="guillemotright" unicode="&#xbb;" horiz-adv-x="390" 
d="M7.5 383.5q-7.5 11.5 -7.5 20.5t6 14q20 16 45 -20q17 -23 38 -40.5t38 -31.5q16 -16 27 -33t24.5 -28t29 -25.5t17 -30.5t-6.5 -25t-19.5 -27.5t-32.5 -37.5t-31 -35q-27 -43 -49 -59l-16 -15q-7 -8 -13.5 -16.5t-16.5 -5.5t-10 11q0 5 -1 8t1 19.5t15 32t19.5 20t8 7.5
t2.5 6q3 11 9.5 17.5t15 17.5t16.5 23q19 30 19 43.5t-6.5 25t-15.5 24t-19.5 24.5l-17.5 20t-16 18q-19 23 -46 59q1 8 -6.5 19.5zM172.5 365.5q-1.5 7.5 -6.5 10.5t-9 7.5t-6 10.5q-4 15 2 25t10 10.5t8.5 -1t8 -4t7.5 -3.5q20 -5 31 -27q7 -12 17 -18t21 -17t28 -26
t27.5 -27t15 -14.5t7.5 -5.5q7 -6 18 -24t18 -26q10 -10 13 -24.5t2.5 -20.5t-4.5 -12t-13 -22t-28 -33t-33 -23.5t-17 -14t-5.5 -14.5t-9 -12t-14.5 -11q-24 -18 -32 -31q-12 -20 -30 -26q-34 -11 -43 4q-11 13 30 53q10 9 16 22t10 18q6 10 19.5 21t18 16t7.5 9
q5 7 17 16.5t14.5 21.5t10 21t2.5 18q-28 50 -39.5 59.5t-20.5 16t-11 14.5t-11 16t-17.5 15t-9 12t-8.5 8q-10 5 -11.5 12.5z" />
    <glyph glyph-name="onequarter" unicode="&#xbc;" horiz-adv-x="486" 
d="M155 544l4 -24q-2 -8 1.5 -16t2.5 -22t0.5 -20t2.5 -11t1 -11t-4.5 -17t-9 -20.5t-13 -11.5t-17.5 -3t-16 -4t-22 1.5t-20 22t-0.5 26.5t3 17t0.5 14.5t4 13.5q5 19 4 25.5t0.5 22t2.5 35t1 40t-3 36.5q-31 5 -32 17.5t3 19t11 12.5t9 12l4 12q3 14 12 17q6 2 8 6t4 7
q5 7 18.5 -0.5t20 -9.5t10.5 -5q12 -7 12 -41v-29q0 -7 2 -15t-0.5 -17.5t-2.5 -20.5t3 -19.5t-0.5 -21.5t-3.5 -18zM90.5 10.5q-5.5 -12.5 -18.5 -16.5q-29 -9 -47 5q-11 8 -16.5 12.5t-3.5 17t3.5 22t9.5 17.5q12 11 17 34q1 3 6 9t11 13q16 20 18.5 35.5t8.5 26t7.5 16.5
t7 12t12.5 13q18 18 23 33t15.5 24.5t14 20t11.5 20t13.5 18.5t16 19.5t21.5 23.5q30 33 33 46t9 20t9 20q5 12 11.5 20t8.5 19t5.5 17t8.5 16.5t13 23t12 21t13 22.5t10.5 20t5.5 13t9 14q13 18 13.5 29.5t7.5 16t9 14t9 13t17.5 12t20.5 5t11.5 -9.5t5 -10.5t5.5 -9.5
q6 -14 -4.5 -29t-16 -26.5t-8.5 -21.5q-11 -35 -24 -56t-19 -32t-12.5 -19t-10 -13t-8 -11t-9.5 -13q-10 -17 -12 -23q-4 -14 -17 -31.5t-18.5 -27t-10.5 -19.5q-14 -24 -18 -30t-14 -22t-21 -33t-21 -32l-14 -21q-38 -56 -62.5 -107.5t-25.5 -62.5t-8 -20t-12.5 -27
t-11 -30.5zM421 286l-5 -73q0 -20 3 -30q13 2 21 3t13 -6q4 -8 7.5 -10.5t2.5 -13.5t-1.5 -23t-5.5 -14t-10 -8t-14 -5.5t-12 -10t-2 -20.5t-2.5 -20t-5 -21t-3 -26.5t-8.5 -16.5q-8 -2 -18 -7.5t-17.5 2.5t-15.5 13.5t-10 19t0 20t0 20t0 28.5t-6 16l-53 -3q-33 0 -39.5 6
t-8.5 17.5t0.5 33t9.5 33.5q7 17 16.5 27.5t16 17.5t13 15.5t12.5 17.5q13 21 17 37q8 34 34 49q9 6 24.5 5.5t25.5 1.5t14 -4q8 -10 8 -37zM319.5 185.5q-3.5 -6.5 -3.5 -11.5t12 -4q21 2 25 4q3 2 2.5 8t0 13.5t0 13.5t-7.5 5q-6 0 -15.5 -11t-13 -17.5z" />
    <glyph glyph-name="onehalf" unicode="&#xbd;" horiz-adv-x="500" 
d="M133 698l2 -32q0 -5 1.5 -7.5t2.5 -5.5q3 -9 0 -18.5t-2.5 -22.5t-1.5 -28.5t5 -33.5t9 -45q4 -50 6 -55q13 -28 4 -51q-15 -37 -40 -30q-7 2 -19.5 -0.5t-23.5 5.5q-23 14 -18 45q2 13 7 34t4.5 35.5t0 36t0.5 45.5q-2 59 -7 66t-10 7t-10.5 -1.5t-10 6t0.5 19t3.5 18
t4.5 8.5t7.5 8.5t3.5 13.5q3 18 15 21q15 2 31 5t26 -3q12 -8 9 -40zM68 0.5q-6 -5.5 -15 -7t-22 4.5t-15 26q-4 34 11 60q8 14 14 26.5t16.5 25t20.5 26t20 28.5q23 33 29 47.5t15.5 29t19.5 30.5q26 41 30 64q7 38 71 124q29 40 43.5 74t22.5 45.5t15.5 18.5t13.5 13
q14 14 15 27t7.5 24t14.5 20q20 22 34 23t26.5 -10.5t10.5 -29.5q-5 -31 -38 -61q-30 -30 -53 -67t-28 -50q-5 -14 -17 -31q-21 -30 -25.5 -46t-11 -27.5t-13.5 -21.5q-16 -25 -17.5 -37.5t-6.5 -26.5t-8 -24q-8 -31 -23 -51.5t-24 -37.5t-15 -25q-20 -28 -24.5 -38.5
t-14.5 -23t-15 -20.5t-17 -24.5t-18 -28t-10 -20t-8.5 -16t-10.5 -13zM374.5 86q-6.5 -5 -7.5 -5q12 3 25 7t30 4q37 -2 44 -13q11 -18 -2 -61q-5 -18 -20 -18q-7 0 -16 2q-37 6 -76 -10q-16 -7 -31.5 -2.5t-19 6.5t-5.5 4q-5 7 -12.5 10.5t-6 16t-1 28t2 21.5t12.5 11
t9.5 9t10.5 5.5t12.5 7t6.5 11.5q6 17 13 20q6 2 9.5 10.5t6 12t7 4t10 9t10.5 19.5q11 27 9 36q-5 21 -24 13q-7 -2 -9 -9.5t-3.5 -11t-10.5 -7t-14.5 -6t-13.5 2t-15 4.5h-13q-28 0 -18 21q3 7 0 15q-2 8 6.5 20t10.5 22t11 24t20 18t20.5 8.5t19.5 8.5q22 7 33 0
q9 -6 15 -5q11 2 18 -3.5t13.5 -7.5t8.5 -9.5t5 -7.5t6 -7t8.5 -9.5t6 -10.5t5.5 -20.5t2.5 -24t-5 -30.5t-19.5 -39q-17 -17 -25 -29t-22 -14q-23 -29 -27 -37.5t-10.5 -13.5z" />
    <glyph glyph-name="threequarters" unicode="&#xbe;" horiz-adv-x="511" 
d="M207 588q-7 -7 -23 -27l14 -15q7 -6 8.5 -13.5t7 -10.5t5.5 -16t-3.5 -18t-2 -16t-2.5 -18.5t-10 -17t-13.5 -15t-17.5 -15t-24 -22t-25 -10.5t-14.5 4t-6.5 4q-9 6 -22 6q-26 0 -38 18q-25 36 -7 56t32 4q2 -3 8.5 -8t13 -3t13 0t12.5 2q22 22 12 33q-3 5 -4 8.5t-9 5.5
t-10.5 0.5t-4.5 0.5t-1.5 6.5t-1.5 11t-4.5 11t-0.5 8.5q5 11 39 35q5 4 14 13t6 25q-2 16 -10.5 19.5t-17 -1t-12 -13.5t-8.5 -11q-4 -1 -15 -1h-22q-42 0 -45 8q-1 3 0 10t-1.5 10.5t1 8t6.5 14.5t10.5 16.5t11.5 19.5t8 18.5t12.5 9t17 7.5t17.5 8q21 8 29.5 3.5t18.5 -1
t16 -1.5t13 -9.5t14 -9.5q17 -14 18.5 -25t4.5 -18t6 -13q6 -17 2 -31.5t-6 -28.5t-9 -16zM483 716q6 -26 -19 -59q-21 -25 -29 -35t-11 -19.5t-11.5 -17.5t-13.5 -19t-10 -21t-9 -19q-10 -21 -12.5 -31t-12 -28.5t-13 -27.5t-9 -24.5t-13.5 -33.5q-18 -45 -38 -54
q-19 -9 -24 -24.5t-6 -25t-3.5 -20t-17 -26t-25.5 -37.5t-23.5 -38t-18.5 -33.5t-11 -33t-10 -30.5q-11 -34 -21 -42q-10 -6 -21.5 -11t-19.5 3q-27 -7 -34.5 4t-4 14.5t1.5 13.5t6 17q17 16 23.5 33.5t13.5 26.5t13 18.5t12 19.5q11 22 18 32q25 32 27 40t5 15l8 15
q11 21 12 28q2 11 13 28l17 29q6 11 12.5 22t15.5 32.5t23 38.5q15 17 19.5 37t12.5 31q18 25 21 34t8 18.5t12 21.5q14 27 21 43q8 14 13.5 22t15 14t14 13t8 14t6.5 14t10.5 13t14 16.5t12.5 9t7 -1.5q7 10 19.5 2.5t5.5 -21.5zM449 309q8 -25 3 -59q11 -11 6 -28
q-7 -20 3 -35q2 -3 9.5 1.5t15.5 2.5h14q6 0 6.5 -7.5t-1.5 -18.5t-3 -19q0 -12 -8 -20.5t-13 -16t-11 -8.5q-21 -3 -31 -2q-3 -13 -5 -46t0.5 -43t-2 -15t-9 -4t-9 -1t-12.5 -2q-16 0 -20 15q-2 5 -7 7t-5.5 18t-5.5 31.5t-2.5 20.5t-2 10t-9 11.5t-9.5 2t-12.5 -4.5
t-11.5 1.5t-9 0.5t-11 -1q-38 0 -22 71q3 13 9.5 30t22.5 37.5t26.5 41t19.5 41t19 25.5t27.5 11.5t34.5 -1.5q21 -8 15 -47zM338 166q6 -9 24 -2t18 12t-2 14t0.5 19.5t-1 12t-6 -1.5t-7 -5t-4.5 -5q0 -4 -11 -14q-21 -20 -11 -30z" />
    <glyph glyph-name="questiondown" unicode="&#xbf;" horiz-adv-x="358" 
d="M78 -12q-9 9 -22 12.5t-17.5 13.5t-7.5 13.5t-7 6.5q-9 10 -12 24q-3 15 -8 24q-6 13 -5.5 27.5t-2 22t-0.5 21t0.5 26t6 28t18 30.5t12.5 35q3 33 36 47q16 8 23.5 21t13 29t8.5 33.5t6 35.5q5 41 3 58q-2 18 7 35q18 33 35 33q9 -1 14.5 0.5t10.5 1.5q11 2 18 -4
q17 -14 22 -23q11 -20 5.5 -45.5t-2.5 -42t7 -31.5q12 -41 6 -64q-13 -45 -31 -52q-8 -4 -13 -13t-13 -9t-19.5 -10.5t-21.5 -25.5q-28 -39 -17 -66q9 -22 25 -18q6 2 11.5 3t8.5 -8q7 -20 28 -20q22 0 33 24q6 13 9 21t6 14q9 16 37 11q11 -2 14.5 -5.5t8 -3.5t12.5 -3.5
t16 -12.5q20 -19 29 -53q4 -23 9 -34t-3 -20.5t-15 -20t-14.5 -20t-12 -11.5t-9.5 -5q-15 -7 -22 -19q-14 -23 -32 -23q-20 0 -26.5 -2.5t-11.5 -3.5q-11 -4 -21 -1t-12.5 5.5t-4.5 5.5q-5 6 -19 7t-25 -3q-46 -20 -72 4zM201 627.5q-11 3.5 -19.5 -0.5t-22.5 -3t-19 9
t-10.5 16.5t-2.5 19t4 17t6 12.5t12.5 13t16.5 13q23 17 40 15.5t23 -9t14 -13.5q16 -13 9 -41t-11 -35t-16.5 -12t-23.5 -1.5z" />
    <glyph glyph-name="Agrave" unicode="&#xc0;" horiz-adv-x="456" 
d="M407 -6q-6 -11 -16 -16.5t-20 2t-14.5 6.5t-8.5 -2q-9 -1 -18 13t-10 22.5t0 16.5q4 18 -5.5 32t-13 21t-3.5 20.5t-1.5 17t-2.5 5.5q-5 9 -3.5 28t-5.5 26.5t-18.5 11.5t-18 -2.5t-12 -15.5t-13.5 -15.5t-20.5 -3.5t-27.5 -6t-18 -21.5t-7 -25.5t-2.5 -24t0 -21.5
t-5.5 -20.5q-8 -25 -19 -27q-9 -1 -19 0q-11 -20 -26 -24q-41 -9 -49 13q-5 13 -6 34q-2 42 -9 57t-3.5 36t2.5 42t0 32t2.5 20t3.5 17.5t2.5 20t3.5 26.5t6 31q8 40 6 60t3.5 34t12.5 25q18 29 17 47.5t-1.5 29t0.5 21.5q5 54 51 169q3 11 19 17t32.5 1.5t27 -4t18 8
t16 14.5t20.5 11.5t27 4.5t32 -9q28 -15 37 -28t12 -21t10 -22t6.5 -25t3.5 -26t0 -35t0 -39.5t4 -26.5t1 -13q1 -17 7 -30q6 -14 3.5 -34.5t-1 -34t10.5 -27.5q17 -27 12 -60q-1 -9 0.5 -19.5t1.5 -19t-2 -21.5q-3 -19 1 -46q6 -50 6 -67t1 -28.5t2 -24.5q3 -34 0.5 -68.5
t-21.5 -39.5zM252.5 444q-3.5 28 -3.5 41.5t-2 23.5q-3 16 -17 4q-16 16 -26 1q-7 -11 -7 -36q-2 -17 -7.5 -31t-7.5 -31q-3 -20 -10.5 -49t2 -43t23.5 -10t21 4.5t12 1.5q12 1 18.5 9.5t7 15t-0.5 13.5q-3 20 -1 39t-1.5 47zM313 852.5q6 -18.5 -2.5 -29.5t-22.5 -13.5
t-27.5 11.5t-22.5 16t-11 7q-2 9 -9 16.5t-10 5.5q-6 -4 -15 3l-14 11q-5 4 -9.5 5.5t-12.5 12.5t-5.5 27.5t11.5 19t15 5.5t16 -1t22 -10q26 -14 33 -25q9 -15 46 -36q12 -7 18 -25.5z" />
    <glyph glyph-name="Aacute" unicode="&#xc1;" horiz-adv-x="456" 
d="M407 -6q-6 -11 -16 -16.5t-20 2t-14.5 6.5t-8.5 -2q-9 -1 -18 13t-10 22.5t0 16.5q4 18 -5.5 32t-13 21t-3.5 20.5t-1.5 17t-2.5 5.5q-5 9 -3.5 28t-5.5 26.5t-18.5 11.5t-18 -2.5t-12 -15.5t-13.5 -15.5t-20.5 -3.5t-27.5 -6t-18 -21.5t-7 -25.5t-2.5 -24t0 -21.5
t-5.5 -20.5q-8 -25 -19 -27q-9 -1 -19 0q-11 -20 -26 -24q-41 -9 -49 13q-5 13 -6 34q-2 42 -9 57t-3.5 36t2.5 42t0 32t2.5 20t3.5 17.5t2.5 20t3.5 26.5t6 31q8 40 6 60t3.5 34t12.5 25q18 29 17 47.5t-1.5 29t0.5 21.5q5 54 51 169q3 11 19 17t32.5 1.5t27 -4t18 8
t16 14.5t20.5 11.5t27 4.5t32 -9q28 -15 37 -28t12 -21t10 -22t6.5 -25t3.5 -26t0 -35t0 -39.5t4 -26.5t1 -13q1 -17 7 -30q6 -14 3.5 -34.5t-1 -34t10.5 -27.5q17 -27 12 -60q-1 -9 0.5 -19.5t1.5 -19t-2 -21.5q-3 -19 1 -46q6 -50 6 -67t1 -28.5t2 -24.5q3 -34 0.5 -68.5
t-21.5 -39.5zM252.5 444q-3.5 28 -3.5 41.5t-2 23.5q-3 16 -17 4q-16 16 -26 1q-7 -11 -7 -36q-2 -17 -7.5 -31t-7.5 -31q-3 -20 -10.5 -49t2 -43t23.5 -10t21 4.5t12 1.5q12 1 18.5 9.5t7 15t-0.5 13.5q-3 20 -1 39t-1.5 47zM188 799.5q-14 2.5 -22.5 13.5t-2.5 29.5
t18 25.5q36 21 42.5 30.5t16 17t20.5 13.5q28 15 36 11.5t17 -6t11 -19t-5.5 -27.5t-12 -12.5t-9.5 -5.5l-10 -8q-13 -10 -19 -6q-3 2 -10 -5.5t-9 -16.5q-2 -5 -11 -7t-22.5 -16t-27.5 -11.5z" />
    <glyph glyph-name="Acircumflex" unicode="&#xc2;" horiz-adv-x="456" 
d="M407 -6q-6 -11 -16 -16.5t-20 2t-14.5 6.5t-8.5 -2q-9 -1 -18 13t-10 22.5t0 16.5q4 18 -5.5 32t-13 21t-3.5 20.5t-1.5 17t-2.5 5.5q-5 9 -3.5 28t-5.5 26.5t-18.5 11.5t-18 -2.5t-12 -15.5t-13.5 -15.5t-20.5 -3.5t-27.5 -6t-18 -21.5t-7 -25.5t-2.5 -24t0 -21.5
t-5.5 -20.5q-8 -25 -19 -27q-9 -1 -19 0q-11 -20 -26 -24q-41 -9 -49 13q-5 13 -6 34q-2 42 -9 57t-3.5 36t2.5 42t0 32t2.5 20t3.5 17.5t2.5 20t3.5 26.5t6 31q8 40 6 60t3.5 34t12.5 25q18 29 17 47.5t-1.5 29t0.5 21.5q5 54 51 169q3 11 19 17t32.5 1.5t27 -4t18 8
t16 14.5t20.5 11.5t27 4.5t32 -9q28 -15 37 -28t12 -21t10 -22t6.5 -25t3.5 -26t0 -35t0 -39.5t4 -26.5t1 -13q1 -17 7 -30q6 -14 3.5 -34.5t-1 -34t10.5 -27.5q17 -27 12 -60q-1 -9 0.5 -19.5t1.5 -19t-2 -21.5q-3 -19 1 -46q6 -50 6 -67t1 -28.5t2 -24.5q3 -34 0.5 -68.5
t-21.5 -39.5zM252.5 444q-3.5 28 -3.5 41.5t-2 23.5q-3 16 -17 4q-16 16 -26 1q-7 -11 -7 -36q-2 -17 -7.5 -31t-7.5 -31q-3 -20 -10.5 -49t2 -43t23.5 -10t21 4.5t12 1.5q12 1 18.5 9.5t7 15t-0.5 13.5q-3 20 -1 39t-1.5 47zM110 826q-4 26 54 63q30 20 46 33t22 16
q10 5 25 -1q14 -8 22.5 -20.5t18.5 -15.5t12 -6t3.5 -6t4.5 -3.5t6 -1.5q10 -1 16.5 -9.5t13.5 -10.5q25 -9 22.5 -24t-13 -25.5t-18 -11t-15.5 4.5t-19 10t-17 16t-14 13t-13 9t-16.5 9t-14.5 4t-10.5 -4.5t-11.5 -14.5t-13 -12.5t-10.5 -13.5t-10 -11t-16 -8t-25.5 -5
q-26 2 -29 26z" />
    <glyph glyph-name="Atilde" unicode="&#xc3;" horiz-adv-x="456" 
d="M407 -6q-6 -11 -16 -16.5t-20 2t-14.5 6.5t-8.5 -2q-9 -1 -18 13t-10 22.5t0 16.5q4 18 -5.5 32t-13 21t-3.5 20.5t-1.5 17t-2.5 5.5q-5 9 -3.5 28t-5.5 26.5t-18.5 11.5t-18 -2.5t-12 -15.5t-13.5 -15.5t-20.5 -3.5t-27.5 -6t-18 -21.5t-7 -25.5t-2.5 -24t0 -21.5
t-5.5 -20.5q-8 -25 -19 -27q-9 -1 -19 0q-11 -20 -26 -24q-41 -9 -49 13q-5 13 -6 34q-2 42 -9 57t-3.5 36t2.5 42t0 32t2.5 20t3.5 17.5t2.5 20t3.5 26.5t6 31q8 40 6 60t3.5 34t12.5 25q18 29 17 47.5t-1.5 29t0.5 21.5q5 54 51 169q3 11 19 17t32.5 1.5t27 -4t18 8
t16 14.5t20.5 11.5t27 4.5t32 -9q28 -15 37 -28t12 -21t10 -22t6.5 -25t3.5 -26t0 -35t0 -39.5t4 -26.5t1 -13q1 -17 7 -30q6 -14 3.5 -34.5t-1 -34t10.5 -27.5q17 -27 12 -60q-1 -9 0.5 -19.5t1.5 -19t-2 -21.5q-3 -19 1 -46q6 -50 6 -67t1 -28.5t2 -24.5q3 -34 0.5 -68.5
t-21.5 -39.5zM252.5 444q-3.5 28 -3.5 41.5t-2 23.5q-3 16 -17 4q-16 16 -26 1q-7 -11 -7 -36q-2 -17 -7.5 -31t-7.5 -31q-3 -20 -10.5 -49t2 -43t23.5 -10t21 4.5t12 1.5q12 1 18.5 9.5t7 15t-0.5 13.5q-3 20 -1 39t-1.5 47zM283 871q7 10 18 10q11 14 29.5 18t33.5 1.5
t23 -11t4 -15.5t-3 -14.5t-6.5 -11.5t-25.5 -13t-28.5 -15t-18.5 -8t-25 0t-22 2.5t-8 1.5q-14 6 -22 16.5t-10 13.5q-5 4 -18.5 1.5t-17.5 -11t-12 -12.5q-5 -1 -16 -8q-18 -10 -24 -10t-17.5 4t-13.5 10.5t-2 13t-2.5 13t-5 10.5t2.5 12t8.5 9t10 6.5t15 7t16 5.5t19.5 11
q18 12 29 1q9 9 21.5 4.5t20 -6.5t7.5 -8.5t8 -15.5t12.5 -9t19.5 -3z" />
    <glyph glyph-name="Adieresis" unicode="&#xc4;" horiz-adv-x="456" 
d="M407 -6q-6 -11 -16 -16.5t-20 2t-14.5 6.5t-8.5 -2q-9 -1 -18 13t-10 22.5t0 16.5q4 18 -5.5 32t-13 21t-3.5 20.5t-1.5 17t-2.5 5.5q-5 9 -3.5 28t-5.5 26.5t-18.5 11.5t-18 -2.5t-12 -15.5t-13.5 -15.5t-20.5 -3.5t-27.5 -6t-18 -21.5t-7 -25.5t-2.5 -24t0 -21.5
t-5.5 -20.5q-8 -25 -19 -27q-9 -1 -19 0q-11 -20 -26 -24q-41 -9 -49 13q-5 13 -6 34q-2 42 -9 57t-3.5 36t2.5 42t0 32t2.5 20t3.5 17.5t2.5 20t3.5 26.5t6 31q8 40 6 60t3.5 34t12.5 25q18 29 17 47.5t-1.5 29t0.5 21.5q5 54 51 169q3 11 19 17t32.5 1.5t27 -4t18 8
t16 14.5t20.5 11.5t27 4.5t32 -9q28 -15 37 -28t12 -21t10 -22t6.5 -25t3.5 -26t0 -35t0 -39.5t4 -26.5t1 -13q1 -17 7 -30q6 -14 3.5 -34.5t-1 -34t10.5 -27.5q17 -27 12 -60q-1 -9 0.5 -19.5t1.5 -19t-2 -21.5q-3 -19 1 -46q6 -50 6 -67t1 -28.5t2 -24.5q3 -34 0.5 -68.5
t-21.5 -39.5zM252.5 444q-3.5 28 -3.5 41.5t-2 23.5q-3 16 -17 4q-16 16 -26 1q-7 -11 -7 -36q-2 -17 -7.5 -31t-7.5 -31q-3 -20 -10.5 -49t2 -43t23.5 -10t21 4.5t12 1.5q12 1 18.5 9.5t7 15t-0.5 13.5q-3 20 -1 39t-1.5 47zM110 890q15 16 27.5 16.5t23 -3t19.5 -10.5
q23 -18 21 -44q0 -27 -23 -44q-19 -15 -39 -10t-34 19t-12 37t17 39zM359 805.5q-14 -10.5 -34 -12t-28.5 10t-9 11.5t-5.5 5t-5 15.5t-3.5 15t3.5 17t12 16t9.5 8t11.5 8.5q42 22 68 -23q4 -6 9.5 -12t6.5 -20t-10 -21.5t-25 -18z" />
    <glyph glyph-name="Aring" unicode="&#xc5;" horiz-adv-x="456" 
d="M169 841q4 10 12.5 12t13.5 7t10.5 3.5t10 3t16.5 3t17 1t13.5 -1.5t13 -5.5t9 -3.5t9.5 -14t9.5 -15.5t6.5 -10.5q3 -16 2.5 -27.5t0 -22.5t-4.5 -18q33 -16 41.5 -29t11.5 -21.5t10 -22.5t6.5 -25t3.5 -26t0 -35t0 -39.5t4 -26.5t1 -13q1 -17 7 -30q6 -14 3.5 -34.5
t-1 -34t10.5 -27.5q17 -27 12 -60q-1 -9 0.5 -19.5t1.5 -19t-2 -21.5q-3 -19 1 -46q6 -50 6 -67t1 -28.5t2 -24.5q6 -78 -8 -97q-6 -9 -13 -11q-6 -11 -16 -16.5t-20 2t-14.5 6.5t-8.5 -2q-9 -1 -18 13t-10 22.5t0 16.5q4 18 -5.5 32t-13 21t-3.5 20.5t-1.5 17t-2.5 5.5
q-5 9 -3.5 28t-5.5 26.5t-18.5 11.5t-18 -2.5t-12 -15.5t-13.5 -15.5t-20.5 -3.5t-27.5 -6t-18 -21.5t-7 -25.5t-2.5 -24t0 -21.5t-5.5 -20.5q-8 -25 -19 -27q-9 -1 -19 0q-11 -20 -26 -24q-41 -9 -49 13q-5 13 -6 34q-2 42 -9 57t-3.5 36t2.5 42t0 32t2.5 20t3.5 17.5
t2.5 20t3.5 26.5t6 31q8 40 6 60t3.5 34t12.5 25q18 29 17 47.5t-1.5 29t0.5 21.5q5 54 51 169q3 11 19 17t32 1q2 0 3.5 -0.5t3.5 -0.5q-3 0 -9.5 11t-10.5 15.5t-6 12t-3 16.5q-3 22 2.5 29.5t4.5 15t3 11.5q8 4 10 7zM252.5 444q-3.5 28 -3.5 41.5t-2 23.5q-3 16 -17 4
q-16 16 -26 1q-7 -11 -7 -36q-2 -17 -7.5 -31t-7.5 -31q-3 -20 -10.5 -49t2 -43t23.5 -10t21 4.5t12 1.5q12 1 18.5 9.5t7 15t-0.5 13.5q-3 20 -1 39t-1.5 47zM219.5 823q-0.5 -3 -7 -5t-6.5 -3.5t-4 -8.5t-3 -9t-1 -13q-5 -19 10 -22q5 -2 11.5 -2t11 5t11 5.5t8.5 5.5t7 5
t5 10.5t-4.5 16t-11.5 9.5q-14 9 -20 9t-6.5 -3z" />
    <glyph glyph-name="AE" unicode="&#xc6;" horiz-adv-x="635" 
d="M422 158l56 2q14 0 27.5 -2t27 0t26 5.5t24.5 7t25.5 2t20.5 -7.5t9 -14q6 -16 -3 -34t-16 -31t-11.5 -33.5t-6 -30.5t-9.5 -15t-17 -10.5t-22 -2.5t-34.5 3.5t-46.5 -1.5q-62 -3 -79 -11.5t-26 -12.5t-17 -6q-15 -2 -26.5 6.5t-18.5 13.5q-19 12 -30 15q-24 7 -12 40
q23 62 -6 118q-5 8 -13 6t-19.5 0t-20 -3.5t-27 -8t-24.5 8.5q-33 -33 -52 -101q-6 -24 -12.5 -28t-12 -8t-18.5 -26.5t-29.5 -30.5t-28.5 -3.5t-19.5 10.5t-9.5 22.5t-0.5 23.5t-6 13.5t-5.5 26.5t13 37q21 36 19.5 55t4.5 34t11 26.5t13 28.5t16 38q22 51 22 71.5t2 41.5
t6 42q7 47 23 63q18 14 25.5 24t9.5 21.5t4.5 16t5.5 9.5q10 16 18 51.5t16 55.5q29 76 94 66q26 -5 53 -13t51.5 -14.5t40.5 -0.5t27 10l17 8q14 6 24 2t14 -3.5t7 1.5q10 1 18 -1t17 0t19 3.5t20 1.5q16 0 28.5 -11.5t16 -20.5t3.5 -23t-3.5 -29.5t-2.5 -26t-5 -30.5
t-6 -39t-4.5 -31t-11 -27.5t-19.5 -17.5q-49 -8 -77 7q-31 19 -65 15q-29 -3 -22 -57q1 -7 -0.5 -16.5t-3.5 -20.5q-3 -25 12 -36.5t27.5 -13t27.5 5t28.5 9.5t18.5 -9q19 -47 16 -55t-3.5 -23t-6.5 -21t-15 -14t-25.5 -8t-28.5 -1t-23 -4q-25 -7 -27 -23q-4 -43 9 -54
q3 -3 14 -3zM183.5 349q-3.5 -13 -1.5 -23.5t7.5 -16t12.5 -7.5q13 -3 23 1t13.5 11t8 18.5t2.5 21.5l-4 20q-5 29 2 39q2 3 2 10t-2 13q-5 18 -15 18q-11 2 -15 -7t-6 -20t-7.5 -24.5l-11 -27t-9 -26.5z" />
    <glyph glyph-name="Ccedilla" unicode="&#xc7;" horiz-adv-x="441" 
d="M132 -177q0 24 8 24q10 -1 19 5t19 2q40 -17 62 -8.5t27.5 16t4 15t0.5 10.5t-6 8t-15.5 15t-28 8t-35 5.5t-17 15.5t-3 16.5t-0.5 15.5t-3 10t1 6t1 9t-1 11q-9 4 -18.5 6t-17.5 7q-20 11 -33 35q-8 15 -15.5 25t-12.5 19q-13 20 -10 38q6 48 -13 63q-11 7 -11 11t-4 17
q-6 18 0.5 42t4.5 39.5t-5 32.5q-6 44 -1 58t2.5 40t-2.5 42.5t-2.5 43.5t-0.5 58q7 78 53 107q69 41 88 39q6 0 14.5 -1.5t16.5 0.5t14 6t12 9q24 22 43 5q18 -21 28 -28q17 -13 51 -15q29 -2 52 -30q4 -6 8 -11.5t6 -12.5q6 -15 4 -43t3 -45.5t10 -33.5q9 -28 -11 -75
q-15 -43 -37 -51l-18 -6q-26 -9 -44.5 -6.5t-25.5 10.5q-20 26 -10 60q2 7 0 22t-17 19q-8 2 -10.5 7t-4 8.5t-3 5t-9.5 -4.5t-9 -6.5t-6.5 1.5t-10.5 -1t-10 -11q-18 -31 -7 -101q4 -21 8 -39q8 -45 7.5 -60t-6 -31.5t-9.5 -32.5q-12 -41 3 -70q18 -36 23 -42q9 -9 22 -7.5
t20 13t13 25t13 25.5t16.5 14t24.5 0.5t20.5 -1.5t13.5 -6.5t8.5 -29t1.5 -36t-7 -24t-10.5 -19t-3.5 -16.5q-1 -21 -7.5 -31t-12 -16.5t-28.5 -6.5q-28 0 -52 -31q-1 -2 -3 -4q11 -8 21 -4t23.5 -0.5t16.5 -16.5q0 -2 8 -5q14 -5 15 -14q0 -5 3 -10q6 -6 8 -21t3 -21t1 -9
q-1 -5 -4.5 -15t-6.5 -21q-6 -25 -25 -32q-9 -3 -18 -14q-50 -15 -71.5 -11.5t-35.5 3t-24.5 7t-24.5 8.5q-8 0 -8 24z" />
    <glyph glyph-name="Egrave" unicode="&#xc8;" horiz-adv-x="430" 
d="M27 595l2 57q0 14 -2.5 28t7 29.5t28.5 27.5t43 12t38 -8t26 -13t27 -8q32 -5 62 9q33 16 53 -2q21 -1 44 4q38 8 52 1q31 -18 10 -72q-3 -8 -3 -14v-12q0 -18 -3 -27t-3 -15v-14q2 -16 -5 -31q-4 -9 -4 -14.5v-10.5q0 -13 -14 -25q-23 -24 -38 -24q-3 0 -6 2t-9 4
q-24 8 -50.5 10t-38.5 -1q-30 -6 -37 -29q-8 -24 4 -37q5 -6 11 -8t11.5 -0.5t15 -0.5t19.5 -5q27 -6 36.5 -1.5t13 3.5t5.5 -3q7 -7 13 -7q16 1 22 -13.5t-2 -35.5q0 -3 -3 -15q-7 -24 -6.5 -33t-3.5 -18.5t-11 -16.5q-17 -15 -37 -9q-9 4 -16 11q-51 15 -69 -7
q-10 -12 -11 -21t-1 -32v-37q13 -9 24 -20.5t27 -12.5t28.5 2.5t23.5 7.5q24 10 44 3.5t25 -17.5t2 -29t-2.5 -26.5t0.5 -15.5q0 -17 -13 -33q-14 -21 -26 -25.5t-31 -2t-31 -2t-21.5 -11.5t-18.5 -13q-15 -10 -34 0l-14 8q-18 9 -44 7.5t-46 15t-20.5 40.5t2.5 34.5t6 16.5
q4 13 -4 20q-24 19 -17 50q3 16 6 25t1 19.5t-1.5 19t-0.5 16.5q-2 16 -14 18q-15 2 -20 32q-6 29 4.5 58t8.5 45.5t-3 30.5l1 39q0 29 -5 39t-3 29.5t-1 30t-3 23.5zM313 832.5q6 -18.5 -2.5 -29.5t-22.5 -13.5t-27.5 11.5t-22.5 16t-11 7q-2 9 -9 16.5t-10 5.5
q-6 -4 -15 3l-14 11q-5 4 -9.5 5.5t-12.5 12.5t-5.5 27.5t11.5 19t15 5.5t16 -1t22 -10q26 -14 33 -25q9 -15 46 -36q12 -7 18 -25.5z" />
    <glyph glyph-name="Eacute" unicode="&#xc9;" horiz-adv-x="430" 
d="M27 595l2 57q0 14 -2.5 28t7 29.5t28.5 27.5t43 12t38 -8t26 -13t27 -8q32 -5 62 9q33 16 53 -2q21 -1 44 4q38 8 52 1q31 -18 10 -72q-3 -8 -3 -14v-12q0 -18 -3 -27t-3 -15v-14q2 -16 -5 -31q-4 -9 -4 -14.5v-10.5q0 -13 -14 -25q-23 -24 -38 -24q-3 0 -6 2t-9 4
q-24 8 -50.5 10t-38.5 -1q-30 -6 -37 -29q-8 -24 4 -37q5 -6 11 -8t11.5 -0.5t15 -0.5t19.5 -5q27 -6 36.5 -1.5t13 3.5t5.5 -3q7 -7 13 -7q16 1 22 -13.5t-2 -35.5q0 -3 -3 -15q-7 -24 -6.5 -33t-3.5 -18.5t-11 -16.5q-17 -15 -37 -9q-9 4 -16 11q-51 15 -69 -7
q-10 -12 -11 -21t-1 -32v-37q13 -9 24 -20.5t27 -12.5t28.5 2.5t23.5 7.5q24 10 44 3.5t25 -17.5t2 -29t-2.5 -26.5t0.5 -15.5q0 -17 -13 -33q-14 -21 -26 -25.5t-31 -2t-31 -2t-21.5 -11.5t-18.5 -13q-15 -10 -34 0l-14 8q-18 9 -44 7.5t-46 15t-20.5 40.5t2.5 34.5t6 16.5
q4 13 -4 20q-24 19 -17 50q3 16 6 25t1 19.5t-1.5 19t-0.5 16.5q-2 16 -14 18q-15 2 -20 32q-6 29 4.5 58t8.5 45.5t-3 30.5l1 39q0 29 -5 39t-3 29.5t-1 30t-3 23.5zM209 779.5q-14 2.5 -22.5 13.5t-2.5 29.5t18 25.5q36 21 42.5 30.5t16 17t20.5 13.5q28 15 36 11.5t17 -6
t11 -19t-5.5 -27.5t-12 -12.5t-9.5 -5.5l-10 -8q-13 -10 -19 -6q-3 2 -10 -5.5t-9 -16.5q-2 -5 -11 -7t-22.5 -16t-27.5 -11.5z" />
    <glyph glyph-name="Ecircumflex" unicode="&#xca;" horiz-adv-x="430" 
d="M27 595l2 57q0 14 -2.5 28t7 29.5t28.5 27.5t43 12t38 -8t26 -13t27 -8q32 -5 62 9q33 16 53 -2q21 -1 44 4q38 8 52 1q31 -18 10 -72q-3 -8 -3 -14v-12q0 -18 -3 -27t-3 -15v-14q2 -16 -5 -31q-4 -9 -4 -14.5v-10.5q0 -13 -14 -25q-23 -24 -38 -24q-3 0 -6 2t-9 4
q-24 8 -50.5 10t-38.5 -1q-30 -6 -37 -29q-8 -24 4 -37q5 -6 11 -8t11.5 -0.5t15 -0.5t19.5 -5q27 -6 36.5 -1.5t13 3.5t5.5 -3q7 -7 13 -7q16 1 22 -13.5t-2 -35.5q0 -3 -3 -15q-7 -24 -6.5 -33t-3.5 -18.5t-11 -16.5q-17 -15 -37 -9q-9 4 -16 11q-51 15 -69 -7
q-10 -12 -11 -21t-1 -32v-37q13 -9 24 -20.5t27 -12.5t28.5 2.5t23.5 7.5q24 10 44 3.5t25 -17.5t2 -29t-2.5 -26.5t0.5 -15.5q0 -17 -13 -33q-14 -21 -26 -25.5t-31 -2t-31 -2t-21.5 -11.5t-18.5 -13q-15 -10 -34 0l-14 8q-18 9 -44 7.5t-46 15t-20.5 40.5t2.5 34.5t6 16.5
q4 13 -4 20q-24 19 -17 50q3 16 6 25t1 19.5t-1.5 19t-0.5 16.5q-2 16 -14 18q-15 2 -20 32q-6 29 4.5 58t8.5 45.5t-3 30.5l1 39q0 29 -5 39t-3 29.5t-1 30t-3 23.5zM100 836q-4 26 54 63q30 20 46 33t22 16q10 5 25 -1q14 -8 22.5 -20.5t18.5 -15.5t12 -6t3.5 -6t4.5 -3.5
t6 -1.5q10 -1 16.5 -9.5t13.5 -10.5q25 -9 22.5 -24t-13 -25.5t-18 -11t-15.5 4.5t-19 10t-17 16t-14 13t-13 9t-16.5 9t-14.5 4t-10.5 -4.5t-11.5 -14.5t-13 -12.5t-10.5 -13.5t-10 -11t-16 -8t-25.5 -5q-26 2 -29 26z" />
    <glyph glyph-name="Edieresis" unicode="&#xcb;" horiz-adv-x="430" 
d="M27 595l2 57q0 14 -2.5 28t7 29.5t28.5 27.5t43 12t38 -8t26 -13t27 -8q32 -5 62 9q33 16 53 -2q21 -1 44 4q38 8 52 1q31 -18 10 -72q-3 -8 -3 -14v-12q0 -18 -3 -27t-3 -15v-14q2 -16 -5 -31q-4 -9 -4 -14.5v-10.5q0 -13 -14 -25q-23 -24 -38 -24q-3 0 -6 2t-9 4
q-24 8 -50.5 10t-38.5 -1q-30 -6 -37 -29q-8 -24 4 -37q5 -6 11 -8t11.5 -0.5t15 -0.5t19.5 -5q27 -6 36.5 -1.5t13 3.5t5.5 -3q7 -7 13 -7q16 1 22 -13.5t-2 -35.5q0 -3 -3 -15q-7 -24 -6.5 -33t-3.5 -18.5t-11 -16.5q-17 -15 -37 -9q-9 4 -16 11q-51 15 -69 -7
q-10 -12 -11 -21t-1 -32v-37q13 -9 24 -20.5t27 -12.5t28.5 2.5t23.5 7.5q24 10 44 3.5t25 -17.5t2 -29t-2.5 -26.5t0.5 -15.5q0 -17 -13 -33q-14 -21 -26 -25.5t-31 -2t-31 -2t-21.5 -11.5t-18.5 -13q-15 -10 -34 0l-14 8q-18 9 -44 7.5t-46 15t-20.5 40.5t2.5 34.5t6 16.5
q4 13 -4 20q-24 19 -17 50q3 16 6 25t1 19.5t-1.5 19t-0.5 16.5q-2 16 -14 18q-15 2 -20 32q-6 29 4.5 58t8.5 45.5t-3 30.5l1 39q0 29 -5 39t-3 29.5t-1 30t-3 23.5zM100 890q15 16 27.5 16.5t23 -3t19.5 -10.5q23 -18 21 -44q0 -27 -23 -44q-19 -15 -39 -10t-34 19t-12 37
t17 39zM349 805.5q-14 -10.5 -34 -12t-28.5 10t-9 11.5t-5.5 5t-5 15.5t-3.5 15t3.5 17t12 16t9.5 8t11.5 8.5q42 22 68 -23q4 -6 9.5 -12t6.5 -20t-10 -21.5t-25 -18z" />
    <glyph glyph-name="Igrave" unicode="&#xcc;" horiz-adv-x="315" 
d="M230 155q7 -17 21 -17q13 0 17 -5q7 -11 0 -42q-4 -18 -4.5 -28t-1.5 -17q-2 -12 -14 -26q-13 -11 -28.5 -15.5t-25.5 -7t-22 -8.5q-18 -9 -30.5 -8t-19 1.5t-15 -2.5t-13.5 -2.5t-10 2.5q-15 6 -28 6q-18 0 -24 60q-3 24 -1 46t7 28.5t12 9t13 4t11 2.5q6 3 6.5 21.5
t1.5 34.5q1 44 7 62q10 27 -3 46q-13 23 -10 86q2 38 -1 62q-4 47 -3 66q1 14 1 22t-1 12q-3 8 -18 8.5t-28 13.5t-11 41q3 28 0 51t3 36t7 22t3 16q6 16 27.5 18t40 -0.5t34.5 -6.5q42 -10 55 -10q10 0 22.5 2.5t24.5 4.5q28 5 42.5 -3t18 -19t3.5 -23.5t-1.5 -26.5
t1.5 -30q9 -36 1 -58.5t-15 -27t-13.5 -5.5t-13 -1.5t-11.5 -7.5q-8 -13 -8 -100l2 -167q0 -64 -8 -120zM242 852.5q6 -18.5 -2.5 -29.5t-22.5 -13.5t-27.5 11.5t-22.5 16t-11 7q-2 9 -9 16.5t-10 5.5q-6 -4 -15 3l-14 11q-5 4 -9.5 5.5t-12.5 12.5t-5.5 27.5t11.5 19
t15 5.5t16 -1t22 -10q26 -14 33 -25q9 -15 46 -36q12 -7 18 -25.5z" />
    <glyph glyph-name="Iacute" unicode="&#xcd;" horiz-adv-x="315" 
d="M230 155q7 -17 21 -17q13 0 17 -5q7 -11 0 -42q-4 -18 -4.5 -28t-1.5 -17q-2 -12 -14 -26q-13 -11 -28.5 -15.5t-25.5 -7t-22 -8.5q-18 -9 -30.5 -8t-19 1.5t-15 -2.5t-13.5 -2.5t-10 2.5q-15 6 -28 6q-18 0 -24 60q-3 24 -1 46t7 28.5t12 9t13 4t11 2.5q6 3 6.5 21.5
t1.5 34.5q1 44 7 62q10 27 -3 46q-13 23 -10 86q2 38 -1 62q-4 47 -3 66q1 14 1 22t-1 12q-3 8 -18 8.5t-28 13.5t-11 41q3 28 0 51t3 36t7 22t3 16q6 16 27.5 18t40 -0.5t34.5 -6.5q42 -10 55 -10q10 0 22.5 2.5t24.5 4.5q28 5 42.5 -3t18 -19t3.5 -23.5t-1.5 -26.5
t1.5 -30q9 -36 1 -58.5t-15 -27t-13.5 -5.5t-13 -1.5t-11.5 -7.5q-8 -13 -8 -100l2 -167q0 -64 -8 -120zM138 809.5q-14 2.5 -22.5 13.5t-2.5 29.5t18 25.5q36 21 42.5 30.5t16 17t20.5 13.5q28 15 36 11.5t17 -6t11 -19t-5.5 -27.5t-12 -12.5t-9.5 -5.5l-10 -8
q-13 -10 -19 -6q-3 2 -10 -5.5t-9 -16.5q-2 -5 -11 -7t-22.5 -16t-27.5 -11.5z" />
    <glyph glyph-name="Icircumflex" unicode="&#xce;" horiz-adv-x="315" 
d="M230 155q7 -17 21 -17q13 0 17 -5q7 -11 0 -42q-4 -18 -4.5 -28t-1.5 -17q-2 -12 -14 -26q-13 -11 -28.5 -15.5t-25.5 -7t-22 -8.5q-18 -9 -30.5 -8t-19 1.5t-15 -2.5t-13.5 -2.5t-10 2.5q-15 6 -28 6q-18 0 -24 60q-3 24 -1 46t7 28.5t12 9t13 4t11 2.5q6 3 6.5 21.5
t1.5 34.5q1 44 7 62q10 27 -3 46q-13 23 -10 86q2 38 -1 62q-4 47 -3 66q1 14 1 22t-1 12q-3 8 -18 8.5t-28 13.5t-11 41q3 28 0 51t3 36t7 22t3 16q6 16 27.5 18t40 -0.5t34.5 -6.5q42 -10 55 -10q10 0 22.5 2.5t24.5 4.5q28 5 42.5 -3t18 -19t3.5 -23.5t-1.5 -26.5
t1.5 -30q9 -36 1 -58.5t-15 -27t-13.5 -5.5t-13 -1.5t-11.5 -7.5q-8 -13 -8 -100l2 -167q0 -64 -8 -120zM29 836q-4 26 54 63q30 20 46 33t22 16q10 5 25 -1q14 -8 22.5 -20.5t18.5 -15.5t12 -6t3.5 -6t4.5 -3.5t6 -1.5q10 -1 16.5 -9.5t13.5 -10.5q25 -9 22.5 -24
t-13 -25.5t-18 -11t-15.5 4.5t-19 10t-17 16t-14 13t-13 9t-16.5 9t-14.5 4t-10.5 -4.5t-11.5 -14.5t-13 -12.5t-10.5 -13.5t-10 -11t-16 -8t-25.5 -5q-26 2 -29 26z" />
    <glyph glyph-name="Idieresis" unicode="&#xcf;" horiz-adv-x="315" 
d="M230 155q7 -17 21 -17q13 0 17 -5q7 -11 0 -42q-4 -18 -4.5 -28t-1.5 -17q-2 -12 -14 -26q-13 -11 -28.5 -15.5t-25.5 -7t-22 -8.5q-18 -9 -30.5 -8t-19 1.5t-15 -2.5t-13.5 -2.5t-10 2.5q-15 6 -28 6q-18 0 -24 60q-3 24 -1 46t7 28.5t12 9t13 4t11 2.5q6 3 6.5 21.5
t1.5 34.5q1 44 7 62q10 27 -3 46q-13 23 -10 86q2 38 -1 62q-4 47 -3 66q1 14 1 22t-1 12q-3 8 -18 8.5t-28 13.5t-11 41q3 28 0 51t3 36t7 22t3 16q6 16 27.5 18t40 -0.5t34.5 -6.5q42 -10 55 -10q10 0 22.5 2.5t24.5 4.5q28 5 42.5 -3t18 -19t3.5 -23.5t-1.5 -26.5
t1.5 -30q9 -36 1 -58.5t-15 -27t-13.5 -5.5t-13 -1.5t-11.5 -7.5q-8 -13 -8 -100l2 -167q0 -64 -8 -120zM29 900q15 16 27.5 16.5t23 -3t19.5 -10.5q23 -18 21 -44q0 -27 -23 -44q-19 -15 -39 -10t-34 19t-12 37t17 39zM278 815.5q-14 -10.5 -34 -12t-28.5 10t-9 11.5
t-5.5 5t-5 15.5t-3.5 15t3.5 17t12 16t9.5 8t11.5 8.5q42 22 68 -23q4 -6 9.5 -12t6.5 -20t-10 -21.5t-25 -18z" />
    <glyph glyph-name="Eth" unicode="&#xd0;" horiz-adv-x="444" 
d="M41 412l-1 52v30q0 15 3 28q12 48 5 82q-17 83 5 116q27 36 69 33q15 -1 31.5 -12t35 -15t35.5 -5q44 -3 54 -11t19 -12.5t17 -7.5q19 -9 23 -18.5t11 -17t15 -16.5q19 -22 24 -49q3 -17 5 -30t5 -25q9 -39 21 -69q23 -60 11 -94l-1 -4q6 -17 3 -32.5t-4.5 -24t-4 -18
t-6 -21.5t-8.5 -30.5t-10.5 -32t-11.5 -24.5q-12 -22 -62 -74q-16 -16 -23.5 -33t-18.5 -24q-12 -27 -24 -36q-24 -18 -62 -13q-27 -21 -40.5 -26t-27 -5t-28 8t-19 19t-4.5 24.5t1 29.5q2 29 -8 50t-12 31q-6 21 -4 61q1 33 -1 39q-5 9 2 60q-9 0 -16.5 -1t-20 -1.5
t-23.5 3.5q-26 8 -26 36q0 34 41 36q11 0 20 -3q9 7 20 7v1q-6 10 -7.5 16t-1.5 23zM194 487q-12 -9 -12 -30t4 -69v-12q17 1 28 -4t8.5 -28.5t-11 -33t-30.5 -11.5q4 -23 2 -39t2 -25.5t2.5 -20t-2.5 -20.5q-2 -27 11 -28q20 -3 36 57q4 15 6 27q1 12 5 21t7 17
q10 24 10 36.5t1.5 16t3 7.5t3.5 9t4 19q4 43 -29 71q-14 11 -23.5 26t-14 17t-11.5 -3z" />
    <glyph glyph-name="Ntilde" unicode="&#xd1;" horiz-adv-x="529" 
d="M391 746q31 9 45 -7q26 5 48 -12t11 -65q-7 -24 -4 -34t8.5 -20t3.5 -23.5t-5 -29.5q-10 -45 -4 -73q15 -66 -12 -138q-29 -79 -18 -190q9 -80 6.5 -104.5t-11.5 -39.5t-30 -15q-36 0 -50 21q-8 12 -8 31t-5.5 34t-13.5 28q-19 28 -36 39q-28 19 -43 91q-9 53 -23 87
q-4 10 -6 21.5t-4 22.5q-6 24 -21 24q-23 0 -18 -66q1 -14 4.5 -25.5t0.5 -27.5t-8 -33q-12 -44 -5 -65q7 -24 5 -50.5t-8 -41t-21 -20.5q-9 -16 -15 -36.5t-8.5 -27.5t-6.5 -8q-17 -6 -34.5 2t-22.5 22.5t-4.5 27.5t-3 23.5t-3 17.5t0.5 14q2 16 -5 24q-9 10 -9.5 27
t-0.5 29t2 20q7 19 6 58q-3 73 -18 88q-19 19 -21 70q-1 12 1.5 22.5t1 21.5t3.5 22q8 21 5 59.5t-3.5 55t-2 35t3 33t15.5 25.5q25 27 70 27q20 14 46.5 22t44.5 1t25 -22t11.5 -32t9 -34.5t15.5 -28.5t16 -26.5t9 -29.5t8 -23.5t13 -9.5t10.5 25.5t1 58.5t-1 64.5t5.5 46
t21.5 21.5t35.5 -4zM304 871q7 10 18 10q11 14 29.5 18t33.5 1.5t23 -11t4 -15.5t-3 -14.5t-6.5 -11.5t-25.5 -13t-28.5 -15t-18.5 -8t-25 0t-22 2.5t-8 1.5q-14 6 -22 16.5t-10 13.5q-5 4 -18.5 1.5t-17.5 -11t-12 -12.5q-5 -1 -16 -8q-18 -10 -24 -10t-17.5 4t-13.5 10.5
t-2 13t-2.5 13t-5 10.5t2.5 12t8.5 9t10 6.5t15 7t16 5.5t19.5 11q18 12 29 1q9 9 21.5 4.5t20 -6.5t7.5 -8.5t8 -15.5t12.5 -9t19.5 -3z" />
    <glyph glyph-name="Ograve" unicode="&#xd2;" horiz-adv-x="467" 
d="M36 585q0 13 4 30.5t20.5 32t28.5 29t21 29.5t22 24q45 31 126 24q33 -3 70 -24q18 -10 31 -36.5t18 -36.5t13 -14.5t14.5 -12.5t14 -25.5t13.5 -40.5q16 -53 14 -89t-3 -73q-2 -66 -13 -95t-16.5 -48.5t-6.5 -35.5t-1 -31q-2 -40 -5.5 -48t-11.5 -16t-17.5 -15.5
t-18.5 -14.5t-13 -11.5t-9.5 -12.5t-11 -17t-10 -16.5t-6.5 -11t-7 -12.5t-12 -19q-39 -48 -74 -4q-3 5 -9.5 5t-15 -4.5t-23.5 0.5t-23.5 16.5t-16 18.5t-14.5 11t-14 7q-19 10 -20 16.5t-1.5 12.5t-2.5 15q-8 48 -39 136q-24 66 -13 137q8 52 15 87q11 53 8.5 74t-4 33.5
t-1.5 25.5zM207 488.5q-6 -12.5 -9 -24t-7.5 -18.5t-8.5 -14q-17 -25 -4 -52q19 -39 20 -51.5t2 -36t4 -48.5q9 -63 27 -63q10 0 19 23q2 5 2.5 17t3.5 28q11 57 8.5 79t-3 39t-0.5 35v61q0 22 -5.5 31.5t-24 8t-24.5 -14zM313 852.5q6 -18.5 -2.5 -29.5t-22.5 -13.5
t-27.5 11.5t-22.5 16t-11 7q-2 9 -9 16.5t-10 5.5q-6 -4 -15 3l-14 11q-5 4 -9.5 5.5t-12.5 12.5t-5.5 27.5t11.5 19t15 5.5t16 -1t22 -10q26 -14 33 -25q9 -15 46 -36q12 -7 18 -25.5z" />
    <glyph glyph-name="Oacute" unicode="&#xd3;" horiz-adv-x="467" 
d="M36 585q0 13 4 30.5t20.5 32t28.5 29t21 29.5t22 24q45 31 126 24q33 -3 70 -24q18 -10 31 -36.5t18 -36.5t13 -14.5t14.5 -12.5t14 -25.5t13.5 -40.5q16 -53 14 -89t-3 -73q-2 -66 -13 -95t-16.5 -48.5t-6.5 -35.5t-1 -31q-2 -40 -5.5 -48t-11.5 -16t-17.5 -15.5
t-18.5 -14.5t-13 -11.5t-9.5 -12.5t-11 -17t-10 -16.5t-6.5 -11t-7 -12.5t-12 -19q-39 -48 -74 -4q-3 5 -9.5 5t-15 -4.5t-23.5 0.5t-23.5 16.5t-16 18.5t-14.5 11t-14 7q-19 10 -20 16.5t-1.5 12.5t-2.5 15q-8 48 -39 136q-24 66 -13 137q8 52 15 87q11 53 8.5 74t-4 33.5
t-1.5 25.5zM207 488.5q-6 -12.5 -9 -24t-7.5 -18.5t-8.5 -14q-17 -25 -4 -52q19 -39 20 -51.5t2 -36t4 -48.5q9 -63 27 -63q10 0 19 23q2 5 2.5 17t3.5 28q11 57 8.5 79t-3 39t-0.5 35v61q0 22 -5.5 31.5t-24 8t-24.5 -14zM188 799.5q-14 2.5 -22.5 13.5t-2.5 29.5t18 25.5
q36 21 42.5 30.5t16 17t20.5 13.5q28 15 36 11.5t17 -6t11 -19t-5.5 -27.5t-12 -12.5t-9.5 -5.5l-10 -8q-13 -10 -19 -6q-3 2 -10 -5.5t-9 -16.5q-2 -5 -11 -7t-22.5 -16t-27.5 -11.5z" />
    <glyph glyph-name="Ocircumflex" unicode="&#xd4;" horiz-adv-x="467" 
d="M36 585q0 13 4 30.5t20.5 32t28.5 29t21 29.5t22 24q45 31 126 24q33 -3 70 -24q18 -10 31 -36.5t18 -36.5t13 -14.5t14.5 -12.5t14 -25.5t13.5 -40.5q16 -53 14 -89t-3 -73q-2 -66 -13 -95t-16.5 -48.5t-6.5 -35.5t-1 -31q-2 -40 -5.5 -48t-11.5 -16t-17.5 -15.5
t-18.5 -14.5t-13 -11.5t-9.5 -12.5t-11 -17t-10 -16.5t-6.5 -11t-7 -12.5t-12 -19q-39 -48 -74 -4q-3 5 -9.5 5t-15 -4.5t-23.5 0.5t-23.5 16.5t-16 18.5t-14.5 11t-14 7q-19 10 -20 16.5t-1.5 12.5t-2.5 15q-8 48 -39 136q-24 66 -13 137q8 52 15 87q11 53 8.5 74t-4 33.5
t-1.5 25.5zM207 488.5q-6 -12.5 -9 -24t-7.5 -18.5t-8.5 -14q-17 -25 -4 -52q19 -39 20 -51.5t2 -36t4 -48.5q9 -63 27 -63q10 0 19 23q2 5 2.5 17t3.5 28q11 57 8.5 79t-3 39t-0.5 35v61q0 22 -5.5 31.5t-24 8t-24.5 -14zM100 847q-4 26 54 63q30 20 46 33t22 16
q10 5 25 -1q14 -8 22.5 -20.5t18.5 -15.5t12 -6t3.5 -6t4.5 -3.5t6 -1.5q10 -1 16.5 -9.5t13.5 -10.5q25 -9 22.5 -24t-13 -25.5t-18 -11t-15.5 4.5t-19 10t-17 16t-14 13t-13 9t-16.5 9t-14.5 4t-10.5 -4.5t-11.5 -14.5t-13 -12.5t-10.5 -13.5t-10 -11t-16 -8t-25.5 -5
q-26 2 -29 26z" />
    <glyph glyph-name="Otilde" unicode="&#xd5;" horiz-adv-x="467" 
d="M36 585q0 13 4 30.5t20.5 32t28.5 29t21 29.5t22 24q45 31 126 24q33 -3 70 -24q18 -10 31 -36.5t18 -36.5t13 -14.5t14.5 -12.5t14 -25.5t13.5 -40.5q16 -53 14 -89t-3 -73q-2 -66 -13 -95t-16.5 -48.5t-6.5 -35.5t-1 -31q-2 -40 -5.5 -48t-11.5 -16t-17.5 -15.5
t-18.5 -14.5t-13 -11.5t-9.5 -12.5t-11 -17t-10 -16.5t-6.5 -11t-7 -12.5t-12 -19q-39 -48 -74 -4q-3 5 -9.5 5t-15 -4.5t-23.5 0.5t-23.5 16.5t-16 18.5t-14.5 11t-14 7q-19 10 -20 16.5t-1.5 12.5t-2.5 15q-8 48 -39 136q-24 66 -13 137q8 52 15 87q11 53 8.5 74t-4 33.5
t-1.5 25.5zM207 488.5q-6 -12.5 -9 -24t-7.5 -18.5t-8.5 -14q-17 -25 -4 -52q19 -39 20 -51.5t2 -36t4 -48.5q9 -63 27 -63q10 0 19 23q2 5 2.5 17t3.5 28q11 57 8.5 79t-3 39t-0.5 35v61q0 22 -5.5 31.5t-24 8t-24.5 -14zM273 881q7 10 18 10q11 14 29.5 18t33.5 1.5
t23 -11t4 -15.5t-3 -14.5t-6.5 -11.5t-25.5 -13t-28.5 -15t-18.5 -8t-25 0t-22 2.5t-8 1.5q-14 6 -22 16.5t-10 13.5q-5 4 -18.5 1.5t-17.5 -11t-12 -12.5q-5 -1 -16 -8q-18 -10 -24 -10t-17.5 4t-13.5 10.5t-2 13t-2.5 13t-5 10.5t2.5 12t8.5 9t10 6.5t15 7t16 5.5t19.5 11
q18 12 29 1q9 9 21.5 4.5t20 -6.5t7.5 -8.5t8 -15.5t12.5 -9t19.5 -3z" />
    <glyph glyph-name="Odieresis" unicode="&#xd6;" horiz-adv-x="467" 
d="M36 585q0 13 4 30.5t20.5 32t28.5 29t21 29.5t22 24q45 31 126 24q33 -3 70 -24q18 -10 31 -36.5t18 -36.5t13 -14.5t14.5 -12.5t14 -25.5t13.5 -40.5q16 -53 14 -89t-3 -73q-2 -66 -13 -95t-16.5 -48.5t-6.5 -35.5t-1 -31q-2 -40 -5.5 -48t-11.5 -16t-17.5 -15.5
t-18.5 -14.5t-13 -11.5t-9.5 -12.5t-11 -17t-10 -16.5t-6.5 -11t-7 -12.5t-12 -19q-39 -48 -74 -4q-3 5 -9.5 5t-15 -4.5t-23.5 0.5t-23.5 16.5t-16 18.5t-14.5 11t-14 7q-19 10 -20 16.5t-1.5 12.5t-2.5 15q-8 48 -39 136q-24 66 -13 137q8 52 15 87q11 53 8.5 74t-4 33.5
t-1.5 25.5zM207 488.5q-6 -12.5 -9 -24t-7.5 -18.5t-8.5 -14q-17 -25 -4 -52q19 -39 20 -51.5t2 -36t4 -48.5q9 -63 27 -63q10 0 19 23q2 5 2.5 17t3.5 28q11 57 8.5 79t-3 39t-0.5 35v61q0 22 -5.5 31.5t-24 8t-24.5 -14zM110 890q15 16 27.5 16.5t23 -3t19.5 -10.5
q23 -18 21 -44q0 -27 -23 -44q-19 -15 -39 -10t-34 19t-12 37t17 39zM359 805.5q-14 -10.5 -34 -12t-28.5 10t-9 11.5t-5.5 5t-5 15.5t-3.5 15t3.5 17t12 16t9.5 8t11.5 8.5q42 22 68 -23q4 -6 9.5 -12t6.5 -20t-10 -21.5t-25 -18z" />
    <glyph glyph-name="multiply" unicode="&#xd7;" horiz-adv-x="370" 
d="M302.5 518q8.5 -3 16.5 -10.5t13 -17.5q14 -22 0 -38q-2 -10 -13 -19t-20 -17t-11.5 -12t-4.5 -7q-5 -7 -13 -9q-14 -4 -24 -20q13 -18 25.5 -29t20.5 -18t11 -10.5t5 -6.5q7 -9 16.5 -13t17.5 -10t12 -14q11 -18 -5 -45t-47 -25q-24 2 -45 23q-10 12 -15 15q-6 3 -11 16
q-7 17 -45 46q-5 -11 -8.5 -19.5t-8.5 -10.5q-6 -2 -9 -9q-8 -13 -16.5 -15.5t-16.5 -16t-19.5 -18t-18 -6.5t-11.5 -7q-14 5 -30 13t-19 21.5t6.5 30.5t18.5 25q5 3 12.5 6t14.5 7q17 8 19 15.5t4 9.5t6 4q12 6 21 15q-41 54 -97 93q-11 8 -17 14.5t-7 25.5t18 34
q39 31 80 -10q7 -8 16.5 -20t20 -25t21 -26.5t18.5 -23.5q28 29 50 56q37 42 48.5 51.5t20 6.5z" />
    <glyph glyph-name="Oslash" unicode="&#xd8;" horiz-adv-x="489" 
d="M449 728q28 -4 24 -43q0 -11 -7.5 -22.5t-12.5 -15.5t-9.5 -9t-8 -17.5t-10.5 -23.5q1 -11 5 -20q14 -27 9.5 -62.5t-3 -50t5 -21.5t6.5 -14q8 -19 8 -38q0 -24 -16 -48q-7 -9 -5 -35t3 -52q1 -65 -7 -80.5t-11.5 -18.5t-6.5 -5q-15 -7 -26.5 -41.5t-30.5 -56t-39.5 -35
t-32 -21t-16.5 -14.5l-10 -14q-13 -16 -33 -16q-34 0 -50 16q-7 9 -15 26q-15 27 -40 44q-16 11 -22 22q-16 -16 -17 -29q-2 -23 -5.5 -27.5t-10.5 -4.5t-14 3q-17 9 -19 27q-2 20 26 58q12 16 17.5 26.5t9.5 17.5q0 32 -8 53.5t-9 35.5q-5 42 -28 45q-17 2 -20 51
q-1 25 2 47.5t8 38.5q8 29 5 67.5t0 68.5q5 56 24 91q9 15 26.5 30t34.5 29q11 10 19 21.5t21 21.5q35 29 70 17q43 -16 79 -20t52.5 -18t23.5 -23t8.5 -11.5t3.5 -4.5q23 46 32.5 51.5t19.5 3.5zM233 388q22 25 22 45.5t21 38.5q-15 39 -39 39q-22 0 -40 -49
q-16 -43 -13.5 -57.5t10.5 -22.5q12 -15 12 -44q22 43 27 50zM210 228q10 -48 35 -48q31 0 43 120q4 33 4 54v27q0 6 -1 12q-4 -5 -7.5 -9t-8.5 -13t-9.5 -30t-14.5 -39t-21.5 -33t-19.5 -41z" />
    <glyph glyph-name="Ugrave" unicode="&#xd9;" horiz-adv-x="497" 
d="M230 632l-4 -108q0 -18 1.5 -29.5t2.5 -19.5q4 -29 -6 -72.5t-4 -78.5q1 -8 3 -11t3 -6q5 -9 5.5 -23t10.5 -30t24.5 -14.5t24 29.5t5 76t-6 73t-1.5 45q-1 35 3 70q9 74 3 124q-2 18 -4 40.5t10 33.5t25 9.5t32 -3.5t31 -0.5t22 3.5q26 3 34 -3.5t12 -11.5t7 -17
q6 -24 4 -79q-2 -91 2 -157t0 -100t-2.5 -63t-5.5 -55t-12.5 -50t-10.5 -37t-10 -25q-11 -30 -15 -57q-7 -42 -29 -56q-10 -8 -22 -8.5t-18 -4t-12 -9t-13 -11.5q-18 -14 -25.5 -12t-12.5 8t-9 13q-11 19 -16 20t-15.5 -2t-24.5 -6q-68 -14 -104 33q-29 38 -42 96
q-5 25 -10.5 55t-15 52.5t-12.5 37.5t-0.5 29t5.5 31q9 49 4.5 78t-8 47.5t-5.5 36.5q-5 36 2 86q4 27 5.5 48.5t3.5 37.5q6 50 41 53q18 2 38.5 0t28.5 -1l31 3q24 0 33 -14q19 -24 19 -94zM323 842.5q6 -18.5 -2.5 -29.5t-22.5 -13.5t-27.5 11.5t-22.5 16t-11 7
q-2 9 -9 16.5t-10 5.5q-6 -4 -15 3l-14 11q-5 4 -9.5 5.5t-12.5 12.5t-5.5 27.5t11.5 19t15 5.5t16 -1t22 -10q26 -14 33 -25q9 -15 46 -36q12 -7 18 -25.5z" />
    <glyph glyph-name="Uacute" unicode="&#xda;" horiz-adv-x="497" 
d="M230 632l-4 -108q0 -18 1.5 -29.5t2.5 -19.5q4 -29 -6 -72.5t-4 -78.5q1 -8 3 -11t3 -6q5 -9 5.5 -23t10.5 -30t24.5 -14.5t24 29.5t5 76t-6 73t-1.5 45q-1 35 3 70q9 74 3 124q-2 18 -4 40.5t10 33.5t25 9.5t32 -3.5t31 -0.5t22 3.5q26 3 34 -3.5t12 -11.5t7 -17
q6 -24 4 -79q-2 -91 2 -157t0 -100t-2.5 -63t-5.5 -55t-12.5 -50t-10.5 -37t-10 -25q-11 -30 -15 -57q-7 -42 -29 -56q-10 -8 -22 -8.5t-18 -4t-12 -9t-13 -11.5q-18 -14 -25.5 -12t-12.5 8t-9 13q-11 19 -16 20t-15.5 -2t-24.5 -6q-68 -14 -104 33q-29 38 -42 96
q-5 25 -10.5 55t-15 52.5t-12.5 37.5t-0.5 29t5.5 31q9 49 4.5 78t-8 47.5t-5.5 36.5q-5 36 2 86q4 27 5.5 48.5t3.5 37.5q6 50 41 53q18 2 38.5 0t28.5 -1l31 3q24 0 33 -14q19 -24 19 -94zM219 789.5q-14 2.5 -22.5 13.5t-2.5 29.5t18 25.5q36 21 42.5 30.5t16 17
t20.5 13.5q28 15 36 11.5t17 -6t11 -19t-5.5 -27.5t-12 -12.5t-9.5 -5.5l-10 -8q-13 -10 -19 -6q-3 2 -10 -5.5t-9 -16.5q-2 -5 -11 -7t-22.5 -16t-27.5 -11.5z" />
    <glyph glyph-name="Ucircumflex" unicode="&#xdb;" horiz-adv-x="497" 
d="M230 632l-4 -108q0 -18 1.5 -29.5t2.5 -19.5q4 -29 -6 -72.5t-4 -78.5q1 -8 3 -11t3 -6q5 -9 5.5 -23t10.5 -30t24.5 -14.5t24 29.5t5 76t-6 73t-1.5 45q-1 35 3 70q9 74 3 124q-2 18 -4 40.5t10 33.5t25 9.5t32 -3.5t31 -0.5t22 3.5q26 3 34 -3.5t12 -11.5t7 -17
q6 -24 4 -79q-2 -91 2 -157t0 -100t-2.5 -63t-5.5 -55t-12.5 -50t-10.5 -37t-10 -25q-11 -30 -15 -57q-7 -42 -29 -56q-10 -8 -22 -8.5t-18 -4t-12 -9t-13 -11.5q-18 -14 -25.5 -12t-12.5 8t-9 13q-11 19 -16 20t-15.5 -2t-24.5 -6q-68 -14 -104 33q-29 38 -42 96
q-5 25 -10.5 55t-15 52.5t-12.5 37.5t-0.5 29t5.5 31q9 49 4.5 78t-8 47.5t-5.5 36.5q-5 36 2 86q4 27 5.5 48.5t3.5 37.5q6 50 41 53q18 2 38.5 0t28.5 -1l31 3q24 0 33 -14q19 -24 19 -94zM120 836q-4 26 54 63q30 20 46 33t22 16q10 5 25 -1q14 -8 22.5 -20.5t18.5 -15.5
t12 -6t3.5 -6t4.5 -3.5t6 -1.5q10 -1 16.5 -9.5t13.5 -10.5q25 -9 22.5 -24t-13 -25.5t-18 -11t-15.5 4.5t-19 10t-17 16t-14 13t-13 9t-16.5 9t-14.5 4t-10.5 -4.5t-11.5 -14.5t-13 -12.5t-10.5 -13.5t-10 -11t-16 -8t-25.5 -5q-26 2 -29 26z" />
    <glyph glyph-name="Udieresis" unicode="&#xdc;" horiz-adv-x="497" 
d="M230 632l-4 -108q0 -18 1.5 -29.5t2.5 -19.5q4 -29 -6 -72.5t-4 -78.5q1 -8 3 -11t3 -6q5 -9 5.5 -23t10.5 -30t24.5 -14.5t24 29.5t5 76t-6 73t-1.5 45q-1 35 3 70q9 74 3 124q-2 18 -4 40.5t10 33.5t25 9.5t32 -3.5t31 -0.5t22 3.5q26 3 34 -3.5t12 -11.5t7 -17
q6 -24 4 -79q-2 -91 2 -157t0 -100t-2.5 -63t-5.5 -55t-12.5 -50t-10.5 -37t-10 -25q-11 -30 -15 -57q-7 -42 -29 -56q-10 -8 -22 -8.5t-18 -4t-12 -9t-13 -11.5q-18 -14 -25.5 -12t-12.5 8t-9 13q-11 19 -16 20t-15.5 -2t-24.5 -6q-68 -14 -104 33q-29 38 -42 96
q-5 25 -10.5 55t-15 52.5t-12.5 37.5t-0.5 29t5.5 31q9 49 4.5 78t-8 47.5t-5.5 36.5q-5 36 2 86q4 27 5.5 48.5t3.5 37.5q6 50 41 53q18 2 38.5 0t28.5 -1l31 3q24 0 33 -14q19 -24 19 -94zM131 900q15 16 27.5 16.5t23 -3t19.5 -10.5q23 -18 21 -44q0 -27 -23 -44
q-19 -15 -39 -10t-34 19t-12 37t17 39zM380 815.5q-14 -10.5 -34 -12t-28.5 10t-9 11.5t-5.5 5t-5 15.5t-3.5 15t3.5 17t12 16t9.5 8t11.5 8.5q42 22 68 -23q4 -6 9.5 -12t6.5 -20t-10 -21.5t-25 -18z" />
    <glyph glyph-name="Yacute" unicode="&#xdd;" horiz-adv-x="412" 
d="M271 151q5 -45 5.5 -63.5t-1 -30.5t-4.5 -22q-7 -23 -20 -25q-9 0 -17.5 -8.5t-13.5 -12.5t-14.5 -4t-21 3t-20.5 16q-20 29 -13 114q-14 10 -19.5 29t1 56t8 54t0 28.5t-5.5 19t-11 22t-9.5 28t-8.5 20t-8 17t-7 20.5t-6.5 29t-9 31.5t-15 21t-14.5 16.5
q-20 22 -28 37.5t-8.5 26.5t0.5 21q3 26 -2 35l-11 22q-17 34 -17 54t10.5 30t22.5 6t33 -8.5t32.5 -2t21.5 6.5q25 8 40 2.5t20.5 -18t6.5 -27.5t1.5 -30t7 -26t10.5 -19t6.5 -16.5t3.5 -17.5t2.5 -22t5.5 -18.5t9 -5.5q12 2 16 24.5t9 38t9 27.5q9 24 7.5 33.5t-2 20
t3.5 19.5q10 22 42.5 18t52.5 -5t31 8t22 8t19 -9q19 -19 -2.5 -54.5t-28.5 -56t-3.5 -35t2.5 -21.5t-5 -14.5t-10 -17.5q-43 -76 -77 -190q-17 -56 -23 -138q-2 -31 -5 -45zM178 768.5q-14 2.5 -22.5 13.5t-2.5 29.5t18 25.5q36 21 42.5 30.5t16 17t20.5 13.5
q28 15 36 11.5t17 -6t11 -19t-5.5 -27.5t-12 -12.5t-9.5 -5.5l-10 -8q-13 -10 -19 -6q-3 2 -10 -5.5t-9 -16.5q-2 -5 -11 -7t-22.5 -16t-27.5 -11.5z" />
    <glyph glyph-name="Thorn" unicode="&#xde;" horiz-adv-x="457" 
d="M183 86q5 -10 5 -28q0 -33 -13 -46q-21 -21 -55 -32q-15 -5 -30.5 2.5t-34 9t-24 10.5t-5.5 20q0 23 12.5 42t16.5 42q11 60 3 103t-11 62.5t-5.5 37t4 21t7.5 9.5t0.5 13t-2.5 14t-3 11.5t-3.5 19t-4.5 33.5q-4 57 -1 91t-3 67.5t-12.5 62t-8 50.5t8.5 32.5t21 9.5
t24 -4t25.5 -5.5t21.5 3.5q38 23 47 1q3 -6 7 -9t7 -7q7 -8 4.5 -23.5t-2.5 -24t1 -14.5q4 -28 0 -50q6 0 12 -1t13 1t17 -1t18 -2t15 -1t15 -2h18q9 0 14 -3t11 -4.5t13 -3.5q18 -5 21 -15q4 -15 12 -21l12 -9t7 -7q5 -10 17.5 -17.5t17.5 -16.5t13.5 -18.5t8.5 -21
t3 -18.5t6 -16q8 -31 -15 -89q-7 -17 -5.5 -35t-5.5 -30t-10 -19.5t-7 -10.5t-7 -7q-9 -12 -8 -33q2 -42 -32 -65q-22 -15 -44.5 -12.5t-38.5 5t-33 -0.5q-28 -3 -49 -14q2 -28 -6 -36zM188 429.5q0 -7.5 3.5 -14t0.5 -16.5q-6 -19 -4.5 -33t1.5 -31.5t-5 -38t2 -40.5
q2 -7 15 -5q25 5 29.5 17.5t15 18t13 17t9.5 22t7 25t5.5 26t0.5 20.5t-7.5 11t-6.5 3t-11 3q-21 4 -30 12.5t-14 13.5q-11 9 -17.5 3t-6.5 -13.5z" />
    <glyph glyph-name="germandbls" unicode="&#xdf;" horiz-adv-x="837" 
d="M460 684q24 28 58 36q14 4 29 7t31 12q30 17 41.5 17t18 -2t15 -3t18.5 -1t21 -2q38 -4 80 -50q27 -29 33.5 -60t5.5 -61q-1 -38 6 -61.5t8.5 -34.5t-2.5 -30.5t-13.5 -27.5t-21.5 -10t-23.5 -1t-18.5 1t-9.5 -3.5t-4.5 -7.5q-6 -8 -26.5 -1.5t-34 26t-2.5 50.5
q3 10 6 18.5t1 14.5q-4 14 -19 15t-29 -10.5t-18 -32t-2.5 -29.5t1.5 -19t1 -21q4 -27 16 -37q8 -10 18 -9t16 1t17 -5t22.5 -10t21 -16t15.5 -14t12 -5q13 -7 16 -15q12 -31 8.5 -64.5t-5 -43.5t-2.5 -17.5t-2 -13t-1 -16.5q0 -40 -19 -68q-9 -17 -23 -25t-20 -13
q-2 -3 -5 -9t-7 -13q-11 -17 -34 -24q-26 -8 -56 -7.5t-46 3.5t-30 14q-13 13 -21.5 27.5t-13.5 16t-11 1.5h-12q-17 0 -22 8q-5 11 -3.5 19.5t0.5 24.5t0 30t19 29t36 15.5t23.5 6.5t9.5 11t10 6t13 -1q17 -5 17 -20t0.5 -27.5t3.5 -22.5q7 -26 27 -24q21 2 22 42
q1 11 1 21q0 49 -19 72q-11 15 -45.5 32.5t-49.5 30.5q-35 30 -45 79q-12 50 -16.5 55t-8 7t-10.5 12q-10 14 -5 34.5t9 34t4 29.5t-1.5 31.5t-0.5 31.5q2 36 27 66zM397 570q-1 -7 -14 -24t-15.5 -36.5t-1.5 -32t0 -21.5q-1 -22 -24 -30q-20 -8 -31 1t-18 23.5t-10.5 25
t-11.5 11.5q-14 3 -21.5 -3t-11.5 -10q-8 -8 -16.5 -11t-13.5 -6q-10 -7 -8 -23q4 -31 69 -94q12 -12 28.5 -26t32.5 -32q36 -43 40 -97q4 -55 -16 -96q-16 -33 -38 -43q-17 -9 -23 -23.5t-9 -21t-12.5 -11t-21.5 -3.5t-22.5 4.5t-19 8t-14 5.5t-10.5 -3.5t-10 -9.5
q-15 -15 -27 -11.5t-28 11.5t-31 20q-54 42 -37 86q11 29 24.5 41t21.5 12q13 0 17.5 -9.5t7.5 -16t7 -10.5t12.5 -8t18.5 -5q25 -2 38 20t10 48q-7 47 -20 40q-11 -7 -27 -0.5t-17 17t-4 20.5t-7 19q-9 23 -16 25q-8 2 -21.5 2t-29.5 17.5t-23 44t-12 46t-9 30.5t-7 23
q-10 38 -1 98q6 35 22 61.5t36 52.5q38 51 70 71t49 4q15 -13 32.5 -10.5t27.5 5.5l18 4q17 4 34.5 -1t31.5 -34q7 -15 14.5 -26t14.5 -21q15 -24 17.5 -39.5t7 -22.5t7 -13t1.5 -13z" />
    <glyph glyph-name="agrave" unicode="&#xe0;" horiz-adv-x="442" 
d="M97 -12q-10 -3 -22.5 1.5t-17.5 17t-6.5 29t-0.5 35.5t1 37q0 40 -13 51q-27 20 -22 102q5 47 11 75q10 46 9.5 78t2 50t6 30t8.5 25t9 43q10 75 18 93q11 25 26.5 51.5t25.5 35.5q23 17 66 3q32 -11 59.5 -7t42 3.5t32.5 -11t28 -25t14 -31.5q7 -29 1 -73.5t-4.5 -72
t12 -52t14 -39t6 -29t4 -31t6 -37.5t5 -33.5t-0.5 -20.5t-2.5 -14.5t1 -20t0 -29.5t-5.5 -31q-11 -46 -9 -65q4 -34 0 -48.5t-7.5 -23.5t-8 -25t-18.5 -29t-26.5 -8t-16 14.5t-6 19.5t-6 18t-12.5 9q-16 2 -17 18.5t0.5 29t-1.5 25.5t-10 25q-18 31 -42 34q-36 5 -50 -35
q-3 -10 -4.5 -26.5t-8 -29.5t-14 -22t-14 -16.5t-8.5 -18.5q-8 -43 -34 -49zM186 407q-20 -54 -5 -86q10 -18 26 -19q29 -3 34.5 4.5t13 16t5.5 26t-3 31t-9.5 30.5t-11.5 36.5t-4 37.5q-4 40 -18 40q-10 0 -12.5 -10.5t-3.5 -27.5q-1 -52 -12 -79zM304 852.5
q6 -18.5 -2.5 -29.5t-22.5 -13.5t-27.5 11.5t-22.5 16t-11 7q-2 9 -9 16.5t-10 5.5q-6 -4 -15 3l-14 11q-5 4 -9.5 5.5t-12.5 12.5t-5.5 27.5t11.5 19t15 5.5t16 -1t22 -10q26 -14 33 -25q9 -15 46 -36q12 -7 18 -25.5z" />
    <glyph glyph-name="aacute" unicode="&#xe1;" horiz-adv-x="442" 
d="M97 -12q-10 -3 -22.5 1.5t-17.5 17t-6.5 29t-0.5 35.5t1 37q0 40 -13 51q-27 20 -22 102q5 47 11 75q10 46 9.5 78t2 50t6 30t8.5 25t9 43q10 75 18 93q11 25 26.5 51.5t25.5 35.5q23 17 66 3q32 -11 59.5 -7t42 3.5t32.5 -11t28 -25t14 -31.5q7 -29 1 -73.5t-4.5 -72
t12 -52t14 -39t6 -29t4 -31t6 -37.5t5 -33.5t-0.5 -20.5t-2.5 -14.5t1 -20t0 -29.5t-5.5 -31q-11 -46 -9 -65q4 -34 0 -48.5t-7.5 -23.5t-8 -25t-18.5 -29t-26.5 -8t-16 14.5t-6 19.5t-6 18t-12.5 9q-16 2 -17 18.5t0.5 29t-1.5 25.5t-10 25q-18 31 -42 34q-36 5 -50 -35
q-3 -10 -4.5 -26.5t-8 -29.5t-14 -22t-14 -16.5t-8.5 -18.5q-8 -43 -34 -49zM186 407q-20 -54 -5 -86q10 -18 26 -19q29 -3 34.5 4.5t13 16t5.5 26t-3 31t-9.5 30.5t-11.5 36.5t-4 37.5q-4 40 -18 40q-10 0 -12.5 -10.5t-3.5 -27.5q-1 -52 -12 -79zM209 809.5
q-14 2.5 -22.5 13.5t-2.5 29.5t18 25.5q36 21 42.5 30.5t16 17t20.5 13.5q28 15 36 11.5t17 -6t11 -19t-5.5 -27.5t-12 -12.5t-9.5 -5.5l-10 -8q-13 -10 -19 -6q-3 2 -10 -5.5t-9 -16.5q-2 -5 -11 -7t-22.5 -16t-27.5 -11.5z" />
    <glyph glyph-name="acircumflex" unicode="&#xe2;" horiz-adv-x="442" 
d="M97 -12q-10 -3 -22.5 1.5t-17.5 17t-6.5 29t-0.5 35.5t1 37q0 40 -13 51q-27 20 -22 102q5 47 11 75q10 46 9.5 78t2 50t6 30t8.5 25t9 43q10 75 18 93q11 25 26.5 51.5t25.5 35.5q23 17 66 3q32 -11 59.5 -7t42 3.5t32.5 -11t28 -25t14 -31.5q7 -29 1 -73.5t-4.5 -72
t12 -52t14 -39t6 -29t4 -31t6 -37.5t5 -33.5t-0.5 -20.5t-2.5 -14.5t1 -20t0 -29.5t-5.5 -31q-11 -46 -9 -65q4 -34 0 -48.5t-7.5 -23.5t-8 -25t-18.5 -29t-26.5 -8t-16 14.5t-6 19.5t-6 18t-12.5 9q-16 2 -17 18.5t0.5 29t-1.5 25.5t-10 25q-18 31 -42 34q-36 5 -50 -35
q-3 -10 -4.5 -26.5t-8 -29.5t-14 -22t-14 -16.5t-8.5 -18.5q-8 -43 -34 -49zM186 407q-20 -54 -5 -86q10 -18 26 -19q29 -3 34.5 4.5t13 16t5.5 26t-3 31t-9.5 30.5t-11.5 36.5t-4 37.5q-4 40 -18 40q-10 0 -12.5 -10.5t-3.5 -27.5q-1 -52 -12 -79zM100 826q-4 26 54 63
q30 20 46 33t22 16q10 5 25 -1q14 -8 22.5 -20.5t18.5 -15.5t12 -6t3.5 -6t4.5 -3.5t6 -1.5q10 -1 16.5 -9.5t13.5 -10.5q25 -9 22.5 -24t-13 -25.5t-18 -11t-15.5 4.5t-19 10t-17 16t-14 13t-13 9t-16.5 9t-14.5 4t-10.5 -4.5t-11.5 -14.5t-13 -12.5t-10.5 -13.5t-10 -11
t-16 -8t-25.5 -5q-26 2 -29 26z" />
    <glyph glyph-name="atilde" unicode="&#xe3;" horiz-adv-x="442" 
d="M97 -12q-10 -3 -22.5 1.5t-17.5 17t-6.5 29t-0.5 35.5t1 37q0 40 -13 51q-27 20 -22 102q5 47 11 75q10 46 9.5 78t2 50t6 30t8.5 25t9 43q10 75 18 93q11 25 26.5 51.5t25.5 35.5q23 17 66 3q32 -11 59.5 -7t42 3.5t32.5 -11t28 -25t14 -31.5q7 -29 1 -73.5t-4.5 -72
t12 -52t14 -39t6 -29t4 -31t6 -37.5t5 -33.5t-0.5 -20.5t-2.5 -14.5t1 -20t0 -29.5t-5.5 -31q-11 -46 -9 -65q4 -34 0 -48.5t-7.5 -23.5t-8 -25t-18.5 -29t-26.5 -8t-16 14.5t-6 19.5t-6 18t-12.5 9q-16 2 -17 18.5t0.5 29t-1.5 25.5t-10 25q-18 31 -42 34q-36 5 -50 -35
q-3 -10 -4.5 -26.5t-8 -29.5t-14 -22t-14 -16.5t-8.5 -18.5q-8 -43 -34 -49zM186 407q-20 -54 -5 -86q10 -18 26 -19q29 -3 34.5 4.5t13 16t5.5 26t-3 31t-9.5 30.5t-11.5 36.5t-4 37.5q-4 40 -18 40q-10 0 -12.5 -10.5t-3.5 -27.5q-1 -52 -12 -79zM273 871q7 10 18 10
q11 14 29.5 18t33.5 1.5t23 -11t4 -15.5t-3 -14.5t-6.5 -11.5t-25.5 -13t-28.5 -15t-18.5 -8t-25 0t-22 2.5t-8 1.5q-14 6 -22 16.5t-10 13.5q-5 4 -18.5 1.5t-17.5 -11t-12 -12.5q-5 -1 -16 -8q-18 -10 -24 -10t-17.5 4t-13.5 10.5t-2 13t-2.5 13t-5 10.5t2.5 12t8.5 9
t10 6.5t15 7t16 5.5t19.5 11q18 12 29 1q9 9 21.5 4.5t20 -6.5t7.5 -8.5t8 -15.5t12.5 -9t19.5 -3z" />
    <glyph glyph-name="adieresis" unicode="&#xe4;" horiz-adv-x="442" 
d="M97 -12q-10 -3 -22.5 1.5t-17.5 17t-6.5 29t-0.5 35.5t1 37q0 40 -13 51q-27 20 -22 102q5 47 11 75q10 46 9.5 78t2 50t6 30t8.5 25t9 43q10 75 18 93q11 25 26.5 51.5t25.5 35.5q23 17 66 3q32 -11 59.5 -7t42 3.5t32.5 -11t28 -25t14 -31.5q7 -29 1 -73.5t-4.5 -72
t12 -52t14 -39t6 -29t4 -31t6 -37.5t5 -33.5t-0.5 -20.5t-2.5 -14.5t1 -20t0 -29.5t-5.5 -31q-11 -46 -9 -65q4 -34 0 -48.5t-7.5 -23.5t-8 -25t-18.5 -29t-26.5 -8t-16 14.5t-6 19.5t-6 18t-12.5 9q-16 2 -17 18.5t0.5 29t-1.5 25.5t-10 25q-18 31 -42 34q-36 5 -50 -35
q-3 -10 -4.5 -26.5t-8 -29.5t-14 -22t-14 -16.5t-8.5 -18.5q-8 -43 -34 -49zM186 407q-20 -54 -5 -86q10 -18 26 -19q29 -3 34.5 4.5t13 16t5.5 26t-3 31t-9.5 30.5t-11.5 36.5t-4 37.5q-4 40 -18 40q-10 0 -12.5 -10.5t-3.5 -27.5q-1 -52 -12 -79zM110 890q15 16 27.5 16.5
t23 -3t19.5 -10.5q23 -18 21 -44q0 -27 -23 -44q-19 -15 -39 -10t-34 19t-12 37t17 39zM359 805.5q-14 -10.5 -34 -12t-28.5 10t-9 11.5t-5.5 5t-5 15.5t-3.5 15t3.5 17t12 16t9.5 8t11.5 8.5q42 22 68 -23q4 -6 9.5 -12t6.5 -20t-10 -21.5t-25 -18z" />
    <glyph glyph-name="aring" unicode="&#xe5;" horiz-adv-x="442" 
d="M166 847q4 10 12 12t13 7t11 3.5t10.5 3.5t16.5 3t17 1t13.5 -1.5t13 -6t9 -3.5t9.5 -13.5t9.5 -15t5.5 -10.5q4 -17 3.5 -29t-0.5 -25t-7 -17t-12 -15q18 1 42 -10q47 -29 46 -93q-1 -20 -5 -51q-9 -68 12 -117q16 -37 19.5 -73t8 -57t5 -33.5t-0.5 -20.5t-2.5 -14.5
t1 -20t0 -29.5t-5.5 -31q-11 -46 -9 -65q4 -34 0 -48.5t-7.5 -23.5t-8 -25t-18.5 -29t-26.5 -8t-16 14.5t-6 19.5t-6 18t-12.5 9q-16 2 -17 18.5t0.5 29t-1.5 25.5t-10 25q-18 31 -42 34q-36 5 -50 -35q-3 -10 -4.5 -26.5t-8 -29.5t-14 -22t-14 -16.5t-8.5 -18.5
q-8 -43 -34 -49q-10 -3 -22.5 1.5t-17.5 17t-6.5 29t-0.5 35.5t1 37q0 40 -13 51q-27 20 -22 102q5 47 11 75q10 46 9.5 78t2 50t6 30t8.5 25t9 43q10 75 18 93.5t19.5 38.5t23.5 38t35 20q-1 2 -4 5q-10 10 -9 31t4.5 27t3 14t3.5 11q8 4 10 7zM186 407q-20 -54 -5 -86
q10 -18 26 -19q29 -3 34.5 4.5t13 16t5.5 26t-3 31t-9.5 30.5t-11.5 36.5t-4 37.5q-4 40 -18 40q-10 0 -12.5 -10.5t-3.5 -27.5q-1 -52 -12 -79zM216.5 829.5q-0.5 -3.5 -7 -5.5t-6.5 -3.5t-4 -8.5t-3 -9t-2 -13t1.5 -16t9.5 -6.5t11.5 -1.5t11 5t11 5.5t8 4.5t3.5 4.5
t4 1.5q5 3 5 14q0 12 -11 19q-18 13 -24.5 13t-7 -3.5z" />
    <glyph glyph-name="ae" unicode="&#xe6;" horiz-adv-x="635" 
d="M422 158l56 2q14 0 27.5 -2t27 0t26 5.5t24.5 7t25.5 2t20.5 -7.5t9 -14q6 -16 -3 -34t-16 -31t-11.5 -33.5t-6 -30.5t-9.5 -15t-17 -10.5t-22 -2.5t-34.5 3.5t-46.5 -1.5q-62 -3 -79 -11.5t-26 -12.5t-17 -6q-15 -2 -26.5 6.5t-18.5 13.5q-19 12 -30 15q-24 7 -12 40
q23 62 -6 118q-5 8 -13 6t-19.5 0t-20 -3.5t-27 -8t-24.5 8.5q-33 -33 -52 -101q-6 -24 -12.5 -28t-12 -8t-18.5 -26.5t-29.5 -30.5t-28.5 -3.5t-19.5 10.5t-9.5 22.5t-0.5 23.5t-6 13.5t-5.5 26.5t13 37q21 36 19.5 55t4.5 34t11 26.5t13 28.5t16 38q22 51 22 71.5t2 41.5
t6 42q7 47 23 63q18 14 25.5 24t9.5 21.5t4.5 16t5.5 9.5q10 16 18 51.5t16 55.5q29 76 94 66q26 -5 53 -13t51.5 -14.5t40.5 -0.5t27 10l17 8q14 6 24 2t14 -3.5t7 1.5q10 1 18 -1t17 0t19 3.5t20 1.5q16 0 28.5 -11.5t16 -20.5t3.5 -23t-3.5 -29.5t-2.5 -26t-5 -30.5
t-6 -39t-4.5 -31t-11 -27.5t-19.5 -17.5q-49 -8 -77 7q-31 19 -65 15q-29 -3 -22 -57q1 -7 -0.5 -16.5t-3.5 -20.5q-3 -25 12 -36.5t27.5 -13t27.5 5t28.5 9.5t18.5 -9q19 -47 16 -55t-3.5 -23t-6.5 -21t-15 -14t-25.5 -8t-28.5 -1t-23 -4q-25 -7 -27 -23q-4 -43 9 -54
q3 -3 14 -3zM183.5 349q-3.5 -13 -1.5 -23.5t7.5 -16t12.5 -7.5q13 -3 23 1t13.5 11t8 18.5t2.5 21.5l-4 20q-5 29 2 39q2 3 2 10t-2 13q-5 18 -15 18q-11 2 -15 -7t-6 -20t-7.5 -24.5l-11 -27t-9 -26.5z" />
    <glyph glyph-name="ccedilla" unicode="&#xe7;" horiz-adv-x="444" 
d="M133 -177q0 24 8 24q10 -1 19 5t20 1.5t28 -9.5t36 2q32 13 28 31q-1 7 1 10t-6 8t-15.5 15t-28 8t-34.5 5.5t-16.5 14t-3.5 14t-0.5 14t-0.5 10.5q-19 3 -27 11t-23 17t-17.5 22.5t-9.5 21.5t-15 20q-21 27 -21 64q0 23 1 38t0 26q0 21 -18 43.5t-21 39t-5.5 31
t-0.5 28.5t4 29t7.5 26t4 22t2 18t6.5 15q8 22 -2 43.5t-10.5 34.5t2.5 23.5t6.5 20t3.5 24.5t5.5 35t28 25.5t25.5 15.5t7 21q3 11 19 24.5t46.5 18t44 0.5t24.5 -16.5t21 -14t21 0.5q52 7 104 -22q18 -10 24 -31t10 -30t7 -19q5 -23 -4 -55q-14 -51 0 -79q12 -29 -6 -52
q-7 -10 -25 -18.5t-34.5 -20t-34.5 -17.5q-4 -12 -7.5 -22t-11.5 -15.5t-18 -2t-8 21t-5.5 24t-12 10.5t-8.5 8t-6 10q-5 18 2.5 32t8 21t-0.5 15q-3 20 -0.5 34t-7 24t-21 9t-19 -31t-11.5 -74.5t-4.5 -96.5t4.5 -97q10 -103 36 -105t40 7.5t22 21.5t12.5 22.5t10.5 12.5
q42 14 59 -17q7 -13 7 -37t-3.5 -35.5t-8 -19t-8.5 -13.5t-6 -15.5t-9 -17.5t-17 -14q-21 -11 -32 -11q-32 0 -49 -4q-6 -13 -4.5 -16t6.5 -10q9 -11 22 -7.5t26.5 -1t16.5 -16.5q0 -2 7 -5q15 -5 16 -14q0 -5 4 -10q5 -6 7 -21t3 -21t0 -9q0 -5 -3.5 -15t-6.5 -21
q-6 -25 -24 -32q-10 -3 -19 -14q-50 -15 -71.5 -11.5t-35.5 3t-24.5 7t-24.5 8.5q-8 0 -8 24z" />
    <glyph glyph-name="egrave" unicode="&#xe8;" horiz-adv-x="413" 
d="M50 188l-1 51q0 14 1 26q1 13 -2 32q-5 33 -4.5 48.5t0 25t-2.5 17.5q-3 12 -14.5 38t-11.5 56t13 48q12 18 9 37t-4.5 40.5t-0.5 44t10 43.5q22 51 88 49q41 -1 71 -8t44 -6t43 10q42 16 67 -2q7 -5 13.5 -7.5t11.5 -7.5q17 -19 10 -83l-4 -38q-5 -45 0 -67t5.5 -38.5
t-1.5 -29.5q-6 -29 -23 -29q-15 1 -21.5 9.5t-10.5 19t-8.5 19t-19.5 8.5q-44 0 -58.5 9.5t-25.5 11t-21 -2.5q-21 -9 -24.5 -33t-4.5 -42t0 -33q2 -35 13.5 -39.5t19.5 -1t16 8.5q24 16 49.5 15.5t38 -20.5t10.5 -38.5t-3.5 -36.5t-4.5 -34q-14 -62 -58 -24q-57 4 -71 -14
q-3 -5 -6 -21t-1 -34q5 -47 45 -50q26 -2 47.5 7t28.5 20q6 12 15 13.5t16 3t14 1.5t14 -2q18 -6 21.5 -28t-4.5 -40t-10.5 -32.5t-4.5 -21.5t-11.5 -17.5t-15 -17.5t-17.5 3q-22 17 -53 -20q-8 -11 -17 -16t-28 -4t-30 10t-20 18q-15 19 -52 14q-22 -3 -36 19q-3 3 -4.5 11
t-3.5 18q-7 26 -12.5 33.5t-6 19.5t-2.5 25.5t-3 20t1.5 15.5t2.5 20zM294 842.5q6 -18.5 -2.5 -29.5t-22.5 -13.5t-27.5 11.5t-22.5 16t-11 7q-2 9 -9 16.5t-10 5.5q-6 -4 -15 3l-14 11q-5 4 -9.5 5.5t-12.5 12.5t-5.5 27.5t11.5 19t15 5.5t16 -1t22 -10q26 -14 33 -25
q9 -15 46 -36q12 -7 18 -25.5z" />
    <glyph glyph-name="eacute" unicode="&#xe9;" horiz-adv-x="413" 
d="M50 188l-1 51q0 14 1 26q1 13 -2 32q-5 33 -4.5 48.5t0 25t-2.5 17.5q-3 12 -14.5 38t-11.5 56t13 48q12 18 9 37t-4.5 40.5t-0.5 44t10 43.5q22 51 88 49q41 -1 71 -8t44 -6t43 10q42 16 67 -2q7 -5 13.5 -7.5t11.5 -7.5q17 -19 10 -83l-4 -38q-5 -45 0 -67t5.5 -38.5
t-1.5 -29.5q-6 -29 -23 -29q-15 1 -21.5 9.5t-10.5 19t-8.5 19t-19.5 8.5q-44 0 -58.5 9.5t-25.5 11t-21 -2.5q-21 -9 -24.5 -33t-4.5 -42t0 -33q2 -35 13.5 -39.5t19.5 -1t16 8.5q24 16 49.5 15.5t38 -20.5t10.5 -38.5t-3.5 -36.5t-4.5 -34q-14 -62 -58 -24q-57 4 -71 -14
q-3 -5 -6 -21t-1 -34q5 -47 45 -50q26 -2 47.5 7t28.5 20q6 12 15 13.5t16 3t14 1.5t14 -2q18 -6 21.5 -28t-4.5 -40t-10.5 -32.5t-4.5 -21.5t-11.5 -17.5t-15 -17.5t-17.5 3q-22 17 -53 -20q-8 -11 -17 -16t-28 -4t-30 10t-20 18q-15 19 -52 14q-22 -3 -36 19q-3 3 -4.5 11
t-3.5 18q-7 26 -12.5 33.5t-6 19.5t-2.5 25.5t-3 20t1.5 15.5t2.5 20zM178 789.5q-14 2.5 -22.5 13.5t-2.5 29.5t18 25.5q36 21 42.5 30.5t16 17t20.5 13.5q28 15 36 11.5t17 -6t11 -19t-5.5 -27.5t-12 -12.5t-9.5 -5.5l-10 -8q-13 -10 -19 -6q-3 2 -10 -5.5t-9 -16.5
q-2 -5 -11 -7t-22.5 -16t-27.5 -11.5z" />
    <glyph glyph-name="ecircumflex" unicode="&#xea;" horiz-adv-x="413" 
d="M50 188l-1 51q0 14 1 26q1 13 -2 32q-5 33 -4.5 48.5t0 25t-2.5 17.5q-3 12 -14.5 38t-11.5 56t13 48q12 18 9 37t-4.5 40.5t-0.5 44t10 43.5q22 51 88 49q41 -1 71 -8t44 -6t43 10q42 16 67 -2q7 -5 13.5 -7.5t11.5 -7.5q17 -19 10 -83l-4 -38q-5 -45 0 -67t5.5 -38.5
t-1.5 -29.5q-6 -29 -23 -29q-15 1 -21.5 9.5t-10.5 19t-8.5 19t-19.5 8.5q-44 0 -58.5 9.5t-25.5 11t-21 -2.5q-21 -9 -24.5 -33t-4.5 -42t0 -33q2 -35 13.5 -39.5t19.5 -1t16 8.5q24 16 49.5 15.5t38 -20.5t10.5 -38.5t-3.5 -36.5t-4.5 -34q-14 -62 -58 -24q-57 4 -71 -14
q-3 -5 -6 -21t-1 -34q5 -47 45 -50q26 -2 47.5 7t28.5 20q6 12 15 13.5t16 3t14 1.5t14 -2q18 -6 21.5 -28t-4.5 -40t-10.5 -32.5t-4.5 -21.5t-11.5 -17.5t-15 -17.5t-17.5 3q-22 17 -53 -20q-8 -11 -17 -16t-28 -4t-30 10t-20 18q-15 19 -52 14q-22 -3 -36 19q-3 3 -4.5 11
t-3.5 18q-7 26 -12.5 33.5t-6 19.5t-2.5 25.5t-3 20t1.5 15.5t2.5 20zM81 826q-4 26 54 63q30 20 46 33t22 16q10 5 25 -1q14 -8 22.5 -20.5t18.5 -15.5t12 -6t3.5 -6t4.5 -3.5t6 -1.5q10 -1 16.5 -9.5t13.5 -10.5q25 -9 22.5 -24t-13 -25.5t-18 -11t-15.5 4.5t-19 10
t-17 16t-14 13t-13 9t-16.5 9t-14.5 4t-10.5 -4.5t-11.5 -14.5t-13 -12.5t-10.5 -13.5t-10 -11t-16 -8t-25.5 -5q-26 2 -29 26z" />
    <glyph glyph-name="edieresis" unicode="&#xeb;" horiz-adv-x="413" 
d="M50 188l-1 51q0 14 1 26q1 13 -2 32q-5 33 -4.5 48.5t0 25t-2.5 17.5q-3 12 -14.5 38t-11.5 56t13 48q12 18 9 37t-4.5 40.5t-0.5 44t10 43.5q22 51 88 49q41 -1 71 -8t44 -6t43 10q42 16 67 -2q7 -5 13.5 -7.5t11.5 -7.5q17 -19 10 -83l-4 -38q-5 -45 0 -67t5.5 -38.5
t-1.5 -29.5q-6 -29 -23 -29q-15 1 -21.5 9.5t-10.5 19t-8.5 19t-19.5 8.5q-44 0 -58.5 9.5t-25.5 11t-21 -2.5q-21 -9 -24.5 -33t-4.5 -42t0 -33q2 -35 13.5 -39.5t19.5 -1t16 8.5q24 16 49.5 15.5t38 -20.5t10.5 -38.5t-3.5 -36.5t-4.5 -34q-14 -62 -58 -24q-57 4 -71 -14
q-3 -5 -6 -21t-1 -34q5 -47 45 -50q26 -2 47.5 7t28.5 20q6 12 15 13.5t16 3t14 1.5t14 -2q18 -6 21.5 -28t-4.5 -40t-10.5 -32.5t-4.5 -21.5t-11.5 -17.5t-15 -17.5t-17.5 3q-22 17 -53 -20q-8 -11 -17 -16t-28 -4t-30 10t-20 18q-15 19 -52 14q-22 -3 -36 19q-3 3 -4.5 11
t-3.5 18q-7 26 -12.5 33.5t-6 19.5t-2.5 25.5t-3 20t1.5 15.5t2.5 20zM91 890q15 16 27.5 16.5t23 -3t19.5 -10.5q23 -18 21 -44q0 -27 -23 -44q-19 -15 -39 -10t-34 19t-12 37t17 39zM340 805.5q-14 -10.5 -34 -12t-28.5 10t-9 11.5t-5.5 5t-5 15.5t-3.5 15t3.5 17t12 16
t9.5 8t11.5 8.5q42 22 68 -23q4 -6 9.5 -12t6.5 -20t-10 -21.5t-25 -18z" />
    <glyph glyph-name="igrave" unicode="&#xec;" horiz-adv-x="336" 
d="M272 553q-34 -9 -13 -116q7 -29 7.5 -48.5t-5.5 -42.5t-6 -37t-4 -33q1 -21 -0.5 -42.5t-2.5 -41.5q-3 -49 -1 -58t6.5 -11.5t10.5 -4.5q14 -5 17 -13t2.5 -22.5t-3.5 -30.5q-9 -38 -25 -49q-9 -6 -18.5 -4t-20.5 4q-34 6 -58 -6q-59 -32 -91 0q-13 13 -16 40
q-4 49 5.5 63t16 17.5t11.5 6.5q11 5 11 17q0 9 2.5 19.5t4.5 22.5q5 29 -5 48q-11 22 -9.5 36t2.5 25l4 24q2 29 -1 49.5t-4.5 43t-1 42.5t0.5 38q0 42 -8.5 50t-15.5 8.5t-14 0.5q-19 -2 -24 6q-11 11 -11 28t6.5 26t8.5 20.5t2 24.5q2 30 -2 39.5t-5.5 17t-1.5 14.5
q0 29 41 30q25 1 51 -0.5t41 1.5q52 10 83.5 8t40.5 -5q25 -10 27 -55q1 -21 1 -44t2 -47q4 -50 -38 -59zM242 873.5q6 -18.5 -2.5 -29.5t-22.5 -13.5t-27.5 11.5t-22.5 16t-11 7q-2 9 -9 16.5t-10 5.5q-6 -4 -15 3l-14 11q-5 4 -9.5 5.5t-12.5 12.5t-5.5 27.5t11.5 19
t15 5.5t16 -1t22 -10q26 -14 33 -25q9 -15 46 -36q12 -7 18 -25.5z" />
    <glyph glyph-name="iacute" unicode="&#xed;" horiz-adv-x="336" 
d="M272 553q-34 -9 -13 -116q7 -29 7.5 -48.5t-5.5 -42.5t-6 -37t-4 -33q1 -21 -0.5 -42.5t-2.5 -41.5q-3 -49 -1 -58t6.5 -11.5t10.5 -4.5q14 -5 17 -13t2.5 -22.5t-3.5 -30.5q-9 -38 -25 -49q-9 -6 -18.5 -4t-20.5 4q-34 6 -58 -6q-59 -32 -91 0q-13 13 -16 40
q-4 49 5.5 63t16 17.5t11.5 6.5q11 5 11 17q0 9 2.5 19.5t4.5 22.5q5 29 -5 48q-11 22 -9.5 36t2.5 25l4 24q2 29 -1 49.5t-4.5 43t-1 42.5t0.5 38q0 42 -8.5 50t-15.5 8.5t-14 0.5q-19 -2 -24 6q-11 11 -11 28t6.5 26t8.5 20.5t2 24.5q2 30 -2 39.5t-5.5 17t-1.5 14.5
q0 29 41 30q25 1 51 -0.5t41 1.5q52 10 83.5 8t40.5 -5q25 -10 27 -55q1 -21 1 -44t2 -47q4 -50 -38 -59zM128 809.5q-14 2.5 -22.5 13.5t-2.5 29.5t18 25.5q36 21 42.5 30.5t16 17t20.5 13.5q28 15 36 11.5t17 -6t11 -19t-5.5 -27.5t-12 -12.5t-9.5 -5.5l-10 -8
q-13 -10 -19 -6q-3 2 -10 -5.5t-9 -16.5q-2 -5 -11 -7t-22.5 -16t-27.5 -11.5z" />
    <glyph glyph-name="icircumflex" unicode="&#xee;" horiz-adv-x="336" 
d="M272 553q-34 -9 -13 -116q7 -29 7.5 -48.5t-5.5 -42.5t-6 -37t-4 -33q1 -21 -0.5 -42.5t-2.5 -41.5q-3 -49 -1 -58t6.5 -11.5t10.5 -4.5q14 -5 17 -13t2.5 -22.5t-3.5 -30.5q-9 -38 -25 -49q-9 -6 -18.5 -4t-20.5 4q-34 6 -58 -6q-59 -32 -91 0q-13 13 -16 40
q-4 49 5.5 63t16 17.5t11.5 6.5q11 5 11 17q0 9 2.5 19.5t4.5 22.5q5 29 -5 48q-11 22 -9.5 36t2.5 25l4 24q2 29 -1 49.5t-4.5 43t-1 42.5t0.5 38q0 42 -8.5 50t-15.5 8.5t-14 0.5q-19 -2 -24 6q-11 11 -11 28t6.5 26t8.5 20.5t2 24.5q2 30 -2 39.5t-5.5 17t-1.5 14.5
q0 29 41 30q25 1 51 -0.5t41 1.5q52 10 83.5 8t40.5 -5q25 -10 27 -55q1 -21 1 -44t2 -47q4 -50 -38 -59zM29 836q-4 26 54 63q30 20 46 33t22 16q10 5 25 -1q14 -8 22.5 -20.5t18.5 -15.5t12 -6t3.5 -6t4.5 -3.5t6 -1.5q10 -1 16.5 -9.5t13.5 -10.5q25 -9 22.5 -24
t-13 -25.5t-18 -11t-15.5 4.5t-19 10t-17 16t-14 13t-13 9t-16.5 9t-14.5 4t-10.5 -4.5t-11.5 -14.5t-13 -12.5t-10.5 -13.5t-10 -11t-16 -8t-25.5 -5q-26 2 -29 26z" />
    <glyph glyph-name="idieresis" unicode="&#xef;" horiz-adv-x="336" 
d="M272 553q-34 -9 -13 -116q7 -29 7.5 -48.5t-5.5 -42.5t-6 -37t-4 -33q1 -21 -0.5 -42.5t-2.5 -41.5q-3 -49 -1 -58t6.5 -11.5t10.5 -4.5q14 -5 17 -13t2.5 -22.5t-3.5 -30.5q-9 -38 -25 -49q-9 -6 -18.5 -4t-20.5 4q-34 6 -58 -6q-59 -32 -91 0q-13 13 -16 40
q-4 49 5.5 63t16 17.5t11.5 6.5q11 5 11 17q0 9 2.5 19.5t4.5 22.5q5 29 -5 48q-11 22 -9.5 36t2.5 25l4 24q2 29 -1 49.5t-4.5 43t-1 42.5t0.5 38q0 42 -8.5 50t-15.5 8.5t-14 0.5q-19 -2 -24 6q-11 11 -11 28t6.5 26t8.5 20.5t2 24.5q2 30 -2 39.5t-5.5 17t-1.5 14.5
q0 29 41 30q25 1 51 -0.5t41 1.5q52 10 83.5 8t40.5 -5q25 -10 27 -55q1 -21 1 -44t2 -47q4 -50 -38 -59zM40 910q15 16 27.5 16.5t23 -3t19.5 -10.5q23 -18 21 -44q0 -27 -23 -44q-19 -15 -39 -10t-34 19t-12 37t17 39zM289 825.5q-14 -10.5 -34 -12t-28.5 10t-9 11.5
t-5.5 5t-5 15.5t-3.5 15t3.5 17t12 16t9.5 8t11.5 8.5q42 22 68 -23q4 -6 9.5 -12t6.5 -20t-10 -21.5t-25 -18z" />
    <glyph glyph-name="eth" unicode="&#xf0;" horiz-adv-x="444" 
d="M41 412l-1 52v30q0 15 3 28q12 48 5 82q-17 83 5 116q27 36 69 33q15 -1 31.5 -12t35 -15t35.5 -5q44 -3 54 -11t19 -12.5t17 -7.5q19 -9 23 -18.5t11 -17t15 -16.5q19 -22 24 -49q3 -17 5 -30t5 -25q9 -39 21 -69q23 -60 11 -94l-1 -4q6 -17 3 -32.5t-4.5 -24t-4 -18
t-6 -21.5t-8.5 -30.5t-10.5 -32t-11.5 -24.5q-12 -22 -62 -74q-16 -16 -23.5 -33t-18.5 -24q-12 -27 -24 -36q-24 -18 -62 -13q-27 -21 -40.5 -26t-27 -5t-28 8t-19 19t-4.5 24.5t1 29.5q2 29 -8 50t-12 31q-6 21 -4 61q1 33 -1 39q-5 9 2 60q-9 0 -16.5 -1t-20 -1.5
t-23.5 3.5q-26 8 -26 36q0 34 41 36q11 0 20 -3q9 7 20 7v1q-6 10 -7.5 16t-1.5 23zM194 487q-12 -9 -12 -30t4 -69v-12q17 1 28 -4t8.5 -28.5t-11 -33t-30.5 -11.5q4 -23 2 -39t2 -25.5t2.5 -20t-2.5 -20.5q-2 -27 11 -28q20 -3 36 57q4 15 6 27q1 12 5 21t7 17
q10 24 10 36.5t1.5 16t3 7.5t3.5 9t4 19q4 43 -29 71q-14 11 -23.5 26t-14 17t-11.5 -3z" />
    <glyph glyph-name="ntilde" unicode="&#xf1;" horiz-adv-x="521" 
d="M121 730q50 20 54 4q25 6 37 -15q4 -7 15.5 -29t25 -47t25.5 -47t16 -29.5t10 -8.5t12 3q13 10 7.5 30t-5 31.5t2.5 21.5q6 28 2 45t-4 32q0 30 49 30q10 0 23 -0.5t39 2t45.5 -14t12.5 -58.5q-9 -57 -8 -76.5t1 -36.5q0 -18 -6 -53q-11 -62 -6 -88q4 -23 4 -34v-16
q0 -3 2 -13t-1 -20.5t-1 -22.5t-5 -27.5t-6.5 -34t-2.5 -33.5t3 -35q9 -31 -15 -109q-4 -19 -12.5 -24.5t-12.5 -8.5t-6 -13q-5 -20 -21 -18q-21 3 -34 42q-18 54 -29 63t-16.5 25t-9.5 33q-8 42 -16 48.5t-13 25.5t-10 27t-9.5 18t-9.5 20q-13 25 -25 22q-7 -2 -9.5 -17.5
t-4.5 -37.5q-6 -64 -20 -92q9 -26 13.5 -47.5t-2 -51t-10.5 -47.5t-8.5 -31.5t-10.5 -20.5t-15 -5.5t-12 5.5l-6 8q-7 13 -24 19t-24 15t-9 21t-2.5 26t-7 30.5t-6.5 27.5t2 19.5l4 17t-4 26.5q-12 37 7 61q14 20 12 34q-6 29 -23 38q-8 5 -8 12q0 15 -4.5 22.5t-0.5 19.5
t-1 20q0 1 -2.5 20.5t-5 50t-5.5 66t-4 68.5q-4 76 1.5 89t17 19t24.5 8q28 3 46 -4zM293 871q7 10 18 10q11 14 29.5 18t33.5 1.5t23 -11t4 -15.5t-3 -14.5t-6.5 -11.5t-25.5 -13t-28.5 -15t-18.5 -8t-25 0t-22 2.5t-8 1.5q-14 6 -22 16.5t-10 13.5q-5 4 -18.5 1.5
t-17.5 -11t-12 -12.5q-5 -1 -16 -8q-18 -10 -24 -10t-17.5 4t-13.5 10.5t-2 13t-2.5 13t-5 10.5t2.5 12t8.5 9t10 6.5t15 7t16 5.5t19.5 11q18 12 29 1q9 9 21.5 4.5t20 -6.5t7.5 -8.5t8 -15.5t12.5 -9t19.5 -3z" />
    <glyph glyph-name="ograve" unicode="&#xf2;" horiz-adv-x="481" 
d="M120 690q11 10 19 21.5t21 21.5q35 29 70 17q43 -16 79 -20t52.5 -18t28.5 -30q29 -38 35 -83q1 -17 6 -24q13 -22 8.5 -59t-3 -51.5t5 -21.5t6.5 -14q8 -19 8 -38q0 -24 -16 -48q-7 -9 -5 -35t3 -52q1 -65 -7 -80.5t-11.5 -18.5t-6.5 -5q-15 -7 -26.5 -41.5t-30.5 -56
t-39.5 -35t-32 -21t-16.5 -14.5l-10 -14q-13 -16 -33 -16q-34 0 -50 16q-7 9 -15 26q-15 27 -40 44q-28 19 -34 57q-3 13 -1.5 26t-1.5 33q-2 20 -8 36t-7 30q-5 42 -28 45q-17 2 -20 51q-1 25 2 47.5t8 38.5q8 29 5 67.5t0 68.5q5 56 24 91q9 15 26.5 30t34.5 29z
M193.5 381.5q7.5 -8.5 11 -26.5t2.5 -39.5t-1 -41t2 -35t6 -28.5q11 -31 31 -31q31 0 43 120q4 33 4 84.5t-16 89t-39 37.5q-22 0 -40 -49q-16 -44 -13.5 -58t10 -22.5zM323 852.5q6 -18.5 -2.5 -29.5t-22.5 -13.5t-27.5 11.5t-22.5 16t-11 7q-2 9 -9 16.5t-10 5.5
q-6 -4 -15 3l-14 11q-5 4 -9.5 5.5t-12.5 12.5t-5.5 27.5t11.5 19t15 5.5t16 -1t22 -10q26 -14 33 -25q9 -15 46 -36q12 -7 18 -25.5z" />
    <glyph glyph-name="oacute" unicode="&#xf3;" horiz-adv-x="481" 
d="M120 690q11 10 19 21.5t21 21.5q35 29 70 17q43 -16 79 -20t52.5 -18t28.5 -30q29 -38 35 -83q1 -17 6 -24q13 -22 8.5 -59t-3 -51.5t5 -21.5t6.5 -14q8 -19 8 -38q0 -24 -16 -48q-7 -9 -5 -35t3 -52q1 -65 -7 -80.5t-11.5 -18.5t-6.5 -5q-15 -7 -26.5 -41.5t-30.5 -56
t-39.5 -35t-32 -21t-16.5 -14.5l-10 -14q-13 -16 -33 -16q-34 0 -50 16q-7 9 -15 26q-15 27 -40 44q-28 19 -34 57q-3 13 -1.5 26t-1.5 33q-2 20 -8 36t-7 30q-5 42 -28 45q-17 2 -20 51q-1 25 2 47.5t8 38.5q8 29 5 67.5t0 68.5q5 56 24 91q9 15 26.5 30t34.5 29z
M193.5 381.5q7.5 -8.5 11 -26.5t2.5 -39.5t-1 -41t2 -35t6 -28.5q11 -31 31 -31q31 0 43 120q4 33 4 84.5t-16 89t-39 37.5q-22 0 -40 -49q-16 -44 -13.5 -58t10 -22.5zM198 809.5q-14 2.5 -22.5 13.5t-2.5 29.5t18 25.5q36 21 42.5 30.5t16 17t20.5 13.5q28 15 36 11.5
t17 -6t11 -19t-5.5 -27.5t-12 -12.5t-9.5 -5.5l-10 -8q-13 -10 -19 -6q-3 2 -10 -5.5t-9 -16.5q-2 -5 -11 -7t-22.5 -16t-27.5 -11.5z" />
    <glyph glyph-name="ocircumflex" unicode="&#xf4;" horiz-adv-x="481" 
d="M120 690q11 10 19 21.5t21 21.5q35 29 70 17q43 -16 79 -20t52.5 -18t28.5 -30q29 -38 35 -83q1 -17 6 -24q13 -22 8.5 -59t-3 -51.5t5 -21.5t6.5 -14q8 -19 8 -38q0 -24 -16 -48q-7 -9 -5 -35t3 -52q1 -65 -7 -80.5t-11.5 -18.5t-6.5 -5q-15 -7 -26.5 -41.5t-30.5 -56
t-39.5 -35t-32 -21t-16.5 -14.5l-10 -14q-13 -16 -33 -16q-34 0 -50 16q-7 9 -15 26q-15 27 -40 44q-28 19 -34 57q-3 13 -1.5 26t-1.5 33q-2 20 -8 36t-7 30q-5 42 -28 45q-17 2 -20 51q-1 25 2 47.5t8 38.5q8 29 5 67.5t0 68.5q5 56 24 91q9 15 26.5 30t34.5 29z
M193.5 381.5q7.5 -8.5 11 -26.5t2.5 -39.5t-1 -41t2 -35t6 -28.5q11 -31 31 -31q31 0 43 120q4 33 4 84.5t-16 89t-39 37.5q-22 0 -40 -49q-16 -44 -13.5 -58t10 -22.5zM100 826q-4 26 54 63q30 20 46 33t22 16q10 5 25 -1q14 -8 22.5 -20.5t18.5 -15.5t12 -6t3.5 -6
t4.5 -3.5t6 -1.5q10 -1 16.5 -9.5t13.5 -10.5q25 -9 22.5 -24t-13 -25.5t-18 -11t-15.5 4.5t-19 10t-17 16t-14 13t-13 9t-16.5 9t-14.5 4t-10.5 -4.5t-11.5 -14.5t-13 -12.5t-10.5 -13.5t-10 -11t-16 -8t-25.5 -5q-26 2 -29 26z" />
    <glyph glyph-name="otilde" unicode="&#xf5;" horiz-adv-x="481" 
d="M120 690q11 10 19 21.5t21 21.5q35 29 70 17q43 -16 79 -20t52.5 -18t28.5 -30q29 -38 35 -83q1 -17 6 -24q13 -22 8.5 -59t-3 -51.5t5 -21.5t6.5 -14q8 -19 8 -38q0 -24 -16 -48q-7 -9 -5 -35t3 -52q1 -65 -7 -80.5t-11.5 -18.5t-6.5 -5q-15 -7 -26.5 -41.5t-30.5 -56
t-39.5 -35t-32 -21t-16.5 -14.5l-10 -14q-13 -16 -33 -16q-34 0 -50 16q-7 9 -15 26q-15 27 -40 44q-28 19 -34 57q-3 13 -1.5 26t-1.5 33q-2 20 -8 36t-7 30q-5 42 -28 45q-17 2 -20 51q-1 25 2 47.5t8 38.5q8 29 5 67.5t0 68.5q5 56 24 91q9 15 26.5 30t34.5 29z
M193.5 381.5q7.5 -8.5 11 -26.5t2.5 -39.5t-1 -41t2 -35t6 -28.5q11 -31 31 -31q31 0 43 120q4 33 4 84.5t-16 89t-39 37.5q-22 0 -40 -49q-16 -44 -13.5 -58t10 -22.5zM283 871q7 10 18 10q11 14 29.5 18t33.5 1.5t23 -11t4 -15.5t-3 -14.5t-6.5 -11.5t-25.5 -13t-28.5 -15
t-18.5 -8t-25 0t-22 2.5t-8 1.5q-14 6 -22 16.5t-10 13.5q-5 4 -18.5 1.5t-17.5 -11t-12 -12.5q-5 -1 -16 -8q-18 -10 -24 -10t-17.5 4t-13.5 10.5t-2 13t-2.5 13t-5 10.5t2.5 12t8.5 9t10 6.5t15 7t16 5.5t19.5 11q18 12 29 1q9 9 21.5 4.5t20 -6.5t7.5 -8.5t8 -15.5
t12.5 -9t19.5 -3z" />
    <glyph glyph-name="odieresis" unicode="&#xf6;" horiz-adv-x="481" 
d="M120 690q11 10 19 21.5t21 21.5q35 29 70 17q43 -16 79 -20t52.5 -18t28.5 -30q29 -38 35 -83q1 -17 6 -24q13 -22 8.5 -59t-3 -51.5t5 -21.5t6.5 -14q8 -19 8 -38q0 -24 -16 -48q-7 -9 -5 -35t3 -52q1 -65 -7 -80.5t-11.5 -18.5t-6.5 -5q-15 -7 -26.5 -41.5t-30.5 -56
t-39.5 -35t-32 -21t-16.5 -14.5l-10 -14q-13 -16 -33 -16q-34 0 -50 16q-7 9 -15 26q-15 27 -40 44q-28 19 -34 57q-3 13 -1.5 26t-1.5 33q-2 20 -8 36t-7 30q-5 42 -28 45q-17 2 -20 51q-1 25 2 47.5t8 38.5q8 29 5 67.5t0 68.5q5 56 24 91q9 15 26.5 30t34.5 29z
M193.5 381.5q7.5 -8.5 11 -26.5t2.5 -39.5t-1 -41t2 -35t6 -28.5q11 -31 31 -31q31 0 43 120q4 33 4 84.5t-16 89t-39 37.5q-22 0 -40 -49q-16 -44 -13.5 -58t10 -22.5zM110 890q15 16 27.5 16.5t23 -3t19.5 -10.5q23 -18 21 -44q0 -27 -23 -44q-19 -15 -39 -10t-34 19
t-12 37t17 39zM359 805.5q-14 -10.5 -34 -12t-28.5 10t-9 11.5t-5.5 5t-5 15.5t-3.5 15t3.5 17t12 16t9.5 8t11.5 8.5q42 22 68 -23q4 -6 9.5 -12t6.5 -20t-10 -21.5t-25 -18z" />
    <glyph glyph-name="divide" unicode="&#xf7;" horiz-adv-x="413" 
d="M243 466q-50 -22 -83 -6q-21 10 -16 48q4 25 18.5 38.5t38.5 20t41.5 -2t24.5 -21.5t7 -27q2 -37 -31 -50zM54 310.5q-11 -1.5 -24 1.5q-25 6 -25 29q0 48 61 46q31 0 41 2q18 4 31 4t33 -6.5t59 -7t68 5t46.5 5.5t28.5 -0.5t19 -3.5q18 -7 16.5 -26t-5 -25.5t-8 -10.5
t-10.5 -6.5t-11 -8.5q-19 0 -43 1l-48 2q-75 3 -96.5 -2.5t-31.5 -7.5t-19 -2t-18 6q-14 10 -33.5 8t-30.5 -3.5zM188 136q-16 13 -21.5 20t-8 23t8.5 35t16.5 22.5t14.5 6.5t20 4q28 3 43 -13q5 -5 7.5 -12t8.5 -20q12 -29 -8 -49q-17 -15 -40.5 -21.5t-40.5 4.5z" />
    <glyph glyph-name="oslash" unicode="&#xf8;" horiz-adv-x="489" 
d="M449 728q28 -4 24 -43q0 -11 -7.5 -22.5t-12.5 -15.5t-9.5 -9t-8 -17.5t-10.5 -23.5q1 -11 5 -20q14 -27 9.5 -62.5t-3 -50t5 -21.5t6.5 -14q8 -19 8 -38q0 -24 -16 -48q-7 -9 -5 -35t3 -52q1 -65 -7 -80.5t-11.5 -18.5t-6.5 -5q-15 -7 -26.5 -41.5t-30.5 -56t-39.5 -35
t-32 -21t-16.5 -14.5l-10 -14q-13 -16 -33 -16q-34 0 -50 16q-7 9 -15 26q-15 27 -40 44q-16 11 -22 22q-16 -16 -17 -29q-2 -23 -5.5 -27.5t-10.5 -4.5t-14 3q-17 9 -19 27q-2 20 26 58q12 16 17.5 26.5t9.5 17.5q0 32 -8 53.5t-9 35.5q-5 42 -28 45q-17 2 -20 51
q-1 25 2 47.5t8 38.5q8 29 5 67.5t0 68.5q5 56 24 91q9 15 26.5 30t34.5 29q11 10 19 21.5t21 21.5q35 29 70 17q43 -16 79 -20t52.5 -18t23.5 -23t8.5 -11.5t3.5 -4.5q23 46 32.5 51.5t19.5 3.5zM233 388q22 25 22 45.5t21 38.5q-15 39 -39 39q-22 0 -40 -49
q-16 -43 -13.5 -57.5t10.5 -22.5q12 -15 12 -44q22 43 27 50zM210 228q10 -48 35 -48q31 0 43 120q4 33 4 54v27q0 6 -1 12q-4 -5 -7.5 -9t-8.5 -13t-9.5 -30t-14.5 -39t-21.5 -33t-19.5 -41z" />
    <glyph glyph-name="ugrave" unicode="&#xf9;" horiz-adv-x="501" 
d="M210 587l-5 -227q0 -151 42 -143q36 6 33 127q0 36 5.5 46.5t7.5 17.5q5 20 2 53q-2 21 -7 63t-9 86.5t-4 80.5t7.5 45t19 10.5t24 0t24 -4.5t19 -3t18 2.5t21 4t20 1.5t17.5 -7t13.5 -35t8 -66t2.5 -81.5t-1 -82.5q-4 -86 -7.5 -104t-8.5 -26t-10 -15q-10 -14 -3 -40
t11 -40q7 -25 1 -45t-4 -39q5 -51 -12 -73q-8 -11 -25 -21q-34 -19 -50 -46q-8 -16 -19 -19q-6 -2 -18 -0.5t-26 3t-27 3t-18 0t-9 -6t-9 -9.5q-27 -27 -56 6q-6 7 -11.5 13.5t-10.5 10t-13.5 7t-18.5 10.5q-43 26 -54 84q-6 28 -10 72.5t-6.5 56.5t-12.5 26.5t-13 27
t-1 26.5t5 32q8 48 4 84t-1.5 56t0.5 25.5t-6.5 10.5t-2.5 21t2 31v31q3 68 21 82q15 11 31 12q25 1 37.5 9t20.5 13q50 28 62 -40q8 -42 10 -117zM313 852.5q6 -18.5 -2.5 -29.5t-22.5 -13.5t-27.5 11.5t-22.5 16t-11 7q-2 9 -9 16.5t-10 5.5q-6 -4 -15 3l-14 11
q-5 4 -9.5 5.5t-12.5 12.5t-5.5 27.5t11.5 19t15 5.5t16 -1t22 -10q26 -14 33 -25q9 -15 46 -36q12 -7 18 -25.5z" />
    <glyph glyph-name="uacute" unicode="&#xfa;" horiz-adv-x="501" 
d="M210 587l-5 -227q0 -151 42 -143q36 6 33 127q0 36 5.5 46.5t7.5 17.5q5 20 2 53q-2 21 -7 63t-9 86.5t-4 80.5t7.5 45t19 10.5t24 0t24 -4.5t19 -3t18 2.5t21 4t20 1.5t17.5 -7t13.5 -35t8 -66t2.5 -81.5t-1 -82.5q-4 -86 -7.5 -104t-8.5 -26t-10 -15q-10 -14 -3 -40
t11 -40q7 -25 1 -45t-4 -39q5 -51 -12 -73q-8 -11 -25 -21q-34 -19 -50 -46q-8 -16 -19 -19q-6 -2 -18 -0.5t-26 3t-27 3t-18 0t-9 -6t-9 -9.5q-27 -27 -56 6q-6 7 -11.5 13.5t-10.5 10t-13.5 7t-18.5 10.5q-43 26 -54 84q-6 28 -10 72.5t-6.5 56.5t-12.5 26.5t-13 27
t-1 26.5t5 32q8 48 4 84t-1.5 56t0.5 25.5t-6.5 10.5t-2.5 21t2 31v31q3 68 21 82q15 11 31 12q25 1 37.5 9t20.5 13q50 28 62 -40q8 -42 10 -117zM229 799.5q-14 2.5 -22.5 13.5t-2.5 29.5t18 25.5q36 21 42.5 30.5t16 17t20.5 13.5q28 15 36 11.5t17 -6t11 -19t-5.5 -27.5
t-12 -12.5t-9.5 -5.5l-10 -8q-13 -10 -19 -6q-3 2 -10 -5.5t-9 -16.5q-2 -5 -11 -7t-22.5 -16t-27.5 -11.5z" />
    <glyph glyph-name="ucircumflex" unicode="&#xfb;" horiz-adv-x="501" 
d="M210 587l-5 -227q0 -151 42 -143q36 6 33 127q0 36 5.5 46.5t7.5 17.5q5 20 2 53q-2 21 -7 63t-9 86.5t-4 80.5t7.5 45t19 10.5t24 0t24 -4.5t19 -3t18 2.5t21 4t20 1.5t17.5 -7t13.5 -35t8 -66t2.5 -81.5t-1 -82.5q-4 -86 -7.5 -104t-8.5 -26t-10 -15q-10 -14 -3 -40
t11 -40q7 -25 1 -45t-4 -39q5 -51 -12 -73q-8 -11 -25 -21q-34 -19 -50 -46q-8 -16 -19 -19q-6 -2 -18 -0.5t-26 3t-27 3t-18 0t-9 -6t-9 -9.5q-27 -27 -56 6q-6 7 -11.5 13.5t-10.5 10t-13.5 7t-18.5 10.5q-43 26 -54 84q-6 28 -10 72.5t-6.5 56.5t-12.5 26.5t-13 27
t-1 26.5t5 32q8 48 4 84t-1.5 56t0.5 25.5t-6.5 10.5t-2.5 21t2 31v31q3 68 21 82q15 11 31 12q25 1 37.5 9t20.5 13q50 28 62 -40q8 -42 10 -117zM110 836q-4 26 54 63q30 20 46 33t22 16q10 5 25 -1q14 -8 22.5 -20.5t18.5 -15.5t12 -6t3.5 -6t4.5 -3.5t6 -1.5
q10 -1 16.5 -9.5t13.5 -10.5q25 -9 22.5 -24t-13 -25.5t-18 -11t-15.5 4.5t-19 10t-17 16t-14 13t-13 9t-16.5 9t-14.5 4t-10.5 -4.5t-11.5 -14.5t-13 -12.5t-10.5 -13.5t-10 -11t-16 -8t-25.5 -5q-26 2 -29 26z" />
    <glyph glyph-name="udieresis" unicode="&#xfc;" horiz-adv-x="501" 
d="M210 587l-5 -227q0 -151 42 -143q36 6 33 127q0 36 5.5 46.5t7.5 17.5q5 20 2 53q-2 21 -7 63t-9 86.5t-4 80.5t7.5 45t19 10.5t24 0t24 -4.5t19 -3t18 2.5t21 4t20 1.5t17.5 -7t13.5 -35t8 -66t2.5 -81.5t-1 -82.5q-4 -86 -7.5 -104t-8.5 -26t-10 -15q-10 -14 -3 -40
t11 -40q7 -25 1 -45t-4 -39q5 -51 -12 -73q-8 -11 -25 -21q-34 -19 -50 -46q-8 -16 -19 -19q-6 -2 -18 -0.5t-26 3t-27 3t-18 0t-9 -6t-9 -9.5q-27 -27 -56 6q-6 7 -11.5 13.5t-10.5 10t-13.5 7t-18.5 10.5q-43 26 -54 84q-6 28 -10 72.5t-6.5 56.5t-12.5 26.5t-13 27
t-1 26.5t5 32q8 48 4 84t-1.5 56t0.5 25.5t-6.5 10.5t-2.5 21t2 31v31q3 68 21 82q15 11 31 12q25 1 37.5 9t20.5 13q50 28 62 -40q8 -42 10 -117zM110 890q15 16 27.5 16.5t23 -3t19.5 -10.5q23 -18 21 -44q0 -27 -23 -44q-19 -15 -39 -10t-34 19t-12 37t17 39zM359 805.5
q-14 -10.5 -34 -12t-28.5 10t-9 11.5t-5.5 5t-5 15.5t-3.5 15t3.5 17t12 16t9.5 8t11.5 8.5q42 22 68 -23q4 -6 9.5 -12t6.5 -20t-10 -21.5t-25 -18z" />
    <glyph glyph-name="yacute" unicode="&#xfd;" horiz-adv-x="442" 
d="M435 740q13 0 30 -21q8 -12 8 -29q0 -33 -23 -57.5t-31 -40.5t-8.5 -32t-3.5 -27t-9 -21q-13 -23 -37 -29q-5 -23 -18.5 -40t-17 -24t-5.5 -13q-5 -13 -12 -23q-6 -121 -4 -173q2 -82 -29 -117q-11 -15 -15 -47.5t-8 -45t-16 -14t-20.5 3.5t-14 13t-10 17t-15 19t-10 32
t2 40t-3 29t-10.5 21t-12 19q-12 19 -9.5 41.5t4.5 38.5q7 41 6 53q-4 28 2 62q-8 14 -12 29q-7 26 -22 31q-30 9 -42 49q-9 31 -4.5 40t5.5 12q3 8 -33 39q-18 15 -25.5 37t-16 36.5t-16.5 27.5q-16 28 -8 48q8 14 30 17.5t44 -4t37 -8.5t28.5 -0.5t24 1t16.5 -0.5
q4 -9 12.5 -17t12 -22t4 -37t10 -39t12 -29t4 -25t3.5 -20.5t9 -9.5q7 -2 10 8t6 25q9 45 20 60q13 17 17.5 46t7.5 42t13 21.5t31 5.5t46 -6.5t41 2.5t24 6zM178 768.5q-14 2.5 -22.5 13.5t-2.5 29.5t18 25.5q36 21 42.5 30.5t16 17t20.5 13.5q28 15 36 11.5t17 -6t11 -19
t-5.5 -27.5t-12 -12.5t-9.5 -5.5l-10 -8q-13 -10 -19 -6q-3 2 -10 -5.5t-9 -16.5q-2 -5 -11 -7t-22.5 -16t-27.5 -11.5z" />
    <glyph glyph-name="thorn" unicode="&#xfe;" horiz-adv-x="457" 
d="M183 86q5 -10 5 -28q0 -33 -13 -46q-21 -21 -55 -32q-15 -5 -30.5 2.5t-34 9t-24 10.5t-5.5 20q0 23 12.5 42t16.5 42q11 60 3 103t-11 62.5t-5.5 37t4 21t7.5 9.5t0.5 13t-2.5 14t-3 11.5t-3.5 19t-4.5 33.5q-4 57 -1 91t-3 67.5t-12.5 62t-8 50.5t8.5 32.5t21 9.5
t24 -4t25.5 -5.5t21.5 3.5q38 23 47 1q3 -6 7 -9t7 -7q7 -8 4.5 -23.5t-2.5 -24t1 -14.5q4 -28 0 -50q6 0 12 -1t13 1t17 -1t18 -2t15 -1t15 -2h18q9 0 14 -3t11 -4.5t13 -3.5q18 -5 21 -15q4 -15 12 -21l12 -9t7 -7q5 -10 17.5 -17.5t17.5 -16.5t13.5 -18.5t8.5 -21
t3 -18.5t6 -16q8 -31 -15 -89q-7 -17 -5.5 -35t-5.5 -30t-10 -19.5t-7 -10.5t-7 -7q-9 -12 -8 -33q2 -42 -32 -65q-22 -15 -44.5 -12.5t-38.5 5t-33 -0.5q-28 -3 -49 -14q2 -28 -6 -36zM188 429.5q0 -7.5 3.5 -14t0.5 -16.5q-6 -19 -4.5 -33t1.5 -31.5t-5 -38t2 -40.5
q2 -7 15 -5q25 5 29.5 17.5t15 18t13 17t9.5 22t7 25t5.5 26t0.5 20.5t-7.5 11t-6.5 3t-11 3q-21 4 -30 12.5t-14 13.5q-11 9 -17.5 3t-6.5 -13.5z" />
    <glyph glyph-name="ydieresis" unicode="&#xff;" horiz-adv-x="442" 
d="M435 740q13 0 30 -21q8 -12 8 -29q0 -33 -23 -57.5t-31 -40.5t-8.5 -32t-3.5 -27t-9 -21q-13 -23 -37 -29q-5 -23 -18.5 -40t-17 -24t-5.5 -13q-5 -13 -12 -23q-6 -121 -4 -173q2 -82 -29 -117q-11 -15 -15 -47.5t-8 -45t-16 -14t-20.5 3.5t-14 13t-10 17t-15 19t-10 32
t2 40t-3 29t-10.5 21t-12 19q-12 19 -9.5 41.5t4.5 38.5q7 41 6 53q-4 28 2 62q-8 14 -12 29q-7 26 -22 31q-30 9 -42 49q-9 31 -4.5 40t5.5 12q3 8 -33 39q-18 15 -25.5 37t-16 36.5t-16.5 27.5q-16 28 -8 48q8 14 30 17.5t44 -4t37 -8.5t28.5 -0.5t24 1t16.5 -0.5
q4 -9 12.5 -17t12 -22t4 -37t10 -39t12 -29t4 -25t3.5 -20.5t9 -9.5q7 -2 10 8t6 25q9 45 20 60q13 17 17.5 46t7.5 42t13 21.5t31 5.5t46 -6.5t41 2.5t24 6zM91 890q15 16 27.5 16.5t23 -3t19.5 -10.5q23 -18 21 -44q0 -27 -23 -44q-19 -15 -39 -10t-34 19t-12 37t17 39z
M340 805.5q-14 -10.5 -34 -12t-28.5 10t-9 11.5t-5.5 5t-5 15.5t-3.5 15t3.5 17t12 16t9.5 8t11.5 8.5q42 22 68 -23q4 -6 9.5 -12t6.5 -20t-10 -21.5t-25 -18z" />
    <glyph glyph-name="dotlessi" unicode="&#x131;" horiz-adv-x="336" 
d="M272 553q-34 -9 -13 -116q7 -29 7.5 -48.5t-5.5 -42.5t-6 -37t-4 -33q1 -21 -0.5 -42.5t-2.5 -41.5q-3 -49 -1 -58t6.5 -11.5t10.5 -4.5q14 -5 17 -13t2.5 -22.5t-3.5 -30.5q-9 -38 -25 -49q-9 -6 -18.5 -4t-20.5 4q-34 6 -58 -6q-59 -32 -91 0q-13 13 -16 40
q-4 49 5.5 63t16 17.5t11.5 6.5q11 5 11 17q0 9 2.5 19.5t4.5 22.5q5 29 -5 48q-11 22 -9.5 36t2.5 25l4 24q2 29 -1 49.5t-4.5 43t-1 42.5t0.5 38q0 42 -8.5 50t-15.5 8.5t-14 0.5q-19 -2 -24 6q-11 11 -11 28t6.5 26t8.5 20.5t2 24.5q2 30 -2 39.5t-5.5 17t-1.5 14.5
q0 29 41 30q25 1 51 -0.5t41 1.5q52 10 83.5 8t40.5 -5q25 -10 27 -55q1 -21 1 -44t2 -47q4 -50 -38 -59z" />
    <glyph glyph-name="Lslash" unicode="&#x141;" horiz-adv-x="366" 
d="M204 143q12 5 26 5t22 -4t16 -9q19 -13 41 -12.5t37 2t29 -8.5q17 -15 15 -50q-2 -33 -15 -42.5t-24 -9.5t-22 1.5t-21 2.5t-17 -5q-36 -25 -57 -5q-10 11 -26 10t-28.5 -6.5t-25.5 -9.5q-59 -22 -80 32q-4 11 -6.5 20.5t-5.5 15.5q-7 14 -4.5 48.5t1 54t-7.5 44t-7 45.5
q-14 -9 -25 -15.5t-21 -4.5q-26 5 -29 42q-2 26 17 46q10 9 22 12q18 5 33 13q1 8 5 16.5t8 17.5q10 22 8 40.5t-6 26t-8.5 13t-8.5 10.5t-4 14q-9 81 -9 208q0 11 10 21q19 19 30 17q37 -10 66.5 -2.5t51.5 8t38 -20.5q36 -50 18 -119q-5 -16 -4 -30.5t-5.5 -31t-5.5 -30.5
t3 -34q25 14 34.5 14.5t20 -4.5t17.5 -15q18 -21 6 -43t-23.5 -28.5t-23 -8t-22 -0.5t-17.5 1q-3 -9 -10 -21t-9 -26.5t-1 -31t2.5 -34t0 -38t-1.5 -48t3 -53.5z" />
    <glyph glyph-name="lslash" unicode="&#x142;" horiz-adv-x="325" 
d="M201 469q33 23 45.5 24t23 -4t18.5 -15q17 -22 4.5 -44.5t-25.5 -28.5t-26 -7t-23 1q-17 3 -22 -9q-3 -30 -8 -48q-16 -9 -5 -42l7 -21q10 -30 10 -59t-5 -56q29 -16 41 -17q29 -4 52.5 8t34 10t15.5 -9q5 -10 2.5 -30.5t-0.5 -34t3.5 -26t1.5 -23.5t-6.5 -18.5
t-19.5 -12.5t-29 -7q-37 -3 -64 11q-25 13 -47.5 8t-35 -9.5t-29 -8.5t-32.5 -3.5t-27 18t-12 40.5t7 47t6 54.5t-4 52t0 37t0 27.5l-1 -1q-25 -13 -38.5 -23t-25.5 -8q-27 4 -30 42q-2 26 17 46q10 9 23 12q20 6 36 15q2 13 7.5 21t7 13.5t-0.5 19.5q-8 57 -5.5 88t-1 53.5
t-1.5 37t-2 24.5t-2.5 14.5t-0.5 13t-4 18.5q-6 30 -3.5 41t10 25.5t18.5 17.5t13 5t10 5q21 6 31 1t18 -5.5t16.5 0t16.5 2.5l12 2q21 6 32 -2q7 -7 10 -11t1 -12t2 -13t3 -14.5t-0.5 -14t1.5 -9.5q2 -10 -2 -24t-5 -18.5t-1 -8.5q0 -13 -3.5 -24.5t-4 -19t-0.5 -17.5v-22
q0 -12 -1 -26q-3 -22 -3 -49z" />
    <glyph glyph-name="OE" unicode="&#x152;" horiz-adv-x="668" 
d="M656 693q2 -5 0.5 -18.5t-6 -39.5t-3.5 -40.5t1.5 -28t-0.5 -26.5q-1 -31 -14 -39t-19 -10t-21 8q-11 5 -31.5 -6t-31 -13t-16.5 7.5t-19 15.5t-26 7q-33 2 -43 -22t-8 -51.5t11 -35.5t18 -7.5t19 2.5q29 4 45 -0.5t24.5 -23t6 -45.5t-12.5 -52q-15 -37 -42 -17
q-34 25 -49 12q-23 -18 -16 -48q2 -8 -1 -17t-6 -19q-8 -27 2 -48t29.5 -20t45 9t49 20.5t32.5 12.5t13 -3.5t13 -10.5q26 -23 21 -61q-13 -96 -41 -100q-9 -1 -19.5 1t-22.5 4t-25.5 2t-34 -8.5t-45.5 -4t-48 12t-44 12t-35.5 -4t-25.5 -18.5q-24 -20 -66 -20q-40 0 -56 21
q-8 11 -16.5 22.5t-17.5 22t-21 13.5q-29 7 -41 43q-4 12 -5.5 29t-2.5 29q-4 29 -11 36.5t-9 16t-4 18.5q-4 25 -8.5 31t-7.5 23t-4 38q-1 52 9 65t15.5 22t7.5 17q4 12 -1.5 37.5t0 46t9.5 39.5t7.5 28.5t6.5 17.5q7 14 13 33t10.5 26.5t9.5 13.5q14 15 18 22q18 31 56 50
q26 13 55.5 13t49.5 -4q45 -9 62 -39q15 12 15 19.5t4 13.5t13 11q20 11 57 4q27 -4 45 -15q25 10 43 6t22.5 -4.5t9.5 -2.5q62 21 81 2q7 -9 12.5 -14t9.5 -9.5t6 -9.5zM268 414.5q-4 25.5 -9.5 38t-21 12.5t-25.5 -9t-15.5 -22.5t-8.5 -30.5q-8 -37 -6.5 -57t0 -31.5
t-2.5 -20.5q-2 -22 7 -31q11 -8 12 -23t1 -24t2.5 -19.5t16.5 -23.5q30 -26 41 10q14 43 14.5 92.5t-0.5 81.5t-5 57.5z" />
    <glyph glyph-name="oe" unicode="&#x153;" horiz-adv-x="668" 
d="M656 693q2 -5 0.5 -18.5t-6 -39.5t-3.5 -40.5t1.5 -28t-0.5 -26.5q-1 -31 -14 -39t-19 -10t-21 8q-11 5 -31.5 -6t-31 -13t-16.5 7.5t-19 15.5t-26 7q-33 2 -43 -22t-8 -51.5t11 -35.5t18 -7.5t19 2.5q29 4 45 -0.5t24.5 -23t6 -45.5t-12.5 -52q-15 -37 -42 -17
q-34 25 -49 12q-23 -18 -16 -48q2 -8 -1 -17t-6 -19q-8 -27 2 -48t29.5 -20t45 9t49 20.5t32.5 12.5t13 -3.5t13 -10.5q26 -23 21 -61q-13 -96 -41 -100q-9 -1 -19.5 1t-22.5 4t-25.5 2t-34 -8.5t-45.5 -4t-48 12t-44 12t-35.5 -4t-25.5 -18.5q-24 -20 -66 -20q-40 0 -56 21
q-8 11 -16.5 22.5t-17.5 22t-21 13.5q-29 7 -41 43q-4 12 -5.5 29t-2.5 29q-4 29 -11 36.5t-9 16t-4 18.5q-4 25 -8.5 31t-7.5 23t-4 38q-1 52 9 65t15.5 22t7.5 17q4 12 -1.5 37.5t0 46t9.5 39.5t7.5 28.5t6.5 17.5q7 14 13 33t10.5 26.5t9.5 13.5q14 15 18 22q18 31 56 50
q26 13 55.5 13t49.5 -4q45 -9 62 -39q15 12 15 19.5t4 13.5t13 11q20 11 57 4q27 -4 45 -15q25 10 43 6t22.5 -4.5t9.5 -2.5q62 21 81 2q7 -9 12.5 -14t9.5 -9.5t6 -9.5zM268 414.5q-4 25.5 -9.5 38t-21 12.5t-25.5 -9t-15.5 -22.5t-8.5 -30.5q-8 -37 -6.5 -57t0 -31.5
t-2.5 -20.5q-2 -22 7 -31q11 -8 12 -23t1 -24t2.5 -19.5t16.5 -23.5q30 -26 41 10q14 43 14.5 92.5t-0.5 81.5t-5 57.5z" />
    <glyph glyph-name="Scaron" unicode="&#x160;" horiz-adv-x="421" 
d="M49 684q24 29 58 36q15 4 30 7t31 12q30 17 41.5 17t18 -2t15 -3t18 -1t21.5 -2q38 -5 80 -50q27 -29 33.5 -60t5.5 -61q-1 -43 6 -64t9 -32t-2.5 -30.5t-14.5 -27.5t-22 -10t-23 -1t-18 1t-9.5 -3.5t-5.5 -7.5q-7 -7 -27 -1t-33 25.5t-3 50.5q3 10 6 18.5t1 14.5
q-4 14 -19 15t-26 -8q-15 -14 -19.5 -34.5t-3 -29.5t1.5 -19t1 -21q4 -26 12.5 -35t14.5 -10t11.5 -0.5t11.5 0.5t17 -5t22.5 -10t20.5 -16t15.5 -14t11.5 -5.5t9.5 -4.5t7.5 -10q13 -35 6 -81q-2 -17 -3.5 -27t-2.5 -17.5t-2 -13t-1 -16.5q0 -41 -13.5 -63t-27.5 -30
t-18 -12t-6.5 -10t-7.5 -13q-12 -17 -35 -24q-26 -8 -55.5 -7.5t-45.5 3.5t-29.5 15t-22 26.5t-13.5 16t-11 1.5h-12q-16 0 -21.5 9.5t-4 18t0.5 24.5q0 16 0.5 30t11.5 24q24 19 42 20t24 7t9.5 11t10 6t13.5 -1q17 -5 17 -20t0.5 -27.5t3.5 -22.5q7 -26 26 -24q21 2 23 42
v21v22q0 47 -45 72q-18 10 -35 19t-32 22q-34 30 -43 69t-13 50.5t-7.5 15.5t-7.5 6t-11 12q-11 15 -5 35t10 33.5t4 29.5t-1.5 31.5t-1.5 31.5q2 36 27 66zM321 868q-12 -10 -28 -20q-26 -18 -44 -32t-24.5 -17t-12 -3t-16 6t-19.5 18t-18.5 15.5t-11.5 6.5t-3.5 6
t-4.5 3.5t-6 0.5q-10 2 -17 10t-14 10.5t-15 9.5q-17 15 6 40q17 17 34 7q8 -5 19 -10.5t17 -16t14 -12.5t13 -9.5t16.5 -9.5t14.5 -4t10.5 5t11.5 15t13 12.5t10.5 13t9.5 11.5q9 2 16.5 8t25.5 5q26 -2 28.5 -24.5t-25.5 -44.5z" />
    <glyph glyph-name="scaron" unicode="&#x161;" horiz-adv-x="408" 
d="M397 570q-1 -7 -14 -24t-15.5 -36.5t-1.5 -32t0 -21.5q-1 -22 -24 -30q-20 -8 -31 1t-18 23.5t-10.5 25t-11.5 11.5q-14 3 -21.5 -3t-11.5 -10q-8 -8 -16.5 -11t-13.5 -6q-10 -7 -8 -23q4 -31 69 -94q12 -12 28.5 -26t32.5 -32q36 -43 40 -97q4 -55 -16 -96
q-16 -33 -38 -43q-17 -9 -23 -23.5t-9 -21t-12.5 -11t-21.5 -3.5t-22.5 4.5t-19 8t-14 5.5t-10.5 -3.5t-10 -9.5q-15 -15 -27 -11.5t-28 11.5t-31 20q-54 42 -37 86q11 29 24.5 41t21.5 12q13 0 17.5 -9.5t7.5 -16t7 -10.5t12.5 -8t18.5 -5q25 -2 38 20t10 48q-7 47 -20 40
q-11 -7 -27 -0.5t-17 17t-4 20.5t-7 19q-9 23 -16 25q-8 2 -21.5 2t-29.5 17.5t-23 44t-12 46t-9 30.5t-7 23q-10 38 -1 98q6 35 22 61.5t36 52.5q38 51 70 71t49 4q15 -13 32.5 -10.5t27.5 5.5l18 4q17 4 34.5 -1t31.5 -34q7 -15 14.5 -26t14.5 -21q15 -24 17.5 -39.5
t7 -22.5t7 -13t1.5 -13zM321 868q-12 -10 -28 -20q-26 -18 -44 -32t-24.5 -17t-12 -3t-16 6t-19.5 18t-18.5 15.5t-11.5 6.5t-3.5 6t-4.5 3.5t-6 0.5q-10 2 -17 10t-14 10.5t-15 9.5q-17 15 6 40q17 17 34 7q8 -5 19 -10.5t17 -16t14 -12.5t13 -9.5t16.5 -9.5t14.5 -4
t10.5 5t11.5 15t13 12.5t10.5 13t9.5 11.5q9 2 16.5 8t25.5 5q26 -2 28.5 -24.5t-25.5 -44.5z" />
    <glyph glyph-name="Ydieresis" unicode="&#x178;" horiz-adv-x="412" 
d="M271 151q5 -45 5.5 -63.5t-1 -30.5t-4.5 -22q-7 -23 -20 -25q-9 0 -17.5 -8.5t-13.5 -12.5t-14.5 -4t-21 3t-20.5 16q-20 29 -13 114q-14 10 -19.5 29t1 56t8 54t0 28.5t-5.5 19t-11 22t-9.5 28t-8.5 20t-8 17t-7 20.5t-6.5 29t-9 31.5t-15 21t-14.5 16.5
q-20 22 -28 37.5t-8.5 26.5t0.5 21q3 26 -2 35l-11 22q-17 34 -17 54t10.5 30t22.5 6t33 -8.5t32.5 -2t21.5 6.5q25 8 40 2.5t20.5 -18t6.5 -27.5t1.5 -30t7 -26t10.5 -19t6.5 -16.5t3.5 -17.5t2.5 -22t5.5 -18.5t9 -5.5q12 2 16 24.5t9 38t9 27.5q9 24 7.5 33.5t-2 20
t3.5 19.5q10 22 42.5 18t52.5 -5t31 8t22 8t19 -9q19 -19 -2.5 -54.5t-28.5 -56t-3.5 -35t2.5 -21.5t-5 -14.5t-10 -17.5q-43 -76 -77 -190q-17 -56 -23 -138q-2 -31 -5 -45zM81 890q15 16 27.5 16.5t23 -3t19.5 -10.5q23 -18 21 -44q0 -27 -23 -44q-19 -15 -39 -10t-34 19
t-12 37t17 39zM330 805.5q-14 -10.5 -34 -12t-28.5 10t-9 11.5t-5.5 5t-5 15.5t-3.5 15t3.5 17t12 16t9.5 8t11.5 8.5q42 22 68 -23q4 -6 9.5 -12t6.5 -20t-10 -21.5t-25 -18z" />
    <glyph glyph-name="Zcaron" unicode="&#x17d;" horiz-adv-x="391" 
d="M297.5 -6.5q-11.5 -0.5 -23 -3.5t-21.5 -0.5t-20 5.5q-50 15 -77 -1q-5 -2 -10.5 -2t-16.5 5t-20.5 4t-18.5 -1q-21 -2 -32 14q-6 9 -7.5 36.5t-4.5 38.5q-7 18 -2.5 29t7.5 17t4.5 12t3.5 12.5t5 15.5q8 20 24 50t21.5 44.5t8 24t3.5 15.5t5.5 13t13.5 11.5t12.5 11
t2.5 10.5t-2.5 7.5t-3.5 7.5t-1 9.5t10 21t18 33.5q24 48 20.5 57t-8.5 9t-11 -2q-20 -9 -31 -3q-22 11 -57 -8q-41 -21 -69 -1q-10 7 -15.5 24.5t-4.5 37t4 37.5q8 49 4 61t-6 23t-2 23q2 27 20 42q16 13 35 9.5t31 -7t31.5 -6t43 2t43 4t30 -2.5t20.5 -3q24 -2 43 4.5
t33 10t28 -4.5q34 -20 17 -78q-26 -88 -8 -131q8 -23 6.5 -44.5t-18 -40t-23 -31t-12 -25t-11.5 -26.5t-15 -29q-14 -23 -13 -27t2 -5.5t-3 -8.5q-5 -8 -10 -8t-8.5 -4t-8.5 -19q-15 -45 -29 -66t-25 -36q-6 -6 -10 -12.5t-8 -11.5q26 8 46 6t29 -2t23.5 8.5t34 11.5
t30.5 -4.5t12.5 -13.5t0.5 -13.5t-2.5 -17t0 -27.5t5.5 -40t-3 -32t-16.5 -13.5t-20.5 -5t-22.5 -2zM310 868q-12 -10 -28 -20q-26 -18 -44 -32t-24.5 -17t-12 -3t-16 6t-19.5 18t-18.5 15.5t-11.5 6.5t-3.5 6t-4.5 3.5t-6 0.5q-10 2 -17 10t-14 10.5t-15 9.5q-17 15 6 40
q17 17 34 7q8 -5 19 -10.5t17 -16t14 -12.5t13 -9.5t16.5 -9.5t14.5 -4t10.5 5t11.5 15t13 12.5t10.5 13t9.5 11.5q9 2 16.5 8t25.5 5q26 -2 28.5 -24.5t-25.5 -44.5z" />
    <glyph glyph-name="zcaron" unicode="&#x17e;" horiz-adv-x="401" 
d="M39.5 87q1.5 20 0.5 32.5t-7 26.5q34 42 52 76.5t19 40.5t0 13.5t0 16.5q1 24 10.5 36.5t18 21t17.5 19.5q21 26 35 57q20 39 32.5 59.5t6.5 27t-11.5 5.5t-12.5 -3q-25 -4 -43 1t-26.5 0t-16.5 -12q-21 -18 -46 -12.5t-30.5 18t-5.5 28.5t2 33q4 26 -4 48t-11.5 36
t-3.5 27.5t8 27.5q22 45 107 25q13 -3 22 -6t17 -4q19 -4 34.5 2t21 7t10.5 1q16 -2 27.5 0t20 1.5t15.5 -1.5q16 -4 31 -3q20 1 41 -17q9 -12 7.5 -30.5t1.5 -36t2 -25.5t-3 -16q-4 -26 -4 -43t1.5 -26.5t2.5 -16.5q4 -16 2 -36q-8 -38 -66 -124q9 -37 -16 -54
q-10 -8 -30 -14q0 -17 -24 -51.5t-29.5 -53.5t-5.5 -36q12 0 17.5 -3.5t23 -4.5t37 0t39 12.5t32.5 2.5t6 -29t-7 -44t3 -43q10 -36 -15 -43q-7 -3 -16.5 -1.5t-19.5 2.5q-28 5 -41.5 0t-26.5 -4.5t-24 2.5q-34 6 -47 3t-24.5 -8t-23.5 -9q-30 -8 -50.5 0.5t-26 25t-6.5 36
t0.5 39.5zM310 868q-12 -10 -28 -20q-26 -18 -44 -32t-24.5 -17t-12 -3t-16 6t-19.5 18t-18.5 15.5t-11.5 6.5t-3.5 6t-4.5 3.5t-6 0.5q-10 2 -17 10t-14 10.5t-15 9.5q-17 15 6 40q17 17 34 7q8 -5 19 -10.5t17 -16t14 -12.5t13 -9.5t16.5 -9.5t14.5 -4t10.5 5t11.5 15
t13 12.5t10.5 13t9.5 11.5q9 2 16.5 8t25.5 5q26 -2 28.5 -24.5t-25.5 -44.5z" />
    <glyph glyph-name="circumflex" unicode="&#x2c6;" 
d="M100 652q-4 26 54 63q30 20 46 33t22 16q10 5 25 -1q14 -8 22.5 -20.5t18.5 -15.5t12 -6t3.5 -6t4.5 -3.5t6 -1.5q10 -1 16.5 -9.5t13.5 -10.5q25 -9 22.5 -24t-13 -25.5t-18 -11t-15.5 4.5t-19 10t-17 16t-14 13t-13 9t-16.5 9t-14.5 4t-10.5 -4.5t-11.5 -14.5
t-13 -12.5t-10.5 -13.5t-10 -11t-16 -8t-25.5 -5q-26 2 -29 26z" />
    <glyph glyph-name="caron" unicode="&#x2c7;" 
d="M340 694q-12 -10 -28 -20q-26 -18 -44 -32t-24.5 -17t-12 -3t-16 6t-19.5 18t-18.5 15.5t-11.5 6.5t-3.5 6t-4.5 3.5t-6 0.5q-10 2 -17 10t-14 10.5t-15 9.5q-17 15 6 40q17 17 34 7q8 -5 19 -10.5t17 -16t14 -12.5t13 -9.5t16.5 -9.5t14.5 -4t10.5 5t11.5 15t13 12.5
t10.5 13t9.5 11.5q9 2 16.5 8t25.5 5q26 -2 28.5 -24.5t-25.5 -44.5z" />
    <glyph glyph-name="breve" unicode="&#x2d8;" 
d="M363.5 750q10.5 -6 10.5 -22q-1 -30 -32 -48q-2 -7 -7.5 -15t-21.5 -13t-24 -8.5t-14 -5.5q-15 -5 -29 -5.5t-24.5 -1t-21.5 7.5q-13 10 -33.5 13.5t-29 15.5t-19 17t-16 13.5t-8.5 17.5q-5 22 3 30q19 19 33 14q4 -2 12 -1q12 2 15 -7q8 -23 23 -37q24 -21 50 -21
q8 0 21 8q24 15 37 14q12 23 25 27q5 20 28 15q12 -2 22.5 -8z" />
    <glyph glyph-name="dotaccent" unicode="&#x2d9;" 
d="M259 651.5q-14 -10.5 -34.5 -12t-28.5 10t-9 11.5t-5.5 5t-4.5 15.5t-3.5 15t3.5 17t11.5 16t9.5 8t12 8.5q41 22 68 -23q3 -6 9 -12t6.5 -20t-10 -21.5t-24.5 -18z" />
    <glyph glyph-name="ring" unicode="&#x2da;" 
d="M171 745q4 11 12.5 13t13.5 7t11 3.5t10 3t16 3t17.5 1t14 -1.5t13 -5.5t9 -3.5t9.5 -14t9 -15.5t6 -9.5q3 -16 2.5 -28.5t-0.5 -26t-8 -18t-13 -16.5t-16.5 -12.5t-18.5 -3.5t-18.5 -1t-17 -2.5t-13 0t-17.5 6t-14 6.5t-9 12.5t-9 11.5t-6 11.5t-3 16.5q-2 21 3 29.5
t4 16t5 11t8 6.5zM208 720l-6 -15v-4t-0.5 -4.5t-1.5 -10.5q-3 -16 11 -19q5 -2 11 -2t11 5t11 5.5t7.5 4.5t3.5 4.5t4 1.5q5 2 5 13q0 19 -28 29q-6 3 -10 3t-4.5 -3t-7 -5t-6.5 -3z" />
    <glyph glyph-name="ogonek" unicode="&#x2db;" 
d="M273 -73q25 20 40 18q28 23 46 -10q5 -9 -8 -24q-20 -27 -59 -34q-15 -17 -38 -17t-31.5 -0.5t-14.5 -1.5q-13 0 -27 4t-24 6.5t-13 13.5q-5 19 -22 27q-9 6 -8.5 19.5t-4 22t-3.5 18t6 18.5q15 31 46 34q10 1 13 -3.5t7 -5t7 -0.5q8 -2 4 -11q-11 -26 -8 -42
q5 -25 29 -34q6 -2 22 1q29 7 41 1z" />
    <glyph glyph-name="tilde" unicode="&#x2dc;" 
d="M273 707q7 10 18 10q11 14 29.5 18t33.5 1.5t23 -11t4 -15.5t-3 -14.5t-6.5 -11.5t-25.5 -13t-28.5 -15t-18.5 -8t-25 0t-22 2.5t-8 1.5q-14 6 -22 16.5t-10 13.5q-5 4 -18.5 1.5t-17.5 -11t-12 -12.5q-5 -1 -16 -8q-18 -10 -24 -10t-17.5 4t-13.5 10.5t-2 13t-2.5 13
t-5 10.5t2.5 12t8.5 9t10 6.5t15 7t16 5.5t19.5 11q18 12 29 1q9 9 21.5 4.5t20 -6.5t7.5 -8.5t8 -15.5t12.5 -9t19.5 -3z" />
    <glyph glyph-name="hungarumlaut" unicode="&#x2dd;" 
d="M96 625.5q-14 2.5 -22.5 13.5t-2.5 29.5t18 25.5q36 21 42.5 30.5t16 17t20.5 13.5q30 15 37 11.5t16 -6t11.5 -19t-5.5 -27.5t-12.5 -12.5t-9.5 -5.5l-10 -8q-13 -10 -19 -6q-3 2 -10 -5.5t-9 -16.5q-2 -5 -11 -7t-22.5 -16t-27.5 -11.5zM260 625.5q-14 2.5 -22.5 13.5
t-2.5 29.5t18 25.5q36 21 42.5 30.5t16 17t20.5 13.5q28 15 36 11.5t17 -6t11 -19t-5.5 -27.5t-12 -12.5t-9.5 -5.5l-10 -8q-13 -10 -19 -6q-3 2 -10 -5.5t-9 -16.5q-2 -5 -11 -7t-22.5 -16t-27.5 -11.5z" />
    <glyph glyph-name="endash" unicode="&#x2013;" horiz-adv-x="399" 
d="M14 309q-19 19 -2 51q20 40 68 29q34 -8 57.5 -3.5t30.5 0.5t12.5 -3t13.5 3q24 6 52 6q19 0 37.5 1.5t34.5 2.5q39 2 53 -4q20 -12 22 -30q4 -34 -18 -47t-36.5 -11.5t-26 7.5t-20 13t-14 7t-9.5 -3t-9 -7q-13 -9 -32 -9t-25 -1.5t-11 -4.5q-11 -5 -28 -5h-31
q-18 0 -46 1.5t-44.5 -0.5t-28.5 7z" />
    <glyph glyph-name="emdash" unicode="&#x2014;" horiz-adv-x="587" 
d="M5 344q0 61 67 55q38 -3 56 -7q34 -6 47.5 -6t27.5 -0.5t27 1t26 1.5h26q31 2 43.5 5t27.5 1.5t31 -3.5t30 -4t23 0q8 -2 18.5 -1l21 2t21 1t23 -3.5t25.5 -4.5q29 -2 34 -25q5 -21 -7 -30q-5 -4 -8 -11t-12.5 -11t-18 -3t-17.5 -2t-30.5 -3t-49.5 4q-12 -5 -33.5 -1
t-40 2.5t-28.5 -2.5t-21 -1q-22 0 -52 7q-17 4 -27 4t-17 -1q-24 -3 -43 -0.5t-29.5 -1t-16.5 0t-14 0t-17.5 -1.5t-13 1t-7.5 -2q-23 -9 -56 13q-15 10 -16 27z" />
    <glyph glyph-name="quoteleft" unicode="&#x2018;" horiz-adv-x="142" 
d="M19.5 666q1.5 3 2.5 11.5t4.5 13t6.5 12.5t6 10t6 10q4 8 9.5 9t12.5 8q19 27 38 2q8 -10 0 -19.5t-11 -12.5q-6 -6 -8 -6q-15 -6 -17 -24q-1 -7 4 -14q8 4 12.5 1t13.5 -2t13 -5.5t11 -9.5t8.5 -14.5t-0.5 -24.5q-5 -33 -23 -41q-9 -4 -17 -8q-11 -6 -18 -2.5t-15 0
t-10 0.5t-5.5 5t-7.5 3q-11 4 -13 13.5t-3.5 12t-2.5 3.5q-1 3 -1 16.5t1.5 17t0 12t-1 12t1.5 6t2.5 5.5z" />
    <glyph glyph-name="quoteright" unicode="&#x2019;" horiz-adv-x="142" 
d="M127 696l-2 -26q0 -2 1.5 -11.5t-1.5 -12.5t-4 -14t-4.5 -16t-7 -13t-6.5 -9.5t-6.5 -9.5t-9.5 -9.5t-11 -8.5q-11 -14 -23 -12q-10 0 -14 7.5t-4 13.5t7.5 15.5t9.5 11t11 5t10 16t-3 19.5q-9 -5 -13.5 -2t-13.5 2t-12.5 5t-11 9.5t-9 15t1.5 24.5q6 34 23.5 41.5t21 11
t11.5 -0.5t16 -1t10 -0.5t5.5 -4.5t8.5 -2q9 -4 11.5 -14.5t4 -12.5t2.5 -3q1 -3 1 -14z" />
    <glyph glyph-name="quotesinglbase" unicode="&#x201a;" horiz-adv-x="144" 
d="M125 71l4 -33q0 -27 -9 -43.5t-14 -30.5q-10 -27 -33 -37q-14 -7 -19.5 -5.5t-10 7.5t-1.5 17q4 19 24 20q7 1 7 12q0 17 3.5 21t1.5 9q-14 -3 -21 0l-11 4q-3 2 -11 1.5t-16.5 7.5t-8.5 22t1.5 18t3.5 15q3 15 11.5 22.5t17 14t22 5.5t18.5 -6t12.5 -9.5t18.5 -10
t10 -21.5z" />
    <glyph glyph-name="quotedblleft" unicode="&#x201c;" horiz-adv-x="273" 
d="M19.5 666q1.5 3 2.5 11.5t4.5 13t6.5 12.5t6 10t6 10q4 8 9.5 9t12.5 8q19 27 38 2q8 -10 0 -19.5t-11 -12.5q-6 -6 -8 -6q-15 -6 -17 -24q-1 -7 4 -14q8 4 12.5 1t13.5 -2t13 -5.5t11 -9.5t8.5 -14.5t-0.5 -24.5q-5 -33 -23 -41q-9 -4 -17 -8q-11 -6 -18 -2.5t-15 0
t-10 0.5t-5.5 5t-7.5 3q-11 4 -13 13.5t-3.5 12t-2.5 3.5q-1 3 -1 16.5t1.5 17t0 12t-1 12t1.5 6t2.5 5.5zM147 601l-3 34q0 24 9.5 41.5t14.5 31.5q8 24 33 37q14 8 18.5 6t9.5 -8t2.5 -16.5t-10 -15.5t-14.5 -6t-7 -12q0 -15 -3 -19t-2.5 -5.5t0.5 -3.5q15 2 25 -2.5
t16 -4.5q25 0 27 -29q0 -14 -2 -18.5t-4 -14.5q-3 -16 -11 -23.5t-16.5 -13.5t-22 -5t-19 6t-13 9.5t-18 10t-10.5 21.5z" />
    <glyph glyph-name="quotedblright" unicode="&#x201d;" horiz-adv-x="273" 
d="M258 696l-2 -26q0 -2 1.5 -11.5t-1.5 -12.5t-4 -14t-4.5 -16t-7 -13t-6.5 -9.5t-6.5 -9.5t-9.5 -9.5t-11 -8.5q-11 -14 -23 -12q-10 0 -14 7.5t-4 13.5t7.5 15.5t9.5 11t10.5 4.5t11.5 22q0 4 -4 14q-9 -5 -13.5 -2t-13.5 2t-12.5 5t-11 9.5t-9 15t0.5 24.5q5 33 23 41
q9 4 14 7t8 4.5t5.5 1.5t8.5 -3t14 0t10 -0.5t5.5 -4.5t7.5 -2q10 -4 12.5 -14.5t4 -12.5t1.5 -3q2 -3 2 -14zM125 706l4 -34q0 -26 -9 -43t-14 -30q-11 -27 -33 -37q-14 -7 -19.5 -5.5t-10 7t-1.5 16.5q4 20 24 22q7 0 7 11q0 17 3.5 21t1.5 9q-14 -3 -21 0l-10.5 4.5
t-11.5 1t-16.5 7.5t-8.5 22t1.5 18t3.5 15q3 15 11.5 22.5t17 14t22 5.5t18.5 -6.5t12.5 -9.5t18.5 -9.5t10 -21.5z" />
    <glyph glyph-name="quotedblbase" unicode="&#x201e;" horiz-adv-x="273" 
d="M258 61l-2 -25q0 -3 1.5 -12.5t-1.5 -12.5t-4 -14t-4.5 -16t-7 -13t-6.5 -9.5t-6.5 -9.5t-9.5 -9t-11 -8q-10 -15 -23 -13q-10 0 -14 7.5t-4 13.5t7.5 15.5t9.5 11t8 3.5q9 3 14 23q0 4 -4 14q-9 -5 -13.5 -2t-13.5 2t-12.5 5.5t-11 10t-9 14.5t0.5 24q5 33 23 41
q9 4 14 7t8 4.5t5.5 1.5t8.5 -2.5t14 0.5t10 -1t5.5 -5t7.5 -3q11 -3 13 -13.5t3.5 -12.5t1.5 -3q2 -3 2 -14zM125 71l4 -33q0 -27 -9 -43.5t-14 -30.5q-10 -27 -33 -37q-14 -7 -19.5 -5.5t-10 7.5t-1.5 17q4 19 24 20q7 1 7 12q0 17 3.5 21t1.5 9q-14 -3 -21 0l-11 4
q-3 2 -11 1.5t-16.5 7.5t-8.5 22t1.5 18t3.5 15q3 15 11.5 22.5t17 14t22 5.5t18.5 -6t12.5 -9.5t18.5 -10t10 -21.5z" />
    <glyph glyph-name="bullet" unicode="&#x2022;" horiz-adv-x="182" 
d="M50 244.5q-11 6.5 -17 24.5t-11.5 35.5t-6.5 37.5q-2 43 22 88q11 23 43 28q60 9 80 -61q9 -33 4 -55q-2 -9 -0.5 -16t2.5 -13q3 -16 -4.5 -25t-14 -12t-13.5 -5q-18 -6 -24 -12.5t-16.5 -12.5t-21.5 -7t-22 5.5z" />
    <glyph glyph-name="ellipsis" unicode="&#x2026;" horiz-adv-x="579" 
d="M5.5 33q1.5 8 16 21t37 25t60.5 7q18 -2 29 -21q8 -16 5.5 -28.5t-9.5 -21t-16 -15.5q-18 -13 -32 -15t-19.5 -8.5t-18 -3.5t-16 12.5t-11.5 12.5t-14 8t-9.5 12t-2 15zM210.5 33q1.5 8 11 16.5t19.5 16t22 12.5q24 12 47 9.5t30 -8.5t12 -14q20 -36 -19 -65
q-18 -12 -32 -14.5t-19.5 -9t-18 -3.5t-16.5 12.5t-11.5 12.5t-13.5 8t-9.5 12t-2 15zM415.5 33q1.5 8 16 21t36.5 25t60 7q18 -2 28 -21q21 -36 -18 -65q-18 -12 -34 -15q-6 -1 -14 -6q-14 -9 -24 -6t-14 12.5t-11.5 12.5t-14 8t-9.5 12t-1.5 15z" />
    <glyph glyph-name="perthousand" unicode="&#x2030;" horiz-adv-x="799" 
d="M732 346.5q4 0.5 15 -2t22.5 -18t13 -39.5t3 -35t2.5 -22t1 -25t-3 -38t-14.5 -53.5t-27.5 -55.5q-38 -58 -70 -66q-52 -9 -103 16q-11 5 -14.5 15t-12.5 19q-13 13 -18 49q-31 -63 -65 -88q-29 -22 -85 -9q-48 10 -55 29q-4 10 -12.5 18.5t-11.5 20t-5 24.5t-3 26
t-2.5 23.5t1.5 20t7.5 17t9.5 14.5t10 20t21.5 30t27.5 32t16.5 25t11.5 19q14 21 35 28q35 13 50.5 9t19.5 -3.5t14.5 -2t22.5 -18t14 -42.5t3.5 -40t1.5 -31q9 14 23.5 29t24 28.5t15 23.5t11.5 19q14 21 35 28q34 13 54 8q12 -3 16 -2.5zM472 737q15 -4 28 -19
t14.5 -36.5t-5.5 -33t-17 -19t-19 -13t-11.5 -12t-1.5 -13.5t1 -15q0 -19 -16 -35l-13 -17q-6 -7 -10 -13.5t-12 -14.5q-22 -22 -29 -38.5t-18 -29t-27.5 -35t-25.5 -40t-23.5 -30t-18 -30t-6.5 -29.5q-6 -30 -30 -52q-22 -22 -33 -97q-11 -79 -51 -121q-16 -17 -37 -18.5
t-34 6t-17 20.5q-10 28 16 67q7 11 8.5 19t10.5 17t14 11.5t7 14.5t12 22t14 28.5t13 29t14 26t12.5 22t15.5 20t10.5 19t4.5 10.5q6 13 18 29t20 30.5t15 25.5q14 31 22.5 42t19.5 23.5t23 27.5q29 38 40 68q11 34 46 124q-19 19 -66 -4q-54 -26 -60 -26.5t-15 -0.5t-19 2
q3 -16 2 -25.5t1 -18t-1 -22.5t-0.5 -25t-4.5 -27t-12 -32.5t-14.5 -29t-19 -23t-18.5 -19t-16.5 -21t-28 -21.5t-43 -6t-38.5 14t-27 26q-26 33 -26 61.5t2 50t16 44.5q-18 110 70 161q30 18 51 16q59 -4 85 -47q21 -10 46 -3.5t47 15t43 16.5q45 18 52 22t22 0t28 -18z
M93.5 481.5q14.5 -16.5 27.5 -14.5t25 16t22 32q31 56 10 73q-16 14 -19.5 32t-10.5 26q-14 13 -20 2q-2 -4 -6.5 -15t-16.5 -27.5t-17 -30.5t-11.5 -27t-2 -31.5t19 -35zM454 243q-11 1 -18.5 -4l-19.5 -13t-18.5 -8t-9.5 -8t-10.5 -9.5t-11.5 -13.5t-5.5 -34.5t6.5 -36.5
q3 -8 3.5 -13.5t1.5 -9.5q4 -8 18 -13q18 -6 44 21q25 27 25 45q0 6 3.5 15.5t7.5 20.5q13 43 -16 61zM689 243q-10 1 -17.5 -4l-19.5 -13t-18.5 -8t-9.5 -8t-11 -9.5t-11.5 -13.5t-5 -34.5t3.5 -33.5t5.5 -16.5t2.5 -9.5q2 -8 18 -13q17 -6 42.5 21t25.5 45q0 6 4 15.5
t8 20.5q13 43 -17 61z" />
    <glyph glyph-name="guilsinglleft" unicode="&#x2039;" horiz-adv-x="230" 
d="M179 398q26 36 45 20q6 -5 6 -14t-7.5 -20.5t-6.5 -19.5q-16 -20 -27 -34.5t-19 -23.5l-15 -18q-60 -68 -60 -89q0 -26 35 -72q9 -11 17.5 -19.5t8.5 -15t8 -12.5t21.5 -21.5t15.5 -32t1 -19.5t-1 -8q0 -8 -10 -11t-17 6q-10 13 -30 31q-19 14 -51 63q-4 6 -12 14l-17 17
q-23 23 -34 42q-10 14 -18 23t-6.5 25t17.5 30.5t29.5 25.5t24 28t26.5 33q17 14 38 31.5t38 40.5z" />
    <glyph glyph-name="guilsinglright" unicode="&#x203a;" horiz-adv-x="230" 
d="M7.5 383.5q-7.5 11.5 -7.5 20.5t6 14q20 16 45 -20q17 -23 38 -40.5t38 -31.5q16 -16 27 -33t24.5 -28t29 -25.5t17 -30.5t-6.5 -25t-19.5 -27.5t-32.5 -37.5t-31 -35q-27 -43 -49 -59l-16 -15q-7 -8 -13.5 -16.5t-16.5 -5.5t-10 11q0 5 -1 8t1 19.5t15 32t19.5 20t8 7.5
t2.5 6q3 11 9.5 17.5t15 17.5t16.5 23q19 30 19 43.5t-6.5 25t-15.5 24t-19.5 24.5l-17.5 20t-16 18q-19 23 -46 59q1 8 -6.5 19.5z" />
    <glyph glyph-name="fraction" unicode="&#x2044;" horiz-adv-x="497" 
d="M100.5 10.5q-5.5 -12.5 -17.5 -16.5q-29 -10 -48 5q-10 8 -16 12.5t-4 17t4 22t9 17.5q12 12 17 34q1 3 6 9t11 13q16 20 18.5 35.5t8.5 26t7.5 16.5t7 12t12.5 13q18 18 23 33t15.5 24.5t14 20t11.5 20t13.5 18.5t16 19.5t21.5 23.5q30 33 33 46t9.5 20t10 19.5t10 20.5
t8.5 19t5.5 17t9 16.5t13 23t11.5 21t13.5 22.5t11 20t5.5 13t9 14q12 19 12.5 30t8 15.5t9.5 14t8.5 13t17.5 12t20.5 5t11 -9.5t5 -10.5t5.5 -9.5q6 -14 -4.5 -29t-15.5 -26.5t-8.5 -21.5t-6 -19t-11 -24t-14 -24.5t-12 -20.5t-13 -19t-10 -13t-8 -11t-9.5 -13
q-10 -17 -12 -23q-4 -16 -16.5 -32.5t-18.5 -26t-11 -19.5q-14 -24 -18 -30t-14 -22t-21 -33t-21 -32l-14 -21q-38 -56 -62.5 -107.5t-25.5 -62.5t-8 -20t-12.5 -27t-11 -30.5z" />
    <glyph glyph-name="Euro" unicode="&#x20ac;" horiz-adv-x="380" 
d="M52 420l-1 68q0 45 4 58.5t14.5 23.5t15.5 23.5t12 19.5t13 18q13 26 32 36q30 16 45.5 16t18 -1.5t4.5 -3t4.5 -1.5t10.5 2q11 3 23.5 0t22 -1.5t17 -1t16 -2.5t14 -6t11.5 -10q14 -8 17 -25q6 -2 8 -11.5t7 -16.5t3 -17.5t-9 -17t-10.5 -12.5t-6.5 -13q-7 -15 -14 -21
q-17 -11 -26 -9q-34 7 -45 24q-8 11 -18.5 18.5t-26 3t-20.5 -8t-7.5 -9t-5 -14t-7.5 -20.5q-7 -17 -8 -27q-1 -13 -4 -22.5t-2.5 -22t-2 -24.5t0.5 -15t8.5 -3.5t12 1t14.5 2t30.5 -2t45.5 1.5t37.5 6t19.5 -7q11 -18 -10 -34q-3 -2 -7 -6t-11 -7q-14 -7 -41 -2
q-64 10 -100 -6q0 -24 2.5 -38.5t16 -11.5t21.5 3h17q6 0 22.5 3t25.5 2.5t18 -5.5q10 -7 10 -13.5t-5 -10.5t-9 -8t-12 -8.5t-34 0.5q-63 12 -65 -5q-1 -8 2 -21.5t3 -25t9.5 -25.5t20 -15t14 -6t12 -6t18.5 -2t22 0q31 2 59 19q30 0 38 -17q4 -10 5.5 -14t-2.5 -12
t-4.5 -18.5t-12.5 -14.5q-39 -13 -46 -23q-15 -21 -56 -6q-14 6 -25 4.5t-18.5 -1.5t-22.5 3t-26.5 5t-18 6.5t-11.5 14.5t-25 18q-19 8 -21.5 22t-7 28.5l-9 29t-2.5 25.5q1 11 -0.5 20t-12.5 6.5t-19.5 -5.5t-13.5 6t-7.5 11.5t-4 4.5t-1.5 4.5t1.5 10.5t3.5 6.5t7 3.5
t6.5 4t7 -4.5t16 -3t13.5 6t4.5 14t1.5 17.5q0 24 -6 29.5t-19.5 3.5t-21.5 5t-11.5 11t1.5 13t10.5 14t22.5 3q22 -1 20 22z" />
    <glyph glyph-name="trademark" unicode="&#x2122;" horiz-adv-x="482" 
d="M58 671q22 11 66 -1q13 8 30 11.5t28 -2.5q39 -4 49.5 3t18 5.5t18.5 -1.5t18 -1t13 -9q8 1 10 -5.5t3.5 -18t6.5 -15t8 -16.5q2 -8 9 -5t10.5 12.5t4.5 15.5t5 13q5 7 5.5 12.5t6 7.5t16.5 -1t18 2t14 1t17 -2q28 6 33 -29v-5.5t-0.5 -4.5t1 -11.5t-2 -17.5t-3 -21.5
t-6.5 -32t-9 -38t-3 -28t-1.5 -16t-0.5 -15.5v-22q0 -6 -1 -11.5t-1.5 -13t-2.5 -14.5q-11 -11 -18.5 -10.5t-10.5 5.5t-7.5 9.5t-6.5 16t0 20.5q6 28 2.5 39t-1 16.5t1 10t-1.5 10.5v12q0 14 -8 16q-5 1 -6 -3t-2 -9q-1 -16 -5 -18.5t-5 -16.5t-6 -22t-7 -18.5t-3 -21.5
q-3 -18 -3 -32t-5.5 -20t-11.5 -6t-9.5 8t-8 12t-4.5 11.5v16.5q2 24 -4 32t-9.5 19t-5.5 21q-5 24 -13 24q-16 0 -13 -45q1 -18 2 -34.5t-3.5 -26t-6 -19.5t-15 -7t-15.5 10t-7.5 16.5t-3.5 21t-2.5 20t-3.5 26t-1 31t1 24.5q7 23 -4 30q-4 3 -19.5 1.5t-19 -9.5t-4 -19
t-3 -19t-5.5 -14q-7 -15 -5 -36q4 -50 -12 -70q-5 -8 -16 -9t-16 3.5t-6.5 12t-2 16.5t-8.5 21t-6 27.5t1.5 27t0.5 21.5t1 19q2 23 -3 25.5t-10 1.5t-10 -3q-29 -11 -47 5q-12 10 -6 55q1 8 -4 16q-11 17 -4 29t25 13t31 -10z" />
    <glyph glyph-name="minus" unicode="&#x2212;" horiz-adv-x="399" 
d="M14 309q-19 19 -2 51q20 40 68 29q34 -8 57.5 -3.5t30.5 0.5t12.5 -3t13.5 3q24 6 52 6q19 0 37.5 1.5t34.5 2.5q39 2 53 -4q20 -12 22 -30q4 -34 -18 -47t-36.5 -11.5t-26 7.5t-20 13t-14 7t-9.5 -3t-9 -7q-13 -9 -32 -9t-25 -1.5t-11 -4.5q-11 -5 -28 -5h-31
q-18 0 -46 1.5t-44.5 -0.5t-28.5 7z" />
    <glyph glyph-name="fi" unicode="&#xfb01;" horiz-adv-x="740" 
d="M202 403q0 -28 29 -28q7 0 13 1.5t20.5 4.5t27 -5.5t19 -12.5t10.5 -9q7 -9 6.5 -33.5t-10.5 -45t-45 -25.5t-52.5 -15t-21 -33t-8.5 -32t-6 -20t-5.5 -23.5t-3 -23.5t1 -29.5t-5.5 -36.5q-12 -44 -43 -44q-12 0 -18.5 12.5t-11 29.5t-9 36t-16.5 39.5t-13.5 46.5
t-1.5 51v48q0 88 -20 110q-13 13 -11 50v28q0 15 5 24q12 26 6.5 73t-10.5 72.5t-0.5 48.5t6 36t10 25t15 13.5t15.5 0.5q12 -1 21 8q33 33 62 15q12 -8 24.5 -17t27.5 -16t34.5 -5t38.5 6t38 2q48 -3 70 -44q15 -28 11.5 -58.5t-6.5 -49.5t-3 -31.5t-1 -15.5t-2 -5
q-4 -11 -5 -30t-4 -28q-9 -23 -35 -23q-17 0 -29 6q-24 12 -34 13q-14 2 -19 16q-2 5 -4 10.5t-6 10t-8.5 12t-18.5 5.5q-28 -4 -26 -32l2 -58v-25zM677 553q-19 -5 -21 -46q-2 -33 6.5 -66t9 -52.5t-6 -42.5t-6 -36.5t-4.5 -33.5q1 -21 -0.5 -42.5t-2.5 -41.5
q-3 -49 -1 -58t6.5 -11.5t10.5 -4.5q15 -6 17.5 -13.5t2 -22t-3.5 -30.5q-9 -38 -25 -49q-9 -6 -18.5 -4t-20.5 4q-34 6 -58 -6q-59 -32 -91 0q-13 13 -16 40q-4 50 9 67q7 12 18.5 17t14.5 8t3 12t2.5 19.5t4.5 22.5q5 29 -5 48q-11 21 -10 35.5t3 25t4 32t-1 42t-5 43
t-1.5 42.5t0.5 38q0 42 -10 52q-8 8 -21.5 7t-20 -0.5t-13.5 9t-7 25.5t6 26t8 20.5t2 24.5q2 30 -2 39.5t-5 17t-1 14.5q0 19 12.5 24.5t27.5 6t30.5 0t31 -1.5t30.5 2q52 10 84 8t40 -5q26 -11 28 -55q1 -21 1 -44t2 -47q4 -50 -38 -59z" />
    <glyph glyph-name="fl" unicode="&#xfb02;" horiz-adv-x="730" 
d="M202 403q0 -28 29 -28q7 0 13 1.5t20.5 4.5t27 -5.5t19 -12.5t10.5 -9q7 -9 6.5 -33.5t-10.5 -45t-45 -25.5t-52.5 -15t-21 -33t-8.5 -32t-6 -20t-5.5 -23.5t-3 -23.5t1 -29.5t-5.5 -36.5q-12 -44 -43 -44q-12 0 -18.5 12.5t-11 29.5t-9 36t-16.5 39.5t-13.5 46.5
t-1.5 51v48q0 88 -20 110q-13 13 -11 50v28q0 15 5 24q12 26 6.5 73t-10.5 72.5t-0.5 48.5t6 36t10 25t15 13.5t15.5 0.5q12 -1 21 8q33 33 62 15q12 -8 24.5 -17t27.5 -16t34.5 -5t38.5 6t38 2q48 -3 70 -44q15 -28 11.5 -58.5t-6.5 -49.5t-3 -31.5t-1 -15.5t-2 -5
q-4 -11 -5 -30t-4 -28q-9 -23 -35 -23q-17 0 -29 6q-24 12 -34 13q-14 2 -19 16q-2 5 -4 10.5t-6 10t-8.5 12t-18.5 5.5q-28 -4 -26 -32l2 -58v-25zM747.5 133.5q-0.5 -10.5 -2.5 -21.5t0 -24.5t3.5 -26t1.5 -23.5t-6.5 -18.5t-19 -12.5t-28.5 -7q-37 -3 -64 11
q-25 13 -48 8t-35.5 -9.5t-28.5 -8.5t-32 -3.5t-27 18t-12 40.5t7 47t6 54.5t-4 52t0 37.5q5 38 -6 49q-15 16 -15 34t1 29t7 19t8 14t-3.5 41.5t-2.5 66t-1 53t-2 37t-2 24.5t-2.5 14.5t-0.5 13t-4 18.5q-6 30 -3.5 41t10 25.5t19.5 16.5q11 4 12.5 6t10.5 5q21 5 34 -1
q16 -8 43 -2t33.5 6.5t14 -6t11 -10.5t1 -12t2 -13t3.5 -14.5t-0.5 -14t1.5 -9.5q2 -10 -2.5 -24t-5 -18.5t-0.5 -8.5q0 -10 -4 -23t-4.5 -20.5t-0.5 -17.5v-22q0 -12 -1.5 -30t-3 -42.5t-3.5 -49.5q-3 -63 -8 -84q-16 -9 -5 -42q6 -17 13.5 -49.5t-2.5 -86.5q28 -16 41 -17
q28 -4 52.5 8t35 10t15 -9.5t4 -18z" />
    </font>
</defs>
</svg>
